<svg width="5307" height="5474" viewBox="0 0 5307 5474" fill="none" xmlns="http://www.w3.org/2000/svg">
<rect x="2402" y="2402" width="496" height="666" fill="#D9D9D9"/>
<rect x="2402" y="2403" width="496" height="667" fill="#218ABE"/>
<g filter="url(#filter0_f_187_347)">
<path d="M2407.73 2440.73C2407.73 2437.66 2407.99 2434.65 2408.5 2431.7C2409.01 2428.7 2409.52 2426.49 2410.03 2425.08L2410.8 2422.87L2409.17 2415.58C2409.62 2414.23 2410.71 2412.92 2412.43 2411.64C2414.35 2410.3 2417.33 2409.62 2421.36 2409.62C2425.39 2409.62 2428.21 2410.3 2429.81 2411.64C2431.47 2412.98 2432.31 2414.94 2432.31 2417.5C2432.31 2418.84 2431.76 2422.2 2430.67 2427.58C2429.59 2432.95 2429.04 2438.65 2429.04 2444.66C2429.04 2450.68 2429.65 2455.38 2430.87 2458.78C2432.15 2462.17 2433.91 2463.86 2436.15 2463.86C2438.45 2463.86 2440.27 2462.23 2441.62 2458.97C2443.03 2455.7 2443.73 2450.9 2443.73 2444.57C2443.73 2438.23 2443.25 2432.31 2442.29 2426.81C2441.39 2421.24 2440.47 2417.24 2439.51 2414.81L2438.16 2411.16C2438.16 2410.97 2438.39 2410.58 2438.83 2410.01C2439.35 2409.43 2439.89 2408.95 2440.47 2408.57C2442 2407.67 2444.02 2407.22 2446.51 2407.22C2457.07 2407.22 2462.35 2416.7 2462.35 2435.64C2462.35 2443.83 2461.43 2450.84 2459.57 2456.66C2457.71 2462.42 2454.58 2467.03 2450.16 2470.49C2445.81 2473.88 2440.24 2475.58 2433.46 2475.58C2424.56 2475.58 2418.03 2472.44 2413.87 2466.17C2409.78 2459.9 2407.73 2451.42 2407.73 2440.73ZM2509.06 2412.22C2509.38 2415.22 2509.54 2417.24 2509.54 2418.26C2509.54 2419.29 2509.51 2420.34 2509.45 2421.43C2509.45 2422.52 2509.22 2423.64 2508.77 2424.79C2508.33 2425.88 2507.72 2426.94 2506.95 2427.96C2505.48 2429.94 2502.82 2430.94 2498.98 2430.94C2496.36 2430.94 2494.21 2430.33 2492.55 2429.11C2490.95 2427.83 2489.41 2426.01 2487.94 2423.64C2486.6 2428.31 2485.93 2433.78 2485.93 2440.06C2485.93 2447.74 2487.81 2453.37 2491.59 2456.95C2493.51 2458.81 2495.97 2459.74 2498.98 2459.74C2501.99 2459.74 2505.41 2458.97 2509.25 2457.43C2509.7 2459.29 2509.73 2461.21 2509.35 2463.19C2508.97 2465.11 2508.36 2466.74 2507.53 2468.09C2506.69 2469.43 2505.64 2470.58 2504.36 2471.54C2501.29 2473.85 2496.84 2475 2491.01 2475C2482.05 2475 2475.4 2471.99 2471.05 2465.98C2469.45 2463.74 2468.13 2460.79 2467.11 2457.14C2466.09 2453.43 2465.57 2449.21 2465.57 2444.47C2465.57 2436.22 2467.17 2429.46 2470.37 2424.22C2473.64 2418.97 2477.61 2415.19 2482.28 2412.89C2482.92 2411.48 2483.97 2410.14 2485.45 2408.86C2486.98 2407.58 2489.03 2406.94 2491.59 2406.94C2494.21 2406.94 2497.19 2407.83 2500.52 2409.62C2503.85 2411.35 2506.69 2412.22 2509.06 2412.22ZM2544.59 2454.65C2547.09 2455.61 2548.34 2458.14 2548.34 2462.23C2548.34 2465.11 2547.5 2467.96 2545.84 2470.78C2544.18 2473.59 2541.94 2475 2539.12 2475L2522.9 2474.23C2520.4 2474.23 2518.19 2474.49 2516.27 2475C2513.97 2471.8 2512.82 2468.5 2512.82 2465.11C2512.82 2461.72 2514.22 2459.8 2517.04 2459.35L2514.26 2410.1C2518.93 2407.22 2522.99 2405.78 2526.45 2405.78C2529.9 2405.78 2532.56 2406.78 2534.42 2408.76C2536.34 2410.68 2537.3 2414.17 2537.3 2419.22C2537.3 2431.06 2536.82 2443.61 2535.86 2456.86L2544.59 2454.65ZM2602.04 2471.93C2601.6 2472.38 2600.51 2473.02 2598.78 2473.85C2597.12 2474.62 2595.07 2475 2592.64 2475C2587.32 2475 2583.96 2471.03 2582.56 2463.1C2580.32 2463.35 2577.63 2463.48 2574.49 2463.48C2571.42 2463.48 2569.47 2463.38 2568.64 2463.19C2567.8 2467.48 2566.62 2470.52 2565.08 2472.31C2563.61 2474.1 2561.37 2475 2558.36 2475C2556.89 2475 2555.48 2474.74 2554.14 2474.23C2552.8 2473.72 2551.84 2473.21 2551.26 2472.7L2550.3 2471.93C2552.8 2441.85 2556.32 2423.67 2560.86 2417.4C2562.52 2415.22 2564.06 2413.88 2565.47 2413.37C2566.88 2412.79 2568.19 2412.5 2569.4 2412.5C2570.62 2412.5 2571.39 2412.54 2571.71 2412.6C2572.03 2412.6 2572.25 2412.6 2572.38 2412.6L2572 2410.68C2572.19 2410.42 2572.44 2410.1 2572.76 2409.72C2573.15 2409.27 2574.11 2408.7 2575.64 2407.99C2577.18 2407.29 2578.97 2406.94 2581.02 2406.94C2585.24 2406.94 2588.57 2408.54 2591 2411.74C2593.5 2414.87 2595.71 2421.02 2597.63 2430.17C2599.61 2439.26 2601.47 2452.76 2603.2 2470.68C2602.94 2471 2602.56 2471.42 2602.04 2471.93ZM2570.27 2452.15C2572.32 2451.9 2574.46 2451.77 2576.7 2451.77C2578.94 2451.77 2580.22 2451.8 2580.54 2451.86C2578.24 2440.22 2576.22 2430.36 2574.49 2422.3C2572.89 2431.13 2571.48 2441.08 2570.27 2452.15Z" fill="#C1E6F8" fill-opacity="0.75"/>
</g>
<g filter="url(#filter1_f_187_347)">
<path d="M2690.23 3031.73C2690.23 3028.66 2690.49 3025.65 2691 3022.7C2691.51 3019.7 2692.02 3017.49 2692.53 3016.08L2693.3 3013.87L2691.67 3006.58C2692.12 3005.23 2693.21 3003.92 2694.93 3002.64C2696.85 3001.3 2699.83 3000.62 2703.86 3000.62C2707.89 3000.62 2710.71 3001.3 2712.31 3002.64C2713.97 3003.98 2714.81 3005.94 2714.81 3008.5C2714.81 3009.84 2714.26 3013.2 2713.17 3018.58C2712.09 3023.95 2711.54 3029.65 2711.54 3035.66C2711.54 3041.68 2712.15 3046.38 2713.37 3049.78C2714.65 3053.17 2716.41 3054.86 2718.65 3054.86C2720.95 3054.86 2722.77 3053.23 2724.12 3049.97C2725.53 3046.7 2726.23 3041.9 2726.23 3035.57C2726.23 3029.23 2725.75 3023.31 2724.79 3017.81C2723.89 3012.24 2722.97 3008.24 2722.01 3005.81L2720.66 3002.16C2720.66 3001.97 2720.89 3001.58 2721.33 3001.01C2721.85 3000.43 2722.39 2999.95 2722.97 2999.57C2724.5 2998.67 2726.52 2998.22 2729.01 2998.22C2739.57 2998.22 2744.85 3007.7 2744.85 3026.64C2744.85 3034.83 2743.93 3041.84 2742.07 3047.66C2740.21 3053.42 2737.08 3058.03 2732.66 3061.49C2728.31 3064.88 2722.74 3066.58 2715.96 3066.58C2707.06 3066.58 2700.53 3063.44 2696.37 3057.17C2692.28 3050.9 2690.23 3042.42 2690.23 3031.73ZM2791.56 3003.22C2791.88 3006.22 2792.04 3008.24 2792.04 3009.26C2792.04 3010.29 2792.01 3011.34 2791.95 3012.43C2791.95 3013.52 2791.72 3014.64 2791.27 3015.79C2790.83 3016.88 2790.22 3017.94 2789.45 3018.96C2787.98 3020.94 2785.32 3021.94 2781.48 3021.94C2778.86 3021.94 2776.71 3021.33 2775.05 3020.11C2773.45 3018.83 2771.91 3017.01 2770.44 3014.64C2769.1 3019.31 2768.43 3024.78 2768.43 3031.06C2768.43 3038.74 2770.31 3044.37 2774.09 3047.95C2776.01 3049.81 2778.47 3050.74 2781.48 3050.74C2784.49 3050.74 2787.91 3049.97 2791.75 3048.43C2792.2 3050.29 2792.23 3052.21 2791.85 3054.19C2791.47 3056.11 2790.86 3057.74 2790.03 3059.09C2789.19 3060.43 2788.14 3061.58 2786.86 3062.54C2783.79 3064.85 2779.34 3066 2773.51 3066C2764.55 3066 2757.9 3062.99 2753.55 3056.98C2751.95 3054.74 2750.63 3051.79 2749.61 3048.14C2748.59 3044.43 2748.07 3040.21 2748.07 3035.47C2748.07 3027.22 2749.67 3020.46 2752.87 3015.22C2756.14 3009.97 2760.11 3006.19 2764.78 3003.89C2765.42 3002.48 2766.47 3001.14 2767.95 2999.86C2769.48 2998.58 2771.53 2997.94 2774.09 2997.94C2776.71 2997.94 2779.69 2998.83 2783.02 3000.62C2786.35 3002.35 2789.19 3003.22 2791.56 3003.22ZM2827.09 3045.65C2829.59 3046.61 2830.84 3049.14 2830.84 3053.23C2830.84 3056.11 2830 3058.96 2828.34 3061.78C2826.68 3064.59 2824.44 3066 2821.62 3066L2805.4 3065.23C2802.9 3065.23 2800.69 3065.49 2798.77 3066C2796.47 3062.8 2795.32 3059.5 2795.32 3056.11C2795.32 3052.72 2796.72 3050.8 2799.54 3050.35L2796.76 3001.1C2801.43 2998.22 2805.49 2996.78 2808.95 2996.78C2812.4 2996.78 2815.06 2997.78 2816.92 2999.76C2818.84 3001.68 2819.8 3005.17 2819.8 3010.22C2819.8 3022.06 2819.32 3034.61 2818.36 3047.86L2827.09 3045.65ZM2884.54 3062.93C2884.1 3063.38 2883.01 3064.02 2881.28 3064.85C2879.62 3065.62 2877.57 3066 2875.14 3066C2869.82 3066 2866.46 3062.03 2865.06 3054.1C2862.82 3054.35 2860.13 3054.48 2856.99 3054.48C2853.92 3054.48 2851.97 3054.38 2851.14 3054.19C2850.3 3058.48 2849.12 3061.52 2847.58 3063.31C2846.11 3065.1 2843.87 3066 2840.86 3066C2839.39 3066 2837.98 3065.74 2836.64 3065.23C2835.3 3064.72 2834.34 3064.21 2833.76 3063.7L2832.8 3062.93C2835.3 3032.85 2838.82 3014.67 2843.36 3008.4C2845.02 3006.22 2846.56 3004.88 2847.97 3004.37C2849.38 3003.79 2850.69 3003.5 2851.9 3003.5C2853.12 3003.5 2853.89 3003.54 2854.21 3003.6C2854.53 3003.6 2854.75 3003.6 2854.88 3003.6L2854.5 3001.68C2854.69 3001.42 2854.94 3001.1 2855.26 3000.72C2855.65 3000.27 2856.61 2999.7 2858.14 2998.99C2859.68 2998.29 2861.47 2997.94 2863.52 2997.94C2867.74 2997.94 2871.07 2999.54 2873.5 3002.74C2876 3005.87 2878.21 3012.02 2880.13 3021.17C2882.11 3030.26 2883.97 3043.76 2885.7 3061.68C2885.44 3062 2885.06 3062.42 2884.54 3062.93ZM2852.77 3043.15C2854.82 3042.9 2856.96 3042.77 2859.2 3042.77C2861.44 3042.77 2862.72 3042.8 2863.04 3042.86C2860.74 3031.22 2858.72 3021.36 2856.99 3013.3C2855.39 3022.13 2853.98 3032.08 2852.77 3043.15Z" fill="#C1E6F8" fill-opacity="0.75"/>
</g>
<rect x="2418.5" y="2423.5" width="462" height="626" stroke="#FFD100" stroke-width="5"/>
<mask id="path-6-inside-1_187_347" fill="white">
<path d="M2440 2457C2440 2449.27 2446.27 2443 2454 2443H2846C2853.73 2443 2860 2449.27 2860 2457V2837C2860 2844.73 2853.73 2851 2846 2851H2454C2446.27 2851 2440 2844.73 2440 2837V2457Z"/>
</mask>
<path d="M2438 2457C2438 2448.16 2445.16 2441 2454 2441H2846C2854.84 2441 2862 2448.16 2862 2457H2858C2858 2450.37 2852.63 2445 2846 2445H2454C2447.37 2445 2442 2450.37 2442 2457H2438ZM2860 2851H2440H2860ZM2454 2851C2445.16 2851 2438 2843.84 2438 2835V2457C2438 2448.16 2445.16 2441 2454 2441V2445C2447.37 2445 2442 2450.37 2442 2457V2837C2442 2844.73 2447.37 2851 2454 2851ZM2846 2441C2854.84 2441 2862 2448.16 2862 2457V2835C2862 2843.84 2854.84 2851 2846 2851C2852.63 2851 2858 2844.73 2858 2837V2457C2858 2450.37 2852.63 2445 2846 2445V2441Z" fill="#C1E6F8" mask="url(#path-6-inside-1_187_347)"/>
<path d="M2810.77 2536H2830.78C2831.8 2536 2832.73 2536.25 2833.57 2536.75C2834.43 2537.23 2835.11 2537.9 2835.61 2538.76C2836.11 2539.6 2836.36 2540.53 2836.36 2541.55C2836.36 2542.53 2836.12 2543.46 2835.64 2544.34C2835.16 2545.22 2834.52 2545.93 2833.72 2546.47C2834.52 2547.03 2835.16 2547.76 2835.64 2548.66C2836.12 2549.54 2836.36 2550.47 2836.36 2551.45C2836.36 2552.45 2836.11 2553.38 2835.61 2554.24C2835.11 2555.08 2834.43 2555.75 2833.57 2556.25C2832.73 2556.75 2831.8 2557 2830.78 2557H2810.77V2536ZM2821.75 2545.63C2822.47 2545.63 2823.13 2545.46 2823.73 2545.12C2824.35 2544.76 2824.83 2544.28 2825.17 2543.68C2825.53 2543.06 2825.71 2542.4 2825.71 2541.7C2825.71 2540.98 2825.53 2540.32 2825.17 2539.72C2824.83 2539.1 2824.35 2538.61 2823.73 2538.25C2823.13 2537.89 2822.47 2537.71 2821.75 2537.71H2821.3V2545.6C2821.4 2545.62 2821.55 2545.63 2821.75 2545.63ZM2821.75 2555.26C2822.47 2555.26 2823.13 2555.09 2823.73 2554.75C2824.35 2554.39 2824.83 2553.91 2825.17 2553.31C2825.53 2552.69 2825.71 2552.02 2825.71 2551.3C2825.71 2550.6 2825.53 2549.95 2825.17 2549.35C2824.83 2548.73 2824.35 2548.25 2823.73 2547.91C2823.13 2547.55 2822.47 2547.37 2821.75 2547.37H2821.3V2555.23C2821.4 2555.25 2821.55 2555.26 2821.75 2555.26ZM2810.73 2575H2830.8C2831.78 2575 2832.68 2575.25 2833.5 2575.75C2834.34 2576.23 2835 2576.89 2835.48 2577.73C2835.98 2578.55 2836.23 2579.45 2836.23 2580.43C2836.23 2581.73 2835.83 2582.91 2835.03 2583.97C2834.23 2585.03 2833.22 2585.71 2832 2586.01C2833.08 2586.31 2833.96 2586.88 2834.64 2587.72C2835.34 2588.56 2835.69 2589.51 2835.69 2590.57V2596H2825.64V2589.49C2825.64 2588.85 2825.52 2588.35 2825.28 2587.99C2825 2587.57 2824.68 2587.26 2824.32 2587.06C2823.92 2586.84 2823.47 2586.68 2822.97 2586.58C2822.45 2586.48 2821.96 2586.42 2821.5 2586.4L2820.69 2586.37V2596H2810.73V2575ZM2821.74 2584.63C2822.46 2584.63 2823.12 2584.46 2823.72 2584.12C2824.34 2583.76 2824.82 2583.28 2825.16 2582.68C2825.52 2582.06 2825.7 2581.4 2825.7 2580.7C2825.7 2579.98 2825.52 2579.32 2825.16 2578.72C2824.82 2578.1 2824.34 2577.61 2823.72 2577.25C2823.12 2576.89 2822.46 2576.71 2821.74 2576.71H2820.69V2584.66L2821.74 2584.63ZM2823.51 2635.15C2819.89 2635.15 2817.3 2634.62 2815.74 2633.56C2814.2 2632.5 2813.43 2630.88 2813.43 2628.7V2614H2824.89V2628.7C2824.89 2630.12 2825.2 2631.16 2825.82 2631.82C2826.46 2632.46 2827.3 2632.78 2828.34 2632.78C2830.66 2632.78 2831.82 2631.42 2831.82 2628.7V2614H2833.59V2628.7C2833.59 2630.4 2833.23 2631.72 2832.51 2632.66C2831.79 2633.58 2830.71 2634.23 2829.27 2634.61C2827.83 2634.97 2825.91 2635.15 2823.51 2635.15ZM2818.6 2653H2828.38V2674H2818.6V2653ZM2813.81 2692H2822.63L2831.39 2702.5V2692H2833.19V2713H2826.14L2815.64 2699.02V2713H2813.81V2692ZM2827.95 2738.53C2830.33 2739.17 2832.11 2740.02 2833.29 2741.08C2834.47 2742.12 2835.06 2743.48 2835.06 2745.16C2835.06 2746.5 2834.64 2747.7 2833.8 2748.76C2832.96 2749.82 2831.72 2750.65 2830.08 2751.25C2828.46 2751.85 2826.49 2752.15 2824.17 2752.15C2821.43 2752.15 2819.01 2751.8 2816.91 2751.1C2814.83 2750.38 2813.2 2749.51 2812.02 2748.49L2813.01 2747.14C2814.05 2747.96 2815.36 2748.66 2816.94 2749.24C2818.52 2749.82 2820.22 2750.11 2822.04 2750.11C2823.22 2750.11 2824.11 2749.94 2824.71 2749.6C2825.33 2749.26 2825.64 2748.78 2825.64 2748.16C2825.64 2747.08 2824.57 2746.24 2822.43 2745.64L2818.53 2744.5C2816.41 2743.86 2814.77 2742.97 2813.61 2741.83C2812.47 2740.69 2811.9 2739.34 2811.9 2737.78C2811.9 2736.48 2812.31 2735.3 2813.13 2734.24C2813.95 2733.18 2815.14 2732.35 2816.7 2731.75C2818.28 2731.13 2820.17 2730.82 2822.37 2730.82C2824.47 2730.82 2826.4 2731.06 2828.16 2731.54C2829.94 2732.02 2831.39 2732.6 2832.51 2733.28L2831.52 2734.66C2830.58 2734.12 2829.45 2733.66 2828.13 2733.28C2826.83 2732.9 2825.46 2732.71 2824.02 2732.71C2822.76 2732.71 2821.79 2732.91 2821.11 2733.31C2820.45 2733.69 2820.12 2734.22 2820.12 2734.9C2820.12 2735.42 2820.37 2735.88 2820.87 2736.28C2821.37 2736.66 2822.32 2737.04 2823.72 2737.42L2827.95 2738.53Z" fill="#98D6F2" fill-opacity="0.52"/>
<rect x="2402" y="2876" width="372" height="88" fill="#FAF5E9" fill-opacity="0.63"/>
<path d="M2449.19 2910.89L2434 2909.27H2449.55L2449.19 2910.89ZM2449.98 2907.4L2434.83 2905.78H2450.38L2449.98 2907.4ZM2450.81 2903.94L2435.66 2902.32H2451.17L2450.81 2903.94ZM2451.6 2900.49L2436.48 2898.87H2452L2451.6 2900.49ZM2452.43 2897.03L2437.31 2895.41H2452.79L2452.43 2897.03ZM2453.22 2893.58L2438.14 2891.96H2453.62L2453.22 2893.58ZM2454.05 2890.12L2438.97 2888.5H2454.41L2454.05 2890.12ZM2457.4 2911H2450.27L2455.53 2888.5H2464.46L2465.1 2899.95H2465.36L2470.04 2888.5H2478.96L2476.3 2911H2469.14L2470.65 2900.09H2470.4L2465.9 2911H2460.68L2459.92 2900.09H2459.74L2457.4 2911ZM2499.97 2903.26H2494.6L2494.17 2905.71H2500.83L2499.9 2911H2487.19L2490.5 2891.96H2503.17L2501.48 2897.36H2495.61L2495.18 2899.8H2500.58L2499.97 2903.26ZM2486 2910.89L2470.74 2909.27H2486.29L2486 2910.89ZM2487.22 2903.94L2471.96 2902.32H2487.51L2487.22 2903.94ZM2487.84 2900.49L2472.57 2898.87H2488.12L2487.84 2900.49ZM2488.45 2897.03L2473.18 2895.41H2488.74L2488.45 2897.03ZM2489.06 2893.58L2473.8 2891.96H2489.31L2489.06 2893.58ZM2486.61 2907.4L2471.35 2905.78H2486.9L2486.61 2907.4ZM2521.97 2911L2518.26 2903.87H2518.12L2516.86 2911H2510.81L2514.12 2891.96H2519.02L2522.76 2899.05H2522.98L2524.2 2891.96H2530.22L2526.87 2911H2521.97ZM2509.62 2910.89L2494.36 2909.27H2509.91L2509.62 2910.89ZM2510.85 2903.94L2495.58 2902.32H2511.14L2510.85 2903.94ZM2511.46 2900.49L2496.2 2898.87H2511.75L2511.46 2900.49ZM2512.07 2897.03L2496.81 2895.41H2512.36L2512.07 2897.03ZM2512.68 2893.58L2497.42 2891.96H2512.94L2512.68 2893.58ZM2510.24 2907.4L2494.97 2905.78H2510.52L2510.24 2907.4ZM2538.08 2893.32V2893.58L2526.42 2891.96H2538.26C2538.14 2892.2 2538.08 2892.65 2538.08 2893.32ZM2537.58 2900.45L2526.31 2898.87H2538.19L2537.58 2900.45ZM2539.42 2895.81L2538.95 2897L2527.57 2895.41H2538.8C2538.92 2895.56 2539.13 2895.69 2539.42 2895.81ZM2539.27 2892.35C2539.56 2890.91 2540 2889.92 2540.6 2889.36C2541.2 2888.79 2542.16 2888.5 2543.48 2888.5C2544.8 2888.5 2545.69 2888.68 2546.15 2889.04C2546.63 2889.4 2546.87 2890 2546.87 2890.84C2546.87 2892.5 2546.2 2894.37 2544.85 2896.46L2541.68 2901.35L2538.8 2900.31L2540.82 2895.12C2539.72 2894.93 2539.16 2894.33 2539.16 2893.32C2539.16 2893.04 2539.2 2892.71 2539.27 2892.35ZM2539.06 2909.27H2554.61L2554.11 2910.89L2539.06 2909.27ZM2557.35 2895.41C2557.2 2895.8 2557.04 2896.34 2556.88 2897.03L2541.83 2895.41H2557.35ZM2556.45 2900.2V2900.49L2541.18 2898.87H2556.52C2556.47 2899.44 2556.45 2899.89 2556.45 2900.2ZM2555.26 2907.36L2540.24 2905.78H2555.76L2555.26 2907.36ZM2559.83 2891.96C2559.18 2892.44 2558.69 2892.94 2558.35 2893.47L2544.31 2891.96H2559.83ZM2556.77 2902.32C2556.99 2902.95 2557.33 2903.49 2557.81 2903.94L2542.58 2902.32H2556.77ZM2571.13 2897.61C2569.5 2897.22 2568.11 2897.03 2566.96 2897.03C2565.81 2897.03 2564.95 2897.07 2564.4 2897.14L2564.22 2898.18L2566.02 2898.4C2569.89 2898.9 2571.82 2900.5 2571.82 2903.19C2571.82 2903.5 2571.75 2904.09 2571.6 2904.95C2571.46 2905.79 2571.22 2906.61 2570.88 2907.4C2570.55 2908.19 2570.11 2908.84 2569.59 2909.34C2569.08 2909.82 2568.58 2910.22 2568.07 2910.53C2567.59 2910.82 2566.97 2911.02 2566.2 2911.14C2565 2911.34 2563.39 2911.43 2561.38 2911.43C2559.39 2911.43 2557.37 2911.16 2555.33 2910.6L2557.09 2905.28C2558.97 2905.8 2560.6 2906.07 2561.99 2906.07C2563.41 2906.07 2564.4 2906.03 2564.98 2905.96L2565.16 2904.81L2562.89 2904.56C2560.95 2904.34 2559.57 2903.88 2558.75 2903.19C2557.93 2902.49 2557.53 2901.5 2557.53 2900.2C2557.53 2899.72 2557.59 2899.12 2557.71 2898.4C2558.19 2895.83 2559.05 2894.06 2560.3 2893.07C2561.55 2892.09 2563.44 2891.6 2565.99 2891.6C2568.55 2891.6 2570.85 2891.85 2572.86 2892.35L2571.13 2897.61ZM2465.39 2926.5C2467.12 2926.5 2468.37 2926.8 2469.14 2927.4C2469.93 2928 2470.32 2928.92 2470.32 2930.17C2470.32 2932 2469.92 2933.5 2469.1 2934.67C2468.31 2935.85 2467.34 2936.58 2466.18 2936.87L2466.15 2937.08C2468.31 2937.49 2469.39 2938.92 2469.39 2941.37C2469.39 2943.53 2468.8 2945.34 2467.62 2946.8C2466.45 2948.27 2464.79 2949 2462.66 2949H2450.34L2454.3 2926.5H2465.39ZM2461.43 2940.04H2458.73L2458.08 2943.71H2460.75C2461.35 2943.71 2461.8 2943.47 2462.12 2942.99C2462.43 2942.51 2462.58 2941.9 2462.58 2941.15C2462.58 2940.41 2462.2 2940.04 2461.43 2940.04ZM2462.44 2931.43H2460.28L2459.67 2934.78H2461.79C2462.9 2934.78 2463.45 2934 2463.45 2932.44C2463.45 2931.77 2463.11 2931.43 2462.44 2931.43ZM2449.26 2948.89L2434 2947.27H2449.55L2449.26 2948.89ZM2450.49 2941.94L2435.22 2940.32H2450.78L2450.49 2941.94ZM2451.1 2938.49L2435.84 2936.87H2451.39L2451.1 2938.49ZM2451.71 2935.03L2436.45 2933.41H2452L2451.71 2935.03ZM2452.32 2931.58L2437.06 2929.96H2452.58L2452.32 2931.58ZM2449.88 2945.4L2434.61 2943.78H2450.16L2449.88 2945.4ZM2452.9 2928.12L2437.67 2926.5H2453.19L2452.9 2928.12ZM2489.81 2949L2489.67 2946.08H2485.13L2484.02 2949H2477.79L2485.78 2929.96H2494.71L2496.11 2949H2489.81ZM2489.67 2940.94V2935.46H2489.17L2487.04 2940.94H2489.67ZM2476.64 2948.86L2461.88 2947.27H2477.32L2476.64 2948.86ZM2478.11 2945.36L2463.35 2943.78H2478.8L2478.11 2945.36ZM2479.59 2941.91L2464.83 2940.32H2480.24L2479.59 2941.91ZM2481.03 2938.45L2466.31 2936.87H2481.71L2481.03 2938.45ZM2482.51 2935L2467.78 2933.41H2483.15L2482.51 2935ZM2483.95 2931.5L2469.26 2929.96H2484.59L2483.95 2931.5ZM2489.59 2947.27H2505.14L2504.64 2948.89L2489.59 2947.27ZM2507.88 2933.41C2507.74 2933.8 2507.58 2934.34 2507.41 2935.03L2492.36 2933.41H2507.88ZM2506.98 2938.2V2938.49L2491.72 2936.87H2507.05C2507 2937.44 2506.98 2937.89 2506.98 2938.2ZM2505.79 2945.36L2490.78 2943.78H2506.3L2505.79 2945.36ZM2510.36 2929.96C2509.72 2930.44 2509.22 2930.94 2508.89 2931.47L2494.85 2929.96H2510.36ZM2507.3 2940.32C2507.52 2940.95 2507.87 2941.49 2508.35 2941.94L2493.12 2940.32H2507.3ZM2521.67 2935.61C2520.04 2935.22 2518.64 2935.03 2517.49 2935.03C2516.34 2935.03 2515.49 2935.07 2514.94 2935.14L2514.76 2936.18L2516.56 2936.4C2520.42 2936.9 2522.35 2938.5 2522.35 2941.19C2522.35 2941.5 2522.28 2942.09 2522.14 2942.95C2521.99 2943.79 2521.75 2944.61 2521.42 2945.4C2521.08 2946.19 2520.65 2946.84 2520.12 2947.34C2519.62 2947.82 2519.11 2948.22 2518.61 2948.53C2518.13 2948.82 2517.5 2949.02 2516.74 2949.14C2515.54 2949.34 2513.93 2949.43 2511.91 2949.43C2509.92 2949.43 2507.9 2949.16 2505.86 2948.6L2507.63 2943.28C2509.5 2943.8 2511.13 2944.07 2512.52 2944.07C2513.94 2944.07 2514.94 2944.03 2515.51 2943.96L2515.69 2942.81L2513.42 2942.56C2511.48 2942.34 2510.1 2941.88 2509.28 2941.19C2508.47 2940.49 2508.06 2939.5 2508.06 2938.2C2508.06 2937.72 2508.12 2937.12 2508.24 2936.4C2508.72 2933.83 2509.58 2932.06 2510.83 2931.07C2512.08 2930.09 2513.98 2929.6 2516.52 2929.6C2519.09 2929.6 2521.38 2929.85 2523.4 2930.35L2521.67 2935.61ZM2540.38 2949L2538.69 2942.77H2538.47L2537.39 2949H2531.34L2534.66 2929.96H2540.74L2539.7 2935.79H2539.88L2543.58 2929.96H2550.17L2544.12 2939.28L2546.97 2949H2540.38ZM2530.16 2948.89L2514.89 2947.27H2530.44L2530.16 2948.89ZM2531.38 2941.94L2516.12 2940.32H2531.67L2531.38 2941.94ZM2531.99 2938.49L2516.73 2936.87H2532.28L2531.99 2938.49ZM2532.6 2935.03L2517.34 2933.41H2532.89L2532.6 2935.03ZM2533.22 2931.58L2517.95 2929.96H2533.47L2533.22 2931.58ZM2530.77 2945.4L2515.5 2943.78H2531.06L2530.77 2945.4ZM2569.23 2941.26H2563.86L2563.43 2943.71H2570.09L2569.15 2949H2556.45L2559.76 2929.96H2572.43L2570.74 2935.36H2564.87L2564.44 2937.8H2569.84L2569.23 2941.26ZM2555.26 2948.89L2539.99 2947.27H2555.55L2555.26 2948.89ZM2556.48 2941.94L2541.22 2940.32H2556.77L2556.48 2941.94ZM2557.09 2938.49L2541.83 2936.87H2557.38L2557.09 2938.49ZM2557.71 2935.03L2542.44 2933.41H2557.99L2557.71 2935.03ZM2558.32 2931.58L2543.05 2929.96H2558.57L2558.32 2931.58ZM2555.87 2945.4L2540.61 2943.78H2556.16L2555.87 2945.4ZM2595.3 2935.36H2591.41L2589.03 2949H2582.7L2585.07 2935.36H2581.08L2582.05 2929.96H2596.27L2595.3 2935.36ZM2581.62 2948.89L2566.35 2947.27H2581.91L2581.62 2948.89ZM2582.84 2941.94L2567.58 2940.32H2583.13L2582.84 2941.94ZM2583.45 2938.49L2568.19 2936.87H2583.74L2583.45 2938.49ZM2580 2935.03L2564.73 2933.41H2580.29L2580 2935.03ZM2580.61 2931.58L2565.35 2929.96H2580.86L2580.61 2931.58ZM2582.23 2945.4L2566.97 2943.78H2582.52L2582.23 2945.4ZM2615.53 2929.96C2618.27 2929.96 2619.64 2931.08 2619.64 2933.34C2619.64 2934.59 2619.34 2935.72 2618.74 2936.72C2618.16 2937.73 2617.45 2938.43 2616.61 2938.81L2616.58 2939.03C2618.16 2939.53 2618.95 2940.62 2618.95 2942.3C2618.95 2944.42 2618.38 2946.06 2617.22 2947.24C2616.1 2948.41 2614.38 2949 2612.08 2949H2602.5L2605.81 2929.96H2615.53ZM2612.08 2941.62H2609.84L2609.38 2944.28H2611.61C2612.45 2944.28 2612.87 2943.67 2612.87 2942.45C2612.87 2941.9 2612.6 2941.62 2612.08 2941.62ZM2613.01 2934.53H2611.07L2610.67 2936.83H2612.65C2613.37 2936.83 2613.73 2936.3 2613.73 2935.25C2613.73 2934.77 2613.49 2934.53 2613.01 2934.53ZM2601.35 2948.89L2586.08 2947.27H2601.64L2601.35 2948.89ZM2602.57 2941.94L2587.31 2940.32H2602.86L2602.57 2941.94ZM2603.18 2938.49L2587.92 2936.87H2603.47L2603.18 2938.49ZM2603.8 2935.03L2588.53 2933.41H2604.08L2603.8 2935.03ZM2604.41 2931.58L2589.14 2929.96H2604.66L2604.41 2931.58ZM2601.96 2945.4L2586.7 2943.78H2602.25L2601.96 2945.4ZM2639.79 2949L2639.65 2946.08H2635.11L2634 2949H2627.77L2635.76 2929.96H2644.69L2646.09 2949H2639.79ZM2639.65 2940.94V2935.46H2639.14L2637.02 2940.94H2639.65ZM2626.62 2948.86L2611.86 2947.27H2627.3L2626.62 2948.86ZM2628.09 2945.36L2613.33 2943.78H2628.78L2628.09 2945.36ZM2629.57 2941.91L2614.81 2940.32H2630.22L2629.57 2941.91ZM2631.01 2938.45L2616.28 2936.87H2631.69L2631.01 2938.45ZM2632.48 2935L2617.76 2933.41H2633.13L2632.48 2935ZM2633.92 2931.5L2619.24 2929.96H2634.57L2633.92 2931.5ZM2667.18 2949H2655.48L2658.79 2929.96H2665.13L2662.72 2943.71H2668.12L2667.18 2949ZM2654.29 2948.89L2639.03 2947.27H2654.58L2654.29 2948.89ZM2655.52 2941.94L2640.25 2940.32H2655.8L2655.52 2941.94ZM2656.13 2938.49L2640.86 2936.87H2656.42L2656.13 2938.49ZM2656.74 2935.03L2641.48 2933.41H2657.03L2656.74 2935.03ZM2657.35 2931.58L2642.09 2929.96H2657.6L2657.35 2931.58ZM2654.9 2945.4L2639.64 2943.78H2655.19L2654.9 2945.4ZM2687.61 2949H2675.91L2679.22 2929.96H2685.55L2683.14 2943.71H2688.54L2687.61 2949ZM2674.72 2948.89L2659.45 2947.27H2675.01L2674.72 2948.89ZM2675.94 2941.94L2660.68 2940.32H2676.23L2675.94 2941.94ZM2676.55 2938.49L2661.29 2936.87H2676.84L2676.55 2938.49ZM2677.17 2935.03L2661.9 2933.41H2677.45L2677.17 2935.03ZM2677.78 2931.58L2662.51 2929.96H2678.03L2677.78 2931.58ZM2675.33 2945.4L2660.07 2943.78H2675.62L2675.33 2945.4Z" fill="#023047"/>
<g filter="url(#filter2_dddddd_187_347)">
<path fill-rule="evenodd" clip-rule="evenodd" d="M2926.97 2373L2940.18 2376.94L2903.7 2462.97L2940.81 2602.19L2903.8 2706.47L2941 2791.85L2903.83 2885.38L2940.88 2972.75L2903.23 3105L2889.6 3102.27L2926.27 2973.4L2889 2885.51L2926.15 2792.03L2889.03 2706.85L2926.33 2601.77L2889.13 2462.23L2926.97 2373Z" fill="#60BBE5" fill-opacity="0.4"/>
<path fill-rule="evenodd" clip-rule="evenodd" d="M2926.97 2373L2940.18 2376.94L2903.7 2462.97L2940.81 2602.19L2903.8 2706.47L2941 2791.85L2903.83 2885.38L2940.88 2972.75L2903.23 3105L2889.6 3102.27L2926.27 2973.4L2889 2885.51L2926.15 2792.03L2889.03 2706.85L2926.33 2601.77L2889.13 2462.23L2926.97 2373Z" fill="white"/>
</g>
<g filter="url(#filter3_dddddd_187_347)">
<path fill-rule="evenodd" clip-rule="evenodd" d="M2926.56 2517.81L2863 2390.6L2875.76 2386L2941.09 2516.76L2898.96 2668.78L2967 2760.58L2899.86 2848.23L2949.16 2910.51L2898.85 3028.11L2927.99 3111.65L2914.71 3115L2884.26 3027.74L2933.73 2912.11L2883.24 2848.34L2950.54 2760.48L2884.14 2670.88L2926.56 2517.81Z" fill="white"/>
</g>
<g filter="url(#filter4_dddddd_187_347)">
<path fill-rule="evenodd" clip-rule="evenodd" d="M2352.9 3079.93L2355.95 3068.78L2425.47 3098.24L2537.09 3065.16L2621.29 3094.81L2689.61 3062.4L2765.17 3092.33L2835.08 3060.02L2941.79 3089.81L2939.72 3101.3L2835.75 3072.27L2765.41 3104.78L2689.89 3074.87L2621.73 3107.21L2536.88 3077.32L2425.01 3110.48L2352.9 3079.93Z" fill="#60BBE5" fill-opacity="0.4"/>
<path fill-rule="evenodd" clip-rule="evenodd" d="M2352.9 3079.93L2355.95 3068.78L2425.47 3098.24L2537.09 3065.16L2621.29 3094.81L2689.61 3062.4L2765.17 3092.33L2835.08 3060.02L2941.79 3089.81L2939.72 3101.3L2835.75 3072.27L2765.41 3104.78L2689.89 3074.87L2621.73 3107.21L2536.88 3077.32L2425.01 3110.48L2352.9 3079.93Z" fill="white"/>
</g>
<g filter="url(#filter5_dddddd_187_347)">
<path fill-rule="evenodd" clip-rule="evenodd" d="M2470.1 3078.19L2368.55 3133.94L2364.73 3123.16L2469.12 3065.86L2591.59 3099.56L2664.67 3040.5L2735.68 3096.34L2785.23 3053.59L2880.14 3094.73L2946.95 3068.82L2949.76 3080.07L2879.97 3107.13L2786.66 3066.69L2735.93 3110.46L2664.74 3054.48L2593.41 3112.13L2470.1 3078.19Z" fill="white"/>
</g>
<g filter="url(#filter6_dddddd_187_347)">
<path fill-rule="evenodd" clip-rule="evenodd" d="M2941.6 2394.07L2938.55 2405.22L2869.03 2375.76L2757.41 2408.84L2673.21 2379.19L2604.9 2411.6L2529.33 2381.67L2459.42 2413.98L2352.71 2384.19L2354.78 2372.7L2458.75 2401.73L2529.09 2369.22L2604.61 2399.13L2672.77 2366.79L2757.62 2396.68L2869.49 2363.52L2941.6 2394.07Z" fill="#60BBE5" fill-opacity="0.4"/>
<path fill-rule="evenodd" clip-rule="evenodd" d="M2941.6 2394.07L2938.55 2405.22L2869.03 2375.76L2757.41 2408.84L2673.21 2379.19L2604.9 2411.6L2529.33 2381.67L2459.42 2413.98L2352.71 2384.19L2354.78 2372.7L2458.75 2401.73L2529.09 2369.22L2604.61 2399.13L2672.77 2366.79L2757.62 2396.68L2869.49 2363.52L2941.6 2394.07Z" fill="white"/>
</g>
<g filter="url(#filter7_dddddd_187_347)">
<path fill-rule="evenodd" clip-rule="evenodd" d="M2824.39 2395.84L2925.95 2340.06L2929.77 2350.84L2825.37 2408.17L2702.91 2374.48L2629.82 2433.57L2558.81 2377.74L2509.27 2420.5L2414.36 2379.38L2347.55 2405.3L2344.74 2394.06L2414.53 2366.98L2507.83 2407.4L2558.57 2363.62L2629.75 2419.58L2701.08 2361.92L2824.39 2395.84Z" fill="white"/>
</g>
<g filter="url(#filter8_dddddd_187_347)">
<path fill-rule="evenodd" clip-rule="evenodd" d="M2406.97 2362L2420.18 2365.94L2383.7 2451.97L2420.81 2591.19L2383.8 2695.47L2421 2780.85L2383.83 2874.38L2420.88 2961.75L2383.23 3094L2369.6 3091.27L2406.27 2962.4L2369 2874.51L2406.15 2781.03L2369.03 2695.85L2406.33 2590.77L2369.13 2451.23L2406.97 2362Z" fill="#60BBE5" fill-opacity="0.4"/>
<path fill-rule="evenodd" clip-rule="evenodd" d="M2406.97 2362L2420.18 2365.94L2383.7 2451.97L2420.81 2591.19L2383.8 2695.47L2421 2780.85L2383.83 2874.38L2420.88 2961.75L2383.23 3094L2369.6 3091.27L2406.27 2962.4L2369 2874.51L2406.15 2781.03L2369.03 2695.85L2406.33 2590.77L2369.13 2451.23L2406.97 2362Z" fill="white"/>
</g>
<g filter="url(#filter9_dddddd_187_347)">
<path fill-rule="evenodd" clip-rule="evenodd" d="M2406.56 2507.81L2343 2380.6L2355.76 2376L2421.09 2506.76L2378.96 2658.78L2447 2750.58L2379.86 2838.23L2429.16 2900.51L2378.85 3018.11L2407.99 3101.65L2394.71 3105L2364.26 3017.74L2413.73 2902.11L2363.24 2838.34L2430.54 2750.48L2364.14 2660.88L2406.56 2507.81Z" fill="white"/>
</g>
<g filter="url(#filter10_dddddd_187_347)">
<path fill-rule="evenodd" clip-rule="evenodd" d="M2877.19 2343.65C2857.15 2373.56 2834.44 2407.47 2809 2442.21C2844.07 2409.62 2872.6 2384.8 2894.67 2366.77C2899.56 2380.9 2902.5 2390.52 2902.46 2395.58C2909.8 2385.65 2917.57 2374.96 2925.76 2363.69C2946.93 2334.56 2970.92 2301.54 2997.67 2267.8C2961.04 2299.32 2931.36 2323.18 2908.54 2340.39C2902.87 2325.91 2899.41 2316.06 2899.25 2310.89C2892.3 2321.09 2884.94 2332.07 2877.19 2343.65Z" fill="#60BBE5" fill-opacity="0.4"/>
<path fill-rule="evenodd" clip-rule="evenodd" d="M2877.19 2343.65C2857.15 2373.56 2834.44 2407.47 2809 2442.21C2844.07 2409.62 2872.6 2384.8 2894.67 2366.77C2899.56 2380.9 2902.5 2390.52 2902.46 2395.58C2909.8 2385.65 2917.57 2374.96 2925.76 2363.69C2946.93 2334.56 2970.92 2301.54 2997.67 2267.8C2961.04 2299.32 2931.36 2323.18 2908.54 2340.39C2902.87 2325.91 2899.41 2316.06 2899.25 2310.89C2892.3 2321.09 2884.94 2332.07 2877.19 2343.65Z" fill="white"/>
</g>
<defs>
<filter id="filter0_f_187_347" x="2401.73" y="2399.78" width="207.465" height="81.7921" filterUnits="userSpaceOnUse" color-interpolation-filters="sRGB">
<feFlood flood-opacity="0" result="BackgroundImageFix"/>
<feBlend mode="normal" in="SourceGraphic" in2="BackgroundImageFix" result="shape"/>
<feGaussianBlur stdDeviation="3" result="effect1_foregroundBlur_187_347"/>
</filter>
<filter id="filter1_f_187_347" x="2684.23" y="2990.78" width="207.465" height="81.792" filterUnits="userSpaceOnUse" color-interpolation-filters="sRGB">
<feFlood flood-opacity="0" result="BackgroundImageFix"/>
<feBlend mode="normal" in="SourceGraphic" in2="BackgroundImageFix" result="shape"/>
<feGaussianBlur stdDeviation="3" result="effect1_foregroundBlur_187_347"/>
</filter>
<filter id="filter2_dddddd_187_347" x="536.567" y="20.5671" width="4756.87" height="5436.87" filterUnits="userSpaceOnUse" color-interpolation-filters="sRGB">
<feFlood flood-opacity="0" result="BackgroundImageFix"/>
<feColorMatrix in="SourceAlpha" type="matrix" values="0 0 0 0 0 0 0 0 0 0 0 0 0 0 0 0 0 0 127 0" result="hardAlpha"/>
<feOffset/>
<feGaussianBlur stdDeviation="28.0052"/>
<feColorMatrix type="matrix" values="0 0 0 0 0.141176 0 0 0 0 0.784314 0 0 0 0 1 0 0 0 1 0"/>
<feBlend mode="normal" in2="BackgroundImageFix" result="effect1_dropShadow_187_347"/>
<feColorMatrix in="SourceAlpha" type="matrix" values="0 0 0 0 0 0 0 0 0 0 0 0 0 0 0 0 0 0 127 0" result="hardAlpha"/>
<feOffset/>
<feGaussianBlur stdDeviation="56.0103"/>
<feColorMatrix type="matrix" values="0 0 0 0 0.141176 0 0 0 0 0.784314 0 0 0 0 1 0 0 0 1 0"/>
<feBlend mode="normal" in2="effect1_dropShadow_187_347" result="effect2_dropShadow_187_347"/>
<feColorMatrix in="SourceAlpha" type="matrix" values="0 0 0 0 0 0 0 0 0 0 0 0 0 0 0 0 0 0 127 0" result="hardAlpha"/>
<feOffset/>
<feGaussianBlur stdDeviation="196.036"/>
<feColorMatrix type="matrix" values="0 0 0 0 0.141176 0 0 0 0 0.784314 0 0 0 0 1 0 0 0 1 0"/>
<feBlend mode="normal" in2="effect2_dropShadow_187_347" result="effect3_dropShadow_187_347"/>
<feColorMatrix in="SourceAlpha" type="matrix" values="0 0 0 0 0 0 0 0 0 0 0 0 0 0 0 0 0 0 127 0" result="hardAlpha"/>
<feOffset/>
<feGaussianBlur stdDeviation="392.072"/>
<feColorMatrix type="matrix" values="0 0 0 0 0.141176 0 0 0 0 0.784314 0 0 0 0 1 0 0 0 1 0"/>
<feBlend mode="normal" in2="effect3_dropShadow_187_347" result="effect4_dropShadow_187_347"/>
<feColorMatrix in="SourceAlpha" type="matrix" values="0 0 0 0 0 0 0 0 0 0 0 0 0 0 0 0 0 0 127 0" result="hardAlpha"/>
<feOffset/>
<feGaussianBlur stdDeviation="672.124"/>
<feColorMatrix type="matrix" values="0 0 0 0 0.141176 0 0 0 0 0.784314 0 0 0 0 1 0 0 0 1 0"/>
<feBlend mode="normal" in2="effect4_dropShadow_187_347" result="effect5_dropShadow_187_347"/>
<feColorMatrix in="SourceAlpha" type="matrix" values="0 0 0 0 0 0 0 0 0 0 0 0 0 0 0 0 0 0 127 0" result="hardAlpha"/>
<feOffset/>
<feGaussianBlur stdDeviation="1176.22"/>
<feColorMatrix type="matrix" values="0 0 0 0 0.141176 0 0 0 0 0.784314 0 0 0 0 1 0 0 0 1 0"/>
<feBlend mode="normal" in2="effect5_dropShadow_187_347" result="effect6_dropShadow_187_347"/>
<feBlend mode="normal" in="SourceGraphic" in2="effect6_dropShadow_187_347" result="shape"/>
</filter>
<filter id="filter3_dddddd_187_347" x="523.649" y="46.6489" width="4782.7" height="5407.7" filterUnits="userSpaceOnUse" color-interpolation-filters="sRGB">
<feFlood flood-opacity="0" result="BackgroundImageFix"/>
<feColorMatrix in="SourceAlpha" type="matrix" values="0 0 0 0 0 0 0 0 0 0 0 0 0 0 0 0 0 0 127 0" result="hardAlpha"/>
<feOffset/>
<feGaussianBlur stdDeviation="27.8494"/>
<feColorMatrix type="matrix" values="0 0 0 0 0.101961 0 0 0 0 0.776471 0 0 0 0 1 0 0 0 1 0"/>
<feBlend mode="normal" in2="BackgroundImageFix" result="effect1_dropShadow_187_347"/>
<feColorMatrix in="SourceAlpha" type="matrix" values="0 0 0 0 0 0 0 0 0 0 0 0 0 0 0 0 0 0 127 0" result="hardAlpha"/>
<feOffset/>
<feGaussianBlur stdDeviation="55.6988"/>
<feColorMatrix type="matrix" values="0 0 0 0 0.101961 0 0 0 0 0.776471 0 0 0 0 1 0 0 0 1 0"/>
<feBlend mode="normal" in2="effect1_dropShadow_187_347" result="effect2_dropShadow_187_347"/>
<feColorMatrix in="SourceAlpha" type="matrix" values="0 0 0 0 0 0 0 0 0 0 0 0 0 0 0 0 0 0 127 0" result="hardAlpha"/>
<feOffset/>
<feGaussianBlur stdDeviation="194.946"/>
<feColorMatrix type="matrix" values="0 0 0 0 0.101961 0 0 0 0 0.776471 0 0 0 0 1 0 0 0 1 0"/>
<feBlend mode="normal" in2="effect2_dropShadow_187_347" result="effect3_dropShadow_187_347"/>
<feColorMatrix in="SourceAlpha" type="matrix" values="0 0 0 0 0 0 0 0 0 0 0 0 0 0 0 0 0 0 127 0" result="hardAlpha"/>
<feOffset/>
<feGaussianBlur stdDeviation="389.892"/>
<feColorMatrix type="matrix" values="0 0 0 0 0.101961 0 0 0 0 0.776471 0 0 0 0 1 0 0 0 1 0"/>
<feBlend mode="normal" in2="effect3_dropShadow_187_347" result="effect4_dropShadow_187_347"/>
<feColorMatrix in="SourceAlpha" type="matrix" values="0 0 0 0 0 0 0 0 0 0 0 0 0 0 0 0 0 0 127 0" result="hardAlpha"/>
<feOffset/>
<feGaussianBlur stdDeviation="668.386"/>
<feColorMatrix type="matrix" values="0 0 0 0 0.101961 0 0 0 0 0.776471 0 0 0 0 1 0 0 0 1 0"/>
<feBlend mode="normal" in2="effect4_dropShadow_187_347" result="effect5_dropShadow_187_347"/>
<feColorMatrix in="SourceAlpha" type="matrix" values="0 0 0 0 0 0 0 0 0 0 0 0 0 0 0 0 0 0 127 0" result="hardAlpha"/>
<feOffset/>
<feGaussianBlur stdDeviation="1169.68"/>
<feColorMatrix type="matrix" values="0 0 0 0 0.101961 0 0 0 0 0.776471 0 0 0 0 1 0 0 0 1 0"/>
<feBlend mode="normal" in2="effect5_dropShadow_187_347" result="effect6_dropShadow_187_347"/>
<feBlend mode="normal" in="SourceGraphic" in2="effect6_dropShadow_187_347" result="shape"/>
</filter>
<filter id="filter4_dddddd_187_347" x="0.468506" y="707.583" width="5293.75" height="4755.33" filterUnits="userSpaceOnUse" color-interpolation-filters="sRGB">
<feFlood flood-opacity="0" result="BackgroundImageFix"/>
<feColorMatrix in="SourceAlpha" type="matrix" values="0 0 0 0 0 0 0 0 0 0 0 0 0 0 0 0 0 0 127 0" result="hardAlpha"/>
<feOffset/>
<feGaussianBlur stdDeviation="28.0052"/>
<feColorMatrix type="matrix" values="0 0 0 0 0.141176 0 0 0 0 0.784314 0 0 0 0 1 0 0 0 1 0"/>
<feBlend mode="normal" in2="BackgroundImageFix" result="effect1_dropShadow_187_347"/>
<feColorMatrix in="SourceAlpha" type="matrix" values="0 0 0 0 0 0 0 0 0 0 0 0 0 0 0 0 0 0 127 0" result="hardAlpha"/>
<feOffset/>
<feGaussianBlur stdDeviation="56.0103"/>
<feColorMatrix type="matrix" values="0 0 0 0 0.141176 0 0 0 0 0.784314 0 0 0 0 1 0 0 0 1 0"/>
<feBlend mode="normal" in2="effect1_dropShadow_187_347" result="effect2_dropShadow_187_347"/>
<feColorMatrix in="SourceAlpha" type="matrix" values="0 0 0 0 0 0 0 0 0 0 0 0 0 0 0 0 0 0 127 0" result="hardAlpha"/>
<feOffset/>
<feGaussianBlur stdDeviation="196.036"/>
<feColorMatrix type="matrix" values="0 0 0 0 0.141176 0 0 0 0 0.784314 0 0 0 0 1 0 0 0 1 0"/>
<feBlend mode="normal" in2="effect2_dropShadow_187_347" result="effect3_dropShadow_187_347"/>
<feColorMatrix in="SourceAlpha" type="matrix" values="0 0 0 0 0 0 0 0 0 0 0 0 0 0 0 0 0 0 127 0" result="hardAlpha"/>
<feOffset/>
<feGaussianBlur stdDeviation="392.072"/>
<feColorMatrix type="matrix" values="0 0 0 0 0.141176 0 0 0 0 0.784314 0 0 0 0 1 0 0 0 1 0"/>
<feBlend mode="normal" in2="effect3_dropShadow_187_347" result="effect4_dropShadow_187_347"/>
<feColorMatrix in="SourceAlpha" type="matrix" values="0 0 0 0 0 0 0 0 0 0 0 0 0 0 0 0 0 0 127 0" result="hardAlpha"/>
<feOffset/>
<feGaussianBlur stdDeviation="672.124"/>
<feColorMatrix type="matrix" values="0 0 0 0 0.141176 0 0 0 0 0.784314 0 0 0 0 1 0 0 0 1 0"/>
<feBlend mode="normal" in2="effect4_dropShadow_187_347" result="effect5_dropShadow_187_347"/>
<feColorMatrix in="SourceAlpha" type="matrix" values="0 0 0 0 0 0 0 0 0 0 0 0 0 0 0 0 0 0 127 0" result="hardAlpha"/>
<feOffset/>
<feGaussianBlur stdDeviation="1176.22"/>
<feColorMatrix type="matrix" values="0 0 0 0 0.141176 0 0 0 0 0.784314 0 0 0 0 1 0 0 0 1 0"/>
<feBlend mode="normal" in2="effect5_dropShadow_187_347" result="effect6_dropShadow_187_347"/>
<feBlend mode="normal" in="SourceGraphic" in2="effect6_dropShadow_187_347" result="shape"/>
</filter>
<filter id="filter5_dddddd_187_347" x="25.3799" y="701.146" width="5263.73" height="4772.14" filterUnits="userSpaceOnUse" color-interpolation-filters="sRGB">
<feFlood flood-opacity="0" result="BackgroundImageFix"/>
<feColorMatrix in="SourceAlpha" type="matrix" values="0 0 0 0 0 0 0 0 0 0 0 0 0 0 0 0 0 0 127 0" result="hardAlpha"/>
<feOffset/>
<feGaussianBlur stdDeviation="27.8494"/>
<feColorMatrix type="matrix" values="0 0 0 0 0.101961 0 0 0 0 0.776471 0 0 0 0 1 0 0 0 1 0"/>
<feBlend mode="normal" in2="BackgroundImageFix" result="effect1_dropShadow_187_347"/>
<feColorMatrix in="SourceAlpha" type="matrix" values="0 0 0 0 0 0 0 0 0 0 0 0 0 0 0 0 0 0 127 0" result="hardAlpha"/>
<feOffset/>
<feGaussianBlur stdDeviation="55.6988"/>
<feColorMatrix type="matrix" values="0 0 0 0 0.101961 0 0 0 0 0.776471 0 0 0 0 1 0 0 0 1 0"/>
<feBlend mode="normal" in2="effect1_dropShadow_187_347" result="effect2_dropShadow_187_347"/>
<feColorMatrix in="SourceAlpha" type="matrix" values="0 0 0 0 0 0 0 0 0 0 0 0 0 0 0 0 0 0 127 0" result="hardAlpha"/>
<feOffset/>
<feGaussianBlur stdDeviation="194.946"/>
<feColorMatrix type="matrix" values="0 0 0 0 0.101961 0 0 0 0 0.776471 0 0 0 0 1 0 0 0 1 0"/>
<feBlend mode="normal" in2="effect2_dropShadow_187_347" result="effect3_dropShadow_187_347"/>
<feColorMatrix in="SourceAlpha" type="matrix" values="0 0 0 0 0 0 0 0 0 0 0 0 0 0 0 0 0 0 127 0" result="hardAlpha"/>
<feOffset/>
<feGaussianBlur stdDeviation="389.892"/>
<feColorMatrix type="matrix" values="0 0 0 0 0.101961 0 0 0 0 0.776471 0 0 0 0 1 0 0 0 1 0"/>
<feBlend mode="normal" in2="effect3_dropShadow_187_347" result="effect4_dropShadow_187_347"/>
<feColorMatrix in="SourceAlpha" type="matrix" values="0 0 0 0 0 0 0 0 0 0 0 0 0 0 0 0 0 0 127 0" result="hardAlpha"/>
<feOffset/>
<feGaussianBlur stdDeviation="668.386"/>
<feColorMatrix type="matrix" values="0 0 0 0 0.101961 0 0 0 0 0.776471 0 0 0 0 1 0 0 0 1 0"/>
<feBlend mode="normal" in2="effect4_dropShadow_187_347" result="effect5_dropShadow_187_347"/>
<feColorMatrix in="SourceAlpha" type="matrix" values="0 0 0 0 0 0 0 0 0 0 0 0 0 0 0 0 0 0 127 0" result="hardAlpha"/>
<feOffset/>
<feGaussianBlur stdDeviation="1169.68"/>
<feColorMatrix type="matrix" values="0 0 0 0 0.101961 0 0 0 0 0.776471 0 0 0 0 1 0 0 0 1 0"/>
<feBlend mode="normal" in2="effect5_dropShadow_187_347" result="effect6_dropShadow_187_347"/>
<feBlend mode="normal" in="SourceGraphic" in2="effect6_dropShadow_187_347" result="shape"/>
</filter>
<filter id="filter6_dddddd_187_347" x="0.280518" y="11.0835" width="5293.75" height="4755.33" filterUnits="userSpaceOnUse" color-interpolation-filters="sRGB">
<feFlood flood-opacity="0" result="BackgroundImageFix"/>
<feColorMatrix in="SourceAlpha" type="matrix" values="0 0 0 0 0 0 0 0 0 0 0 0 0 0 0 0 0 0 127 0" result="hardAlpha"/>
<feOffset/>
<feGaussianBlur stdDeviation="28.0052"/>
<feColorMatrix type="matrix" values="0 0 0 0 0.141176 0 0 0 0 0.784314 0 0 0 0 1 0 0 0 1 0"/>
<feBlend mode="normal" in2="BackgroundImageFix" result="effect1_dropShadow_187_347"/>
<feColorMatrix in="SourceAlpha" type="matrix" values="0 0 0 0 0 0 0 0 0 0 0 0 0 0 0 0 0 0 127 0" result="hardAlpha"/>
<feOffset/>
<feGaussianBlur stdDeviation="56.0103"/>
<feColorMatrix type="matrix" values="0 0 0 0 0.141176 0 0 0 0 0.784314 0 0 0 0 1 0 0 0 1 0"/>
<feBlend mode="normal" in2="effect1_dropShadow_187_347" result="effect2_dropShadow_187_347"/>
<feColorMatrix in="SourceAlpha" type="matrix" values="0 0 0 0 0 0 0 0 0 0 0 0 0 0 0 0 0 0 127 0" result="hardAlpha"/>
<feOffset/>
<feGaussianBlur stdDeviation="196.036"/>
<feColorMatrix type="matrix" values="0 0 0 0 0.141176 0 0 0 0 0.784314 0 0 0 0 1 0 0 0 1 0"/>
<feBlend mode="normal" in2="effect2_dropShadow_187_347" result="effect3_dropShadow_187_347"/>
<feColorMatrix in="SourceAlpha" type="matrix" values="0 0 0 0 0 0 0 0 0 0 0 0 0 0 0 0 0 0 127 0" result="hardAlpha"/>
<feOffset/>
<feGaussianBlur stdDeviation="392.072"/>
<feColorMatrix type="matrix" values="0 0 0 0 0.141176 0 0 0 0 0.784314 0 0 0 0 1 0 0 0 1 0"/>
<feBlend mode="normal" in2="effect3_dropShadow_187_347" result="effect4_dropShadow_187_347"/>
<feColorMatrix in="SourceAlpha" type="matrix" values="0 0 0 0 0 0 0 0 0 0 0 0 0 0 0 0 0 0 127 0" result="hardAlpha"/>
<feOffset/>
<feGaussianBlur stdDeviation="672.124"/>
<feColorMatrix type="matrix" values="0 0 0 0 0.141176 0 0 0 0 0.784314 0 0 0 0 1 0 0 0 1 0"/>
<feBlend mode="normal" in2="effect4_dropShadow_187_347" result="effect5_dropShadow_187_347"/>
<feColorMatrix in="SourceAlpha" type="matrix" values="0 0 0 0 0 0 0 0 0 0 0 0 0 0 0 0 0 0 127 0" result="hardAlpha"/>
<feOffset/>
<feGaussianBlur stdDeviation="1176.22"/>
<feColorMatrix type="matrix" values="0 0 0 0 0.141176 0 0 0 0 0.784314 0 0 0 0 1 0 0 0 1 0"/>
<feBlend mode="normal" in2="effect5_dropShadow_187_347" result="effect6_dropShadow_187_347"/>
<feBlend mode="normal" in="SourceGraphic" in2="effect6_dropShadow_187_347" result="shape"/>
</filter>
<filter id="filter7_dddddd_187_347" x="5.38672" y="0.712891" width="5263.73" height="4772.21" filterUnits="userSpaceOnUse" color-interpolation-filters="sRGB">
<feFlood flood-opacity="0" result="BackgroundImageFix"/>
<feColorMatrix in="SourceAlpha" type="matrix" values="0 0 0 0 0 0 0 0 0 0 0 0 0 0 0 0 0 0 127 0" result="hardAlpha"/>
<feOffset/>
<feGaussianBlur stdDeviation="27.8494"/>
<feColorMatrix type="matrix" values="0 0 0 0 0.101961 0 0 0 0 0.776471 0 0 0 0 1 0 0 0 1 0"/>
<feBlend mode="normal" in2="BackgroundImageFix" result="effect1_dropShadow_187_347"/>
<feColorMatrix in="SourceAlpha" type="matrix" values="0 0 0 0 0 0 0 0 0 0 0 0 0 0 0 0 0 0 127 0" result="hardAlpha"/>
<feOffset/>
<feGaussianBlur stdDeviation="55.6988"/>
<feColorMatrix type="matrix" values="0 0 0 0 0.101961 0 0 0 0 0.776471 0 0 0 0 1 0 0 0 1 0"/>
<feBlend mode="normal" in2="effect1_dropShadow_187_347" result="effect2_dropShadow_187_347"/>
<feColorMatrix in="SourceAlpha" type="matrix" values="0 0 0 0 0 0 0 0 0 0 0 0 0 0 0 0 0 0 127 0" result="hardAlpha"/>
<feOffset/>
<feGaussianBlur stdDeviation="194.946"/>
<feColorMatrix type="matrix" values="0 0 0 0 0.101961 0 0 0 0 0.776471 0 0 0 0 1 0 0 0 1 0"/>
<feBlend mode="normal" in2="effect2_dropShadow_187_347" result="effect3_dropShadow_187_347"/>
<feColorMatrix in="SourceAlpha" type="matrix" values="0 0 0 0 0 0 0 0 0 0 0 0 0 0 0 0 0 0 127 0" result="hardAlpha"/>
<feOffset/>
<feGaussianBlur stdDeviation="389.892"/>
<feColorMatrix type="matrix" values="0 0 0 0 0.101961 0 0 0 0 0.776471 0 0 0 0 1 0 0 0 1 0"/>
<feBlend mode="normal" in2="effect3_dropShadow_187_347" result="effect4_dropShadow_187_347"/>
<feColorMatrix in="SourceAlpha" type="matrix" values="0 0 0 0 0 0 0 0 0 0 0 0 0 0 0 0 0 0 127 0" result="hardAlpha"/>
<feOffset/>
<feGaussianBlur stdDeviation="668.386"/>
<feColorMatrix type="matrix" values="0 0 0 0 0.101961 0 0 0 0 0.776471 0 0 0 0 1 0 0 0 1 0"/>
<feBlend mode="normal" in2="effect4_dropShadow_187_347" result="effect5_dropShadow_187_347"/>
<feColorMatrix in="SourceAlpha" type="matrix" values="0 0 0 0 0 0 0 0 0 0 0 0 0 0 0 0 0 0 127 0" result="hardAlpha"/>
<feOffset/>
<feGaussianBlur stdDeviation="1169.68"/>
<feColorMatrix type="matrix" values="0 0 0 0 0.101961 0 0 0 0 0.776471 0 0 0 0 1 0 0 0 1 0"/>
<feBlend mode="normal" in2="effect5_dropShadow_187_347" result="effect6_dropShadow_187_347"/>
<feBlend mode="normal" in="SourceGraphic" in2="effect6_dropShadow_187_347" result="shape"/>
</filter>
<filter id="filter8_dddddd_187_347" x="16.5671" y="9.56714" width="4756.87" height="5436.87" filterUnits="userSpaceOnUse" color-interpolation-filters="sRGB">
<feFlood flood-opacity="0" result="BackgroundImageFix"/>
<feColorMatrix in="SourceAlpha" type="matrix" values="0 0 0 0 0 0 0 0 0 0 0 0 0 0 0 0 0 0 127 0" result="hardAlpha"/>
<feOffset/>
<feGaussianBlur stdDeviation="28.0052"/>
<feColorMatrix type="matrix" values="0 0 0 0 0.141176 0 0 0 0 0.784314 0 0 0 0 1 0 0 0 1 0"/>
<feBlend mode="normal" in2="BackgroundImageFix" result="effect1_dropShadow_187_347"/>
<feColorMatrix in="SourceAlpha" type="matrix" values="0 0 0 0 0 0 0 0 0 0 0 0 0 0 0 0 0 0 127 0" result="hardAlpha"/>
<feOffset/>
<feGaussianBlur stdDeviation="56.0103"/>
<feColorMatrix type="matrix" values="0 0 0 0 0.141176 0 0 0 0 0.784314 0 0 0 0 1 0 0 0 1 0"/>
<feBlend mode="normal" in2="effect1_dropShadow_187_347" result="effect2_dropShadow_187_347"/>
<feColorMatrix in="SourceAlpha" type="matrix" values="0 0 0 0 0 0 0 0 0 0 0 0 0 0 0 0 0 0 127 0" result="hardAlpha"/>
<feOffset/>
<feGaussianBlur stdDeviation="196.036"/>
<feColorMatrix type="matrix" values="0 0 0 0 0.141176 0 0 0 0 0.784314 0 0 0 0 1 0 0 0 1 0"/>
<feBlend mode="normal" in2="effect2_dropShadow_187_347" result="effect3_dropShadow_187_347"/>
<feColorMatrix in="SourceAlpha" type="matrix" values="0 0 0 0 0 0 0 0 0 0 0 0 0 0 0 0 0 0 127 0" result="hardAlpha"/>
<feOffset/>
<feGaussianBlur stdDeviation="392.072"/>
<feColorMatrix type="matrix" values="0 0 0 0 0.141176 0 0 0 0 0.784314 0 0 0 0 1 0 0 0 1 0"/>
<feBlend mode="normal" in2="effect3_dropShadow_187_347" result="effect4_dropShadow_187_347"/>
<feColorMatrix in="SourceAlpha" type="matrix" values="0 0 0 0 0 0 0 0 0 0 0 0 0 0 0 0 0 0 127 0" result="hardAlpha"/>
<feOffset/>
<feGaussianBlur stdDeviation="672.124"/>
<feColorMatrix type="matrix" values="0 0 0 0 0.141176 0 0 0 0 0.784314 0 0 0 0 1 0 0 0 1 0"/>
<feBlend mode="normal" in2="effect4_dropShadow_187_347" result="effect5_dropShadow_187_347"/>
<feColorMatrix in="SourceAlpha" type="matrix" values="0 0 0 0 0 0 0 0 0 0 0 0 0 0 0 0 0 0 127 0" result="hardAlpha"/>
<feOffset/>
<feGaussianBlur stdDeviation="1176.22"/>
<feColorMatrix type="matrix" values="0 0 0 0 0.141176 0 0 0 0 0.784314 0 0 0 0 1 0 0 0 1 0"/>
<feBlend mode="normal" in2="effect5_dropShadow_187_347" result="effect6_dropShadow_187_347"/>
<feBlend mode="normal" in="SourceGraphic" in2="effect6_dropShadow_187_347" result="shape"/>
</filter>
<filter id="filter9_dddddd_187_347" x="3.64893" y="36.6489" width="4782.7" height="5407.7" filterUnits="userSpaceOnUse" color-interpolation-filters="sRGB">
<feFlood flood-opacity="0" result="BackgroundImageFix"/>
<feColorMatrix in="SourceAlpha" type="matrix" values="0 0 0 0 0 0 0 0 0 0 0 0 0 0 0 0 0 0 127 0" result="hardAlpha"/>
<feOffset/>
<feGaussianBlur stdDeviation="27.8494"/>
<feColorMatrix type="matrix" values="0 0 0 0 0.101961 0 0 0 0 0.776471 0 0 0 0 1 0 0 0 1 0"/>
<feBlend mode="normal" in2="BackgroundImageFix" result="effect1_dropShadow_187_347"/>
<feColorMatrix in="SourceAlpha" type="matrix" values="0 0 0 0 0 0 0 0 0 0 0 0 0 0 0 0 0 0 127 0" result="hardAlpha"/>
<feOffset/>
<feGaussianBlur stdDeviation="55.6988"/>
<feColorMatrix type="matrix" values="0 0 0 0 0.101961 0 0 0 0 0.776471 0 0 0 0 1 0 0 0 1 0"/>
<feBlend mode="normal" in2="effect1_dropShadow_187_347" result="effect2_dropShadow_187_347"/>
<feColorMatrix in="SourceAlpha" type="matrix" values="0 0 0 0 0 0 0 0 0 0 0 0 0 0 0 0 0 0 127 0" result="hardAlpha"/>
<feOffset/>
<feGaussianBlur stdDeviation="194.946"/>
<feColorMatrix type="matrix" values="0 0 0 0 0.101961 0 0 0 0 0.776471 0 0 0 0 1 0 0 0 1 0"/>
<feBlend mode="normal" in2="effect2_dropShadow_187_347" result="effect3_dropShadow_187_347"/>
<feColorMatrix in="SourceAlpha" type="matrix" values="0 0 0 0 0 0 0 0 0 0 0 0 0 0 0 0 0 0 127 0" result="hardAlpha"/>
<feOffset/>
<feGaussianBlur stdDeviation="389.892"/>
<feColorMatrix type="matrix" values="0 0 0 0 0.101961 0 0 0 0 0.776471 0 0 0 0 1 0 0 0 1 0"/>
<feBlend mode="normal" in2="effect3_dropShadow_187_347" result="effect4_dropShadow_187_347"/>
<feColorMatrix in="SourceAlpha" type="matrix" values="0 0 0 0 0 0 0 0 0 0 0 0 0 0 0 0 0 0 127 0" result="hardAlpha"/>
<feOffset/>
<feGaussianBlur stdDeviation="668.386"/>
<feColorMatrix type="matrix" values="0 0 0 0 0.101961 0 0 0 0 0.776471 0 0 0 0 1 0 0 0 1 0"/>
<feBlend mode="normal" in2="effect4_dropShadow_187_347" result="effect5_dropShadow_187_347"/>
<feColorMatrix in="SourceAlpha" type="matrix" values="0 0 0 0 0 0 0 0 0 0 0 0 0 0 0 0 0 0 127 0" result="hardAlpha"/>
<feOffset/>
<feGaussianBlur stdDeviation="1169.68"/>
<feColorMatrix type="matrix" values="0 0 0 0 0.101961 0 0 0 0 0.776471 0 0 0 0 1 0 0 0 1 0"/>
<feBlend mode="normal" in2="effect5_dropShadow_187_347" result="effect6_dropShadow_187_347"/>
<feBlend mode="normal" in="SourceGraphic" in2="effect6_dropShadow_187_347" result="shape"/>
</filter>
<filter id="filter10_dddddd_187_347" x="2105.85" y="1564.65" width="1594.98" height="1580.71" filterUnits="userSpaceOnUse" color-interpolation-filters="sRGB">
<feFlood flood-opacity="0" result="BackgroundImageFix"/>
<feColorMatrix in="SourceAlpha" type="matrix" values="0 0 0 0 0 0 0 0 0 0 0 0 0 0 0 0 0 0 127 0" result="hardAlpha"/>
<feOffset/>
<feGaussianBlur stdDeviation="8.37089"/>
<feColorMatrix type="matrix" values="0 0 0 0 0.239216 0 0 0 0 0.733333 0 0 0 0 0.960784 0 0 0 1 0"/>
<feBlend mode="normal" in2="BackgroundImageFix" result="effect1_dropShadow_187_347"/>
<feColorMatrix in="SourceAlpha" type="matrix" values="0 0 0 0 0 0 0 0 0 0 0 0 0 0 0 0 0 0 127 0" result="hardAlpha"/>
<feOffset/>
<feGaussianBlur stdDeviation="16.7418"/>
<feColorMatrix type="matrix" values="0 0 0 0 0.239216 0 0 0 0 0.733333 0 0 0 0 0.960784 0 0 0 1 0"/>
<feBlend mode="normal" in2="effect1_dropShadow_187_347" result="effect2_dropShadow_187_347"/>
<feColorMatrix in="SourceAlpha" type="matrix" values="0 0 0 0 0 0 0 0 0 0 0 0 0 0 0 0 0 0 127 0" result="hardAlpha"/>
<feOffset/>
<feGaussianBlur stdDeviation="58.5962"/>
<feColorMatrix type="matrix" values="0 0 0 0 0.239216 0 0 0 0 0.733333 0 0 0 0 0.960784 0 0 0 1 0"/>
<feBlend mode="normal" in2="effect2_dropShadow_187_347" result="effect3_dropShadow_187_347"/>
<feColorMatrix in="SourceAlpha" type="matrix" values="0 0 0 0 0 0 0 0 0 0 0 0 0 0 0 0 0 0 127 0" result="hardAlpha"/>
<feOffset/>
<feGaussianBlur stdDeviation="117.192"/>
<feColorMatrix type="matrix" values="0 0 0 0 0.239216 0 0 0 0 0.733333 0 0 0 0 0.960784 0 0 0 1 0"/>
<feBlend mode="normal" in2="effect3_dropShadow_187_347" result="effect4_dropShadow_187_347"/>
<feColorMatrix in="SourceAlpha" type="matrix" values="0 0 0 0 0 0 0 0 0 0 0 0 0 0 0 0 0 0 127 0" result="hardAlpha"/>
<feOffset/>
<feGaussianBlur stdDeviation="200.901"/>
<feColorMatrix type="matrix" values="0 0 0 0 0.239216 0 0 0 0 0.733333 0 0 0 0 0.960784 0 0 0 1 0"/>
<feBlend mode="normal" in2="effect4_dropShadow_187_347" result="effect5_dropShadow_187_347"/>
<feColorMatrix in="SourceAlpha" type="matrix" values="0 0 0 0 0 0 0 0 0 0 0 0 0 0 0 0 0 0 127 0" result="hardAlpha"/>
<feOffset/>
<feGaussianBlur stdDeviation="351.577"/>
<feColorMatrix type="matrix" values="0 0 0 0 0.239216 0 0 0 0 0.733333 0 0 0 0 0.960784 0 0 0 1 0"/>
<feBlend mode="normal" in2="effect5_dropShadow_187_347" result="effect6_dropShadow_187_347"/>
<feBlend mode="normal" in="SourceGraphic" in2="effect6_dropShadow_187_347" result="shape"/>
</filter>
</defs>
</svg>
