<svg width="621" height="855" viewBox="0 0 621 855" fill="none" xmlns="http://www.w3.org/2000/svg">
<rect x="25" y="137" width="496" height="666" fill="#D9D9D9"/>
<rect x="25" y="138" width="496" height="667" fill="#218ABE"/>
<g filter="url(#filter0_f_373_246)">
<path d="M30.7303 175.728C30.7303 172.656 30.9863 169.648 31.4983 166.704C32.0103 163.696 32.5223 161.488 33.0343 160.08L33.8023 157.872L32.1703 150.576C32.6183 149.232 33.7063 147.92 35.4343 146.64C37.3543 145.296 40.3303 144.624 44.3623 144.624C48.3943 144.624 51.2103 145.296 52.8103 146.64C54.4743 147.984 55.3063 149.936 55.3063 152.496C55.3063 153.84 54.7623 157.2 53.6743 162.576C52.5863 167.952 52.0423 173.648 52.0423 179.664C52.0423 185.68 52.6503 190.384 53.8663 193.776C55.1463 197.168 56.9063 198.864 59.1463 198.864C61.4503 198.864 63.2743 197.232 64.6183 193.968C66.0263 190.704 66.7303 185.904 66.7303 179.568C66.7303 173.232 66.2503 167.312 65.2903 161.808C64.3943 156.24 63.4663 152.24 62.5063 149.808L61.1623 146.16C61.1623 145.968 61.3863 145.584 61.8343 145.008C62.3463 144.432 62.8903 143.952 63.4663 143.568C65.0023 142.672 67.0183 142.224 69.5143 142.224C80.0743 142.224 85.3542 151.696 85.3542 170.64C85.3542 178.832 84.4263 185.84 82.5703 191.664C80.7143 197.424 77.5783 202.032 73.1623 205.488C68.8103 208.88 63.2423 210.576 56.4583 210.576C47.5623 210.576 41.0343 207.44 36.8743 201.168C32.7783 194.896 30.7303 186.416 30.7303 175.728ZM132.062 147.216C132.382 150.224 132.542 152.24 132.542 153.264C132.542 154.288 132.51 155.344 132.446 156.432C132.446 157.52 132.222 158.64 131.774 159.792C131.326 160.88 130.718 161.936 129.95 162.96C128.478 164.944 125.822 165.936 121.982 165.936C119.358 165.936 117.214 165.328 115.55 164.112C113.95 162.832 112.414 161.008 110.942 158.64C109.598 163.312 108.926 168.784 108.926 175.056C108.926 182.736 110.814 188.368 114.59 191.952C116.51 193.808 118.974 194.736 121.982 194.736C124.99 194.736 128.414 193.968 132.254 192.432C132.702 194.288 132.734 196.208 132.35 198.192C131.966 200.112 131.358 201.744 130.526 203.088C129.694 204.432 128.638 205.584 127.358 206.544C124.286 208.848 119.838 210 114.014 210C105.054 210 98.398 206.992 94.046 200.976C92.446 198.736 91.134 195.792 90.11 192.144C89.086 188.432 88.574 184.208 88.574 179.472C88.574 171.216 90.174 164.464 93.374 159.216C96.638 153.968 100.606 150.192 105.278 147.888C105.918 146.48 106.974 145.136 108.446 143.856C109.982 142.576 112.03 141.936 114.59 141.936C117.214 141.936 120.19 142.832 123.518 144.624C126.846 146.352 129.694 147.216 132.062 147.216ZM167.591 189.648C170.087 190.608 171.335 193.136 171.335 197.232C171.335 200.112 170.503 202.96 168.839 205.776C167.175 208.592 164.935 210 162.119 210L145.895 209.232C143.399 209.232 141.191 209.488 139.271 210C136.967 206.8 135.815 203.504 135.815 200.112C135.815 196.72 137.223 194.8 140.039 194.352L137.255 145.104C141.927 142.224 145.991 140.784 149.447 140.784C152.903 140.784 155.559 141.776 157.415 143.76C159.335 145.68 160.295 149.168 160.295 154.224C160.295 166.064 159.815 178.608 158.855 191.856L167.591 189.648ZM225.043 206.928C224.595 207.376 223.507 208.016 221.779 208.848C220.115 209.616 218.067 210 215.635 210C210.323 210 206.963 206.032 205.555 198.096C203.315 198.352 200.627 198.48 197.491 198.48C194.419 198.48 192.467 198.384 191.635 198.192C190.803 202.48 189.619 205.52 188.083 207.312C186.611 209.104 184.371 210 181.363 210C179.891 210 178.483 209.744 177.139 209.232C175.795 208.72 174.835 208.208 174.259 207.696L173.299 206.928C175.795 176.848 179.315 158.672 183.859 152.4C185.523 150.224 187.059 148.88 188.467 148.368C189.875 147.792 191.187 147.504 192.403 147.504C193.619 147.504 194.387 147.536 194.707 147.6C195.027 147.6 195.251 147.6 195.379 147.6L194.995 145.68C195.187 145.424 195.443 145.104 195.763 144.72C196.147 144.272 197.107 143.696 198.643 142.992C200.179 142.288 201.971 141.936 204.019 141.936C208.243 141.936 211.571 143.536 214.003 146.736C216.499 149.872 218.707 156.016 220.627 165.168C222.611 174.256 224.467 187.76 226.195 205.68C225.939 206 225.555 206.416 225.043 206.928ZM193.267 187.152C195.315 186.896 197.459 186.768 199.699 186.768C201.939 186.768 203.219 186.8 203.539 186.864C201.235 175.216 199.219 165.36 197.491 157.296C195.891 166.128 194.483 176.08 193.267 187.152Z" fill="#C1E6F8" fill-opacity="0.75"/>
</g>
<g filter="url(#filter1_f_373_246)">
<path d="M313.23 766.728C313.23 763.656 313.486 760.648 313.998 757.704C314.51 754.696 315.022 752.488 315.534 751.08L316.302 748.872L314.67 741.576C315.118 740.232 316.206 738.92 317.934 737.64C319.854 736.296 322.83 735.624 326.862 735.624C330.894 735.624 333.71 736.296 335.31 737.64C336.974 738.984 337.806 740.936 337.806 743.496C337.806 744.84 337.262 748.2 336.174 753.576C335.086 758.952 334.542 764.648 334.542 770.664C334.542 776.68 335.15 781.384 336.366 784.776C337.646 788.168 339.406 789.864 341.646 789.864C343.95 789.864 345.774 788.232 347.118 784.968C348.526 781.704 349.23 776.904 349.23 770.568C349.23 764.232 348.75 758.312 347.79 752.808C346.894 747.24 345.966 743.24 345.006 740.808L343.662 737.16C343.662 736.968 343.886 736.584 344.334 736.008C344.846 735.432 345.39 734.952 345.966 734.568C347.502 733.672 349.518 733.224 352.014 733.224C362.574 733.224 367.854 742.696 367.854 761.64C367.854 769.832 366.926 776.84 365.07 782.664C363.214 788.424 360.078 793.032 355.662 796.488C351.31 799.88 345.742 801.576 338.958 801.576C330.062 801.576 323.534 798.44 319.374 792.168C315.278 785.896 313.23 777.416 313.23 766.728ZM414.562 738.216C414.882 741.224 415.042 743.24 415.042 744.264C415.042 745.288 415.01 746.344 414.946 747.432C414.946 748.52 414.722 749.64 414.274 750.792C413.826 751.88 413.218 752.936 412.45 753.96C410.978 755.944 408.322 756.936 404.482 756.936C401.858 756.936 399.714 756.328 398.05 755.112C396.45 753.832 394.914 752.008 393.442 749.64C392.098 754.312 391.426 759.784 391.426 766.056C391.426 773.736 393.314 779.368 397.09 782.952C399.01 784.808 401.474 785.736 404.482 785.736C407.49 785.736 410.914 784.968 414.754 783.432C415.202 785.288 415.234 787.208 414.85 789.192C414.466 791.112 413.858 792.744 413.026 794.088C412.194 795.432 411.138 796.584 409.858 797.544C406.786 799.848 402.338 801 396.514 801C387.554 801 380.898 797.992 376.546 791.976C374.946 789.736 373.634 786.792 372.61 783.144C371.586 779.432 371.074 775.208 371.074 770.472C371.074 762.216 372.674 755.464 375.874 750.216C379.138 744.968 383.106 741.192 387.778 738.888C388.418 737.48 389.474 736.136 390.946 734.856C392.482 733.576 394.53 732.936 397.09 732.936C399.714 732.936 402.69 733.832 406.018 735.624C409.346 737.352 412.194 738.216 414.562 738.216ZM450.091 780.648C452.587 781.608 453.835 784.136 453.835 788.232C453.835 791.112 453.003 793.96 451.339 796.776C449.675 799.592 447.435 801 444.619 801L428.395 800.232C425.899 800.232 423.691 800.488 421.771 801C419.467 797.8 418.315 794.504 418.315 791.112C418.315 787.72 419.723 785.8 422.539 785.352L419.755 736.104C424.427 733.224 428.491 731.784 431.947 731.784C435.403 731.784 438.059 732.776 439.915 734.76C441.835 736.68 442.795 740.168 442.795 745.224C442.795 757.064 442.315 769.608 441.355 782.856L450.091 780.648ZM507.543 797.928C507.095 798.376 506.007 799.016 504.279 799.848C502.615 800.616 500.567 801 498.135 801C492.823 801 489.463 797.032 488.055 789.096C485.815 789.352 483.127 789.48 479.991 789.48C476.919 789.48 474.967 789.384 474.135 789.192C473.303 793.48 472.119 796.52 470.583 798.312C469.111 800.104 466.871 801 463.863 801C462.391 801 460.983 800.744 459.639 800.232C458.295 799.72 457.335 799.208 456.759 798.696L455.799 797.928C458.295 767.848 461.815 749.672 466.359 743.4C468.023 741.224 469.559 739.88 470.967 739.368C472.375 738.792 473.687 738.504 474.903 738.504C476.119 738.504 476.887 738.536 477.207 738.6C477.527 738.6 477.751 738.6 477.879 738.6L477.495 736.68C477.687 736.424 477.943 736.104 478.263 735.72C478.647 735.272 479.607 734.696 481.143 733.992C482.679 733.288 484.471 732.936 486.519 732.936C490.743 732.936 494.071 734.536 496.503 737.736C498.999 740.872 501.207 747.016 503.127 756.168C505.111 765.256 506.967 778.76 508.695 796.68C508.439 797 508.055 797.416 507.543 797.928ZM475.767 778.152C477.815 777.896 479.959 777.768 482.199 777.768C484.439 777.768 485.719 777.8 486.039 777.864C483.735 766.216 481.719 756.36 479.991 748.296C478.391 757.128 476.983 767.08 475.767 778.152Z" fill="#C1E6F8" fill-opacity="0.75"/>
</g>
<rect x="41.5" y="158.5" width="462" height="626" stroke="#FFD100" stroke-width="5"/>
<mask id="path-6-inside-1_373_246" fill="white">
<path d="M63 192C63 184.268 69.268 178 77 178H469C476.732 178 483 184.268 483 192V572C483 579.732 476.732 586 469 586H77C69.268 586 63 579.732 63 572V192Z"/>
</mask>
<path d="M61 192C61 183.163 68.1634 176 77 176H469C477.837 176 485 183.163 485 192H481C481 185.373 475.627 180 469 180H77C70.3726 180 65 185.373 65 192H61ZM483 586H63H483ZM77 586C68.1634 586 61 578.837 61 570V192C61 183.163 68.1634 176 77 176V180C70.3726 180 65 185.373 65 192V572C65 579.732 70.3726 586 77 586ZM469 176C477.837 176 485 183.163 485 192V570C485 578.837 477.837 586 469 586C475.627 586 481 579.732 481 572V192C481 185.373 475.627 180 469 180V176Z" fill="#C1E6F8" mask="url(#path-6-inside-1_373_246)"/>
<path d="M433.767 271H453.777C454.797 271 455.727 271.25 456.567 271.75C457.427 272.23 458.107 272.9 458.607 273.76C459.107 274.6 459.357 275.53 459.357 276.55C459.357 277.53 459.117 278.46 458.637 279.34C458.157 280.22 457.517 280.93 456.717 281.47C457.517 282.03 458.157 282.76 458.637 283.66C459.117 284.54 459.357 285.47 459.357 286.45C459.357 287.45 459.107 288.38 458.607 289.24C458.107 290.08 457.427 290.75 456.567 291.25C455.727 291.75 454.797 292 453.777 292H433.767V271ZM444.747 280.63C445.467 280.63 446.127 280.46 446.727 280.12C447.347 279.76 447.827 279.28 448.167 278.68C448.527 278.06 448.707 277.4 448.707 276.7C448.707 275.98 448.527 275.32 448.167 274.72C447.827 274.1 447.347 273.61 446.727 273.25C446.127 272.89 445.467 272.71 444.747 272.71H444.297V280.6C444.397 280.62 444.547 280.63 444.747 280.63ZM444.747 290.26C445.467 290.26 446.127 290.09 446.727 289.75C447.347 289.39 447.827 288.91 448.167 288.31C448.527 287.69 448.707 287.02 448.707 286.3C448.707 285.6 448.527 284.95 448.167 284.35C447.827 283.73 447.347 283.25 446.727 282.91C446.127 282.55 445.467 282.37 444.747 282.37H444.297V290.23C444.397 290.25 444.547 290.26 444.747 290.26ZM433.732 310H453.802C454.782 310 455.682 310.25 456.502 310.75C457.342 311.23 458.002 311.89 458.482 312.73C458.982 313.55 459.232 314.45 459.232 315.43C459.232 316.73 458.832 317.91 458.032 318.97C457.232 320.03 456.222 320.71 455.002 321.01C456.082 321.31 456.962 321.88 457.642 322.72C458.342 323.56 458.692 324.51 458.692 325.57V331H448.642V324.49C448.642 323.85 448.522 323.35 448.282 322.99C448.002 322.57 447.682 322.26 447.322 322.06C446.922 321.84 446.472 321.68 445.972 321.58C445.452 321.48 444.962 321.42 444.502 321.4L443.692 321.37V331H433.732V310ZM444.742 319.63C445.462 319.63 446.122 319.46 446.722 319.12C447.342 318.76 447.822 318.28 448.162 317.68C448.522 317.06 448.702 316.4 448.702 315.7C448.702 314.98 448.522 314.32 448.162 313.72C447.822 313.1 447.342 312.61 446.722 312.25C446.122 311.89 445.462 311.71 444.742 311.71H443.692V319.66L444.742 319.63ZM446.507 370.15C442.887 370.15 440.297 369.62 438.737 368.56C437.197 367.5 436.427 365.88 436.427 363.7V349H447.887V363.7C447.887 365.12 448.197 366.16 448.817 366.82C449.457 367.46 450.297 367.78 451.337 367.78C453.657 367.78 454.817 366.42 454.817 363.7V349H456.587V363.7C456.587 365.4 456.227 366.72 455.507 367.66C454.787 368.58 453.707 369.23 452.267 369.61C450.827 369.97 448.907 370.15 446.507 370.15ZM441.598 388H451.378V409H441.598V388ZM436.808 427H445.628L454.388 437.5V427H456.188V448H449.138L438.638 434.02V448H436.808V427ZM450.949 473.53C453.329 474.17 455.109 475.02 456.289 476.08C457.469 477.12 458.059 478.48 458.059 480.16C458.059 481.5 457.639 482.7 456.799 483.76C455.959 484.82 454.719 485.65 453.079 486.25C451.459 486.85 449.489 487.15 447.169 487.15C444.429 487.15 442.009 486.8 439.909 486.1C437.829 485.38 436.199 484.51 435.019 483.49L436.009 482.14C437.049 482.96 438.359 483.66 439.939 484.24C441.519 484.82 443.219 485.11 445.039 485.11C446.219 485.11 447.109 484.94 447.709 484.6C448.329 484.26 448.639 483.78 448.639 483.16C448.639 482.08 447.569 481.24 445.429 480.64L441.529 479.5C439.409 478.86 437.769 477.97 436.609 476.83C435.469 475.69 434.899 474.34 434.899 472.78C434.899 471.48 435.309 470.3 436.129 469.24C436.949 468.18 438.139 467.35 439.699 466.75C441.279 466.13 443.169 465.82 445.369 465.82C447.469 465.82 449.399 466.06 451.159 466.54C452.939 467.02 454.389 467.6 455.509 468.28L454.519 469.66C453.579 469.12 452.449 468.66 451.129 468.28C449.829 467.9 448.459 467.71 447.019 467.71C445.759 467.71 444.789 467.91 444.109 468.31C443.449 468.69 443.119 469.22 443.119 469.9C443.119 470.42 443.369 470.88 443.869 471.28C444.369 471.66 445.319 472.04 446.719 472.42L450.949 473.53Z" fill="#98D6F2" fill-opacity="0.52"/>
<rect x="25" y="611" width="372" height="88" fill="#FAF5E9" fill-opacity="0.63"/>
<path d="M72.192 645.892L57 644.272H72.552L72.192 645.892ZM72.984 642.4L57.828 640.78H73.38L72.984 642.4ZM73.812 638.944L58.656 637.324H74.172L73.812 638.944ZM74.604 635.488L59.484 633.868H75L74.604 635.488ZM75.432 632.032L60.312 630.412H75.792L75.432 632.032ZM76.224 628.576L61.14 626.956H76.62L76.224 628.576ZM77.052 625.12L61.968 623.5H77.412L77.052 625.12ZM80.4 646H73.272L78.528 623.5H87.456L88.104 634.948H88.356L93.036 623.5H101.964L99.3 646H92.136L93.648 635.092H93.396L88.896 646H83.676L82.92 635.092H82.74L80.4 646ZM122.968 638.26H117.604L117.172 640.708H123.832L122.896 646H110.188L113.5 626.956H126.172L124.48 632.356H118.612L118.18 634.804H123.58L122.968 638.26ZM109 645.892L93.7357 644.272H109.288L109 645.892ZM110.224 638.944L94.9597 637.324H110.512L110.224 638.944ZM110.836 635.488L95.5717 633.868H111.124L110.836 635.488ZM111.448 632.032L96.1837 630.412H111.736L111.448 632.032ZM112.06 628.576L96.7957 626.956H112.312L112.06 628.576ZM109.612 642.4L94.3477 640.78H109.9L109.612 642.4ZM144.973 646L141.265 638.872H141.121L139.861 646H133.813L137.125 626.956H142.021L145.765 634.048H145.981L147.205 626.956H153.217L149.869 646H144.973ZM132.625 645.892L117.361 644.272H132.913L132.625 645.892ZM133.849 638.944L118.585 637.324H134.137L133.849 638.944ZM134.461 635.488L119.197 633.868H134.749L134.461 635.488ZM135.073 632.032L119.809 630.412H135.361L135.073 632.032ZM135.685 628.576L120.421 626.956H135.937L135.685 628.576ZM133.237 642.4L117.973 640.78H133.525L133.237 642.4ZM161.085 628.324V628.576L149.421 626.956H161.265C161.145 627.196 161.085 627.652 161.085 628.324ZM160.581 635.452L149.313 633.868H161.193L160.581 635.452ZM162.417 630.808L161.949 631.996L150.573 630.412H161.805C161.925 630.556 162.129 630.688 162.417 630.808ZM162.273 627.352C162.561 625.912 163.005 624.916 163.605 624.364C164.205 623.788 165.165 623.5 166.485 623.5C167.805 623.5 168.693 623.68 169.149 624.04C169.629 624.4 169.869 625 169.869 625.84C169.869 627.496 169.197 629.368 167.853 631.456L164.685 636.352L161.805 635.308L163.821 630.124C162.717 629.932 162.165 629.332 162.165 628.324C162.165 628.036 162.201 627.712 162.273 627.352ZM162.057 644.272H177.609L177.105 645.892L162.057 644.272ZM180.345 630.412C180.201 630.796 180.045 631.336 179.877 632.032L164.829 630.412H180.345ZM179.445 635.2V635.488L164.181 633.868H179.517C179.469 634.444 179.445 634.888 179.445 635.2ZM178.257 642.364L163.245 640.78H178.761L178.257 642.364ZM182.829 626.956C182.181 627.436 181.689 627.94 181.353 628.468L167.313 626.956H182.829ZM179.769 637.324C179.985 637.948 180.333 638.488 180.813 638.944L165.585 637.324H179.769ZM194.133 632.608C192.501 632.224 191.109 632.032 189.957 632.032C188.805 632.032 187.953 632.068 187.401 632.14L187.221 633.184L189.021 633.4C192.885 633.904 194.817 635.5 194.817 638.188C194.817 638.5 194.745 639.088 194.601 639.952C194.457 640.792 194.217 641.608 193.881 642.4C193.545 643.192 193.113 643.84 192.585 644.344C192.081 644.824 191.577 645.22 191.073 645.532C190.593 645.82 189.969 646.024 189.201 646.144C188.001 646.336 186.393 646.432 184.377 646.432C182.385 646.432 180.369 646.156 178.329 645.604L180.093 640.276C181.965 640.804 183.597 641.068 184.989 641.068C186.405 641.068 187.401 641.032 187.977 640.96L188.157 639.808L185.889 639.556C183.945 639.34 182.565 638.884 181.749 638.188C180.933 637.492 180.525 636.496 180.525 635.2C180.525 634.72 180.585 634.12 180.705 633.4C181.185 630.832 182.049 629.056 183.297 628.072C184.545 627.088 186.441 626.596 188.985 626.596C191.553 626.596 193.845 626.848 195.861 627.352L194.133 632.608ZM88.392 661.5C90.12 661.5 91.368 661.8 92.136 662.4C92.928 663 93.324 663.924 93.324 665.172C93.324 666.996 92.916 668.496 92.1 669.672C91.308 670.848 90.336 671.58 89.184 671.868L89.148 672.084C91.308 672.492 92.388 673.92 92.388 676.368C92.388 678.528 91.8 680.34 90.624 681.804C89.448 683.268 87.792 684 85.656 684H73.344L77.304 661.5H88.392ZM84.432 675.036H81.732L81.084 678.708H83.748C84.348 678.708 84.804 678.468 85.116 677.988C85.428 677.508 85.584 676.896 85.584 676.152C85.584 675.408 85.2 675.036 84.432 675.036ZM85.44 666.432H83.28L82.668 669.78H84.792C85.896 669.78 86.448 669 86.448 667.44C86.448 666.768 86.112 666.432 85.44 666.432ZM72.264 683.892L57 682.272H72.552L72.264 683.892ZM73.488 676.944L58.224 675.324H73.776L73.488 676.944ZM74.1 673.488L58.836 671.868H74.388L74.1 673.488ZM74.712 670.032L59.448 668.412H75L74.712 670.032ZM75.324 666.576L60.06 664.956H75.576L75.324 666.576ZM72.876 680.4L57.612 678.78H73.164L72.876 680.4ZM75.9 663.12L60.672 661.5H76.188L75.9 663.12ZM112.815 684L112.671 681.084H108.135L107.019 684H100.791L108.783 664.956H117.711L119.115 684H112.815ZM112.671 675.936V670.464H112.167L110.043 675.936H112.671ZM99.6389 683.856L84.8789 682.272H100.323L99.6389 683.856ZM101.115 680.364L86.3549 678.78H101.799L101.115 680.364ZM102.591 676.908L87.8309 675.324H103.239L102.591 676.908ZM104.031 673.452L89.3069 671.868H104.715L104.031 673.452ZM105.507 669.996L90.7829 668.412H106.155L105.507 669.996ZM106.947 666.504L92.2589 664.956H107.595L106.947 666.504ZM112.592 682.272H128.144L127.64 683.892L112.592 682.272ZM130.88 668.412C130.736 668.796 130.58 669.336 130.412 670.032L115.364 668.412H130.88ZM129.98 673.2V673.488L114.716 671.868H130.052C130.004 672.444 129.98 672.888 129.98 673.2ZM128.792 680.364L113.78 678.78H129.296L128.792 680.364ZM133.364 664.956C132.716 665.436 132.224 665.94 131.888 666.468L117.848 664.956H133.364ZM130.304 675.324C130.52 675.948 130.868 676.488 131.348 676.944L116.12 675.324H130.304ZM144.668 670.608C143.036 670.224 141.644 670.032 140.492 670.032C139.34 670.032 138.488 670.068 137.936 670.14L137.756 671.184L139.556 671.4C143.42 671.904 145.352 673.5 145.352 676.188C145.352 676.5 145.28 677.088 145.136 677.952C144.992 678.792 144.752 679.608 144.416 680.4C144.08 681.192 143.648 681.84 143.12 682.344C142.616 682.824 142.112 683.22 141.608 683.532C141.128 683.82 140.504 684.024 139.736 684.144C138.536 684.336 136.928 684.432 134.912 684.432C132.92 684.432 130.904 684.156 128.864 683.604L130.628 678.276C132.5 678.804 134.132 679.068 135.524 679.068C136.94 679.068 137.936 679.032 138.512 678.96L138.692 677.808L136.424 677.556C134.48 677.34 133.1 676.884 132.284 676.188C131.468 675.492 131.06 674.496 131.06 673.2C131.06 672.72 131.12 672.12 131.24 671.4C131.72 668.832 132.584 667.056 133.832 666.072C135.08 665.088 136.976 664.596 139.52 664.596C142.088 664.596 144.38 664.848 146.396 665.352L144.668 670.608ZM163.38 684L161.688 677.772H161.472L160.392 684H154.344L157.656 664.956H163.74L162.696 670.788H162.876L166.584 664.956H173.172L167.124 674.28L169.968 684H163.38ZM153.156 683.892L137.892 682.272H153.444L153.156 683.892ZM154.38 676.944L139.116 675.324H154.668L154.38 676.944ZM154.992 673.488L139.728 671.868H155.28L154.992 673.488ZM155.604 670.032L140.34 668.412H155.892L155.604 670.032ZM156.216 666.576L140.952 664.956H156.468L156.216 666.576ZM153.768 680.4L138.504 678.78H154.056L153.768 680.4ZM192.226 676.26H186.862L186.43 678.708H193.09L192.154 684H179.446L182.758 664.956H195.43L193.738 670.356H187.87L187.438 672.804H192.838L192.226 676.26ZM178.258 683.892L162.994 682.272H178.546L178.258 683.892ZM179.482 676.944L164.218 675.324H179.77L179.482 676.944ZM180.094 673.488L164.83 671.868H180.382L180.094 673.488ZM180.706 670.032L165.442 668.412H180.994L180.706 670.032ZM181.318 666.576L166.054 664.956H181.57L181.318 666.576ZM178.87 680.4L163.606 678.78H179.158L178.87 680.4ZM218.299 670.356H214.411L212.035 684H205.699L208.075 670.356H204.079L205.051 664.956H219.271L218.299 670.356ZM204.619 683.892L189.355 682.272H204.907L204.619 683.892ZM205.843 676.944L190.579 675.324H206.131L205.843 676.944ZM206.455 673.488L191.191 671.868H206.743L206.455 673.488ZM202.999 670.032L187.735 668.412H203.287L202.999 670.032ZM203.611 666.576L188.347 664.956H203.863L203.611 666.576ZM205.231 680.4L189.967 678.78H205.519L205.231 680.4ZM238.532 664.956C241.268 664.956 242.636 666.084 242.636 668.34C242.636 669.588 242.336 670.716 241.736 671.724C241.16 672.732 240.452 673.428 239.612 673.812L239.576 674.028C241.16 674.532 241.952 675.624 241.952 677.304C241.952 679.416 241.376 681.06 240.224 682.236C239.096 683.412 237.38 684 235.076 684H225.5L228.812 664.956H238.532ZM235.076 676.62H232.844L232.376 679.284H234.608C235.448 679.284 235.868 678.672 235.868 677.448C235.868 676.896 235.604 676.62 235.076 676.62ZM236.012 669.528H234.068L233.672 671.832H235.652C236.372 671.832 236.732 671.304 236.732 670.248C236.732 669.768 236.492 669.528 236.012 669.528ZM224.348 683.892L209.084 682.272H224.636L224.348 683.892ZM225.572 676.944L210.308 675.324H225.86L225.572 676.944ZM226.184 673.488L210.92 671.868H226.472L226.184 673.488ZM226.796 670.032L211.532 668.412H227.084L226.796 670.032ZM227.408 666.576L212.144 664.956H227.66L227.408 666.576ZM224.96 680.4L209.696 678.78H225.248L224.96 680.4ZM262.791 684L262.647 681.084H258.111L256.995 684H250.767L258.759 664.956H267.687L269.091 684H262.791ZM262.647 675.936V670.464H262.143L260.019 675.936H262.647ZM249.615 683.856L234.855 682.272H250.299L249.615 683.856ZM251.091 680.364L236.331 678.78H251.775L251.091 680.364ZM252.567 676.908L237.807 675.324H253.215L252.567 676.908ZM254.007 673.452L239.283 671.868H254.691L254.007 673.452ZM255.483 669.996L240.759 668.412H256.131L255.483 669.996ZM256.923 666.504L242.235 664.956H257.571L256.923 666.504ZM290.181 684H278.481L281.793 664.956H288.129L285.717 678.708H291.117L290.181 684ZM277.293 683.892L262.029 682.272H277.581L277.293 683.892ZM278.517 676.944L263.253 675.324H278.805L278.517 676.944ZM279.129 673.488L263.865 671.868H279.417L279.129 673.488ZM279.741 670.032L264.477 668.412H280.029L279.741 670.032ZM280.353 666.576L265.089 664.956H280.605L280.353 666.576ZM277.905 680.4L262.641 678.78H278.193L277.905 680.4ZM310.607 684H298.907L302.219 664.956H308.555L306.143 678.708H311.543L310.607 684ZM297.719 683.892L282.454 682.272H298.007L297.719 683.892ZM298.943 676.944L283.678 675.324H299.231L298.943 676.944ZM299.555 673.488L284.29 671.868H299.843L299.555 673.488ZM300.167 670.032L284.902 668.412H300.455L300.167 670.032ZM300.779 666.576L285.514 664.956H301.031L300.779 666.576ZM298.331 680.4L283.066 678.78H298.619L298.331 680.4Z" fill="#023047"/>
<g filter="url(#filter2_dddddd_373_246)">
<path fill-rule="evenodd" clip-rule="evenodd" d="M500.188 78.6464C480.153 108.562 457.444 142.47 432 177.208C467.066 144.625 495.604 119.802 517.67 101.77C522.564 115.898 525.501 125.525 525.462 130.578C532.804 120.652 540.573 109.96 548.764 98.6867C569.928 69.5586 593.917 36.5434 620.671 2.80408C584.043 34.3162 554.365 58.1811 531.54 75.3941C525.873 60.9082 522.412 51.0606 522.254 45.8874C515.297 56.0868 507.943 67.0676 500.188 78.6464Z" fill="#60BBE5" fill-opacity="0.4"/>
<path fill-rule="evenodd" clip-rule="evenodd" d="M500.188 78.6464C480.153 108.562 457.444 142.47 432 177.208C467.066 144.625 495.604 119.802 517.67 101.77C522.564 115.898 525.501 125.525 525.462 130.578C532.804 120.652 540.573 109.96 548.764 98.6867C569.928 69.5586 593.917 36.5434 620.671 2.80408C584.043 34.3162 554.365 58.1811 531.54 75.3941C525.873 60.9082 522.412 51.0606 522.254 45.8874C515.297 56.0868 507.943 67.0676 500.188 78.6464Z" fill="white"/>
</g>
<defs>
<filter id="filter0_f_373_246" x="24.7305" y="134.784" width="207.465" height="81.792" filterUnits="userSpaceOnUse" color-interpolation-filters="sRGB">
<feFlood flood-opacity="0" result="BackgroundImageFix"/>
<feBlend mode="normal" in="SourceGraphic" in2="BackgroundImageFix" result="shape"/>
<feGaussianBlur stdDeviation="3" result="effect1_foregroundBlur_373_246"/>
</filter>
<filter id="filter1_f_373_246" x="307.23" y="725.784" width="207.465" height="81.7921" filterUnits="userSpaceOnUse" color-interpolation-filters="sRGB">
<feFlood flood-opacity="0" result="BackgroundImageFix"/>
<feBlend mode="normal" in="SourceGraphic" in2="BackgroundImageFix" result="shape"/>
<feGaussianBlur stdDeviation="3" result="effect1_foregroundBlur_373_246"/>
</filter>
<filter id="filter2_dddddd_373_246" x="-271.155" y="-700.351" width="1594.98" height="1580.71" filterUnits="userSpaceOnUse" color-interpolation-filters="sRGB">
<feFlood flood-opacity="0" result="BackgroundImageFix"/>
<feColorMatrix in="SourceAlpha" type="matrix" values="0 0 0 0 0 0 0 0 0 0 0 0 0 0 0 0 0 0 127 0" result="hardAlpha"/>
<feOffset/>
<feGaussianBlur stdDeviation="8.37089"/>
<feColorMatrix type="matrix" values="0 0 0 0 0.239216 0 0 0 0 0.733333 0 0 0 0 0.960784 0 0 0 1 0"/>
<feBlend mode="normal" in2="BackgroundImageFix" result="effect1_dropShadow_373_246"/>
<feColorMatrix in="SourceAlpha" type="matrix" values="0 0 0 0 0 0 0 0 0 0 0 0 0 0 0 0 0 0 127 0" result="hardAlpha"/>
<feOffset/>
<feGaussianBlur stdDeviation="16.7418"/>
<feColorMatrix type="matrix" values="0 0 0 0 0.239216 0 0 0 0 0.733333 0 0 0 0 0.960784 0 0 0 1 0"/>
<feBlend mode="normal" in2="effect1_dropShadow_373_246" result="effect2_dropShadow_373_246"/>
<feColorMatrix in="SourceAlpha" type="matrix" values="0 0 0 0 0 0 0 0 0 0 0 0 0 0 0 0 0 0 127 0" result="hardAlpha"/>
<feOffset/>
<feGaussianBlur stdDeviation="58.5962"/>
<feColorMatrix type="matrix" values="0 0 0 0 0.239216 0 0 0 0 0.733333 0 0 0 0 0.960784 0 0 0 1 0"/>
<feBlend mode="normal" in2="effect2_dropShadow_373_246" result="effect3_dropShadow_373_246"/>
<feColorMatrix in="SourceAlpha" type="matrix" values="0 0 0 0 0 0 0 0 0 0 0 0 0 0 0 0 0 0 127 0" result="hardAlpha"/>
<feOffset/>
<feGaussianBlur stdDeviation="117.192"/>
<feColorMatrix type="matrix" values="0 0 0 0 0.239216 0 0 0 0 0.733333 0 0 0 0 0.960784 0 0 0 1 0"/>
<feBlend mode="normal" in2="effect3_dropShadow_373_246" result="effect4_dropShadow_373_246"/>
<feColorMatrix in="SourceAlpha" type="matrix" values="0 0 0 0 0 0 0 0 0 0 0 0 0 0 0 0 0 0 127 0" result="hardAlpha"/>
<feOffset/>
<feGaussianBlur stdDeviation="200.901"/>
<feColorMatrix type="matrix" values="0 0 0 0 0.239216 0 0 0 0 0.733333 0 0 0 0 0.960784 0 0 0 1 0"/>
<feBlend mode="normal" in2="effect4_dropShadow_373_246" result="effect5_dropShadow_373_246"/>
<feColorMatrix in="SourceAlpha" type="matrix" values="0 0 0 0 0 0 0 0 0 0 0 0 0 0 0 0 0 0 127 0" result="hardAlpha"/>
<feOffset/>
<feGaussianBlur stdDeviation="351.577"/>
<feColorMatrix type="matrix" values="0 0 0 0 0.239216 0 0 0 0 0.733333 0 0 0 0 0.960784 0 0 0 1 0"/>
<feBlend mode="normal" in2="effect5_dropShadow_373_246" result="effect6_dropShadow_373_246"/>
<feBlend mode="normal" in="SourceGraphic" in2="effect6_dropShadow_373_246" result="shape"/>
</filter>
</defs>
</svg>
