<svg width="655" height="869" viewBox="0 0 655 869" fill="none" xmlns="http://www.w3.org/2000/svg">
<rect x="59" y="137" width="496" height="666" fill="#D9D9D9"/>
<rect x="59" y="138" width="496" height="667" fill="#218ABE"/>
<g filter="url(#filter0_f_217_297)">
<path d="M64.7303 175.728C64.7303 172.656 64.9863 169.648 65.4983 166.704C66.0103 163.696 66.5223 161.488 67.0343 160.08L67.8023 157.872L66.1703 150.576C66.6183 149.232 67.7063 147.92 69.4343 146.64C71.3543 145.296 74.3303 144.624 78.3623 144.624C82.3943 144.624 85.2103 145.296 86.8103 146.64C88.4743 147.984 89.3063 149.936 89.3063 152.496C89.3063 153.84 88.7623 157.2 87.6743 162.576C86.5863 167.952 86.0423 173.648 86.0423 179.664C86.0423 185.68 86.6503 190.384 87.8663 193.776C89.1463 197.168 90.9063 198.864 93.1463 198.864C95.4503 198.864 97.2743 197.232 98.6183 193.968C100.026 190.704 100.73 185.904 100.73 179.568C100.73 173.232 100.25 167.312 99.2903 161.808C98.3943 156.24 97.4663 152.24 96.5063 149.808L95.1623 146.16C95.1623 145.968 95.3863 145.584 95.8343 145.008C96.3463 144.432 96.8903 143.952 97.4663 143.568C99.0023 142.672 101.018 142.224 103.514 142.224C114.074 142.224 119.354 151.696 119.354 170.64C119.354 178.832 118.426 185.84 116.57 191.664C114.714 197.424 111.578 202.032 107.162 205.488C102.81 208.88 97.2423 210.576 90.4583 210.576C81.5623 210.576 75.0343 207.44 70.8743 201.168C66.7783 194.896 64.7303 186.416 64.7303 175.728ZM166.062 147.216C166.382 150.224 166.542 152.24 166.542 153.264C166.542 154.288 166.51 155.344 166.446 156.432C166.446 157.52 166.222 158.64 165.774 159.792C165.326 160.88 164.718 161.936 163.95 162.96C162.478 164.944 159.822 165.936 155.982 165.936C153.358 165.936 151.214 165.328 149.55 164.112C147.95 162.832 146.414 161.008 144.942 158.64C143.598 163.312 142.926 168.784 142.926 175.056C142.926 182.736 144.814 188.368 148.59 191.952C150.51 193.808 152.974 194.736 155.982 194.736C158.99 194.736 162.414 193.968 166.254 192.432C166.702 194.288 166.734 196.208 166.35 198.192C165.966 200.112 165.358 201.744 164.526 203.088C163.694 204.432 162.638 205.584 161.358 206.544C158.286 208.848 153.838 210 148.014 210C139.054 210 132.398 206.992 128.046 200.976C126.446 198.736 125.134 195.792 124.11 192.144C123.086 188.432 122.574 184.208 122.574 179.472C122.574 171.216 124.174 164.464 127.374 159.216C130.638 153.968 134.606 150.192 139.278 147.888C139.918 146.48 140.974 145.136 142.446 143.856C143.982 142.576 146.03 141.936 148.59 141.936C151.214 141.936 154.19 142.832 157.518 144.624C160.846 146.352 163.694 147.216 166.062 147.216ZM201.591 189.648C204.087 190.608 205.335 193.136 205.335 197.232C205.335 200.112 204.503 202.96 202.839 205.776C201.175 208.592 198.935 210 196.119 210L179.895 209.232C177.399 209.232 175.191 209.488 173.271 210C170.967 206.8 169.815 203.504 169.815 200.112C169.815 196.72 171.223 194.8 174.039 194.352L171.255 145.104C175.927 142.224 179.991 140.784 183.447 140.784C186.903 140.784 189.559 141.776 191.415 143.76C193.335 145.68 194.295 149.168 194.295 154.224C194.295 166.064 193.815 178.608 192.855 191.856L201.591 189.648ZM259.043 206.928C258.595 207.376 257.507 208.016 255.779 208.848C254.115 209.616 252.067 210 249.635 210C244.323 210 240.963 206.032 239.555 198.096C237.315 198.352 234.627 198.48 231.491 198.48C228.419 198.48 226.467 198.384 225.635 198.192C224.803 202.48 223.619 205.52 222.083 207.312C220.611 209.104 218.371 210 215.363 210C213.891 210 212.483 209.744 211.139 209.232C209.795 208.72 208.835 208.208 208.259 207.696L207.299 206.928C209.795 176.848 213.315 158.672 217.859 152.4C219.523 150.224 221.059 148.88 222.467 148.368C223.875 147.792 225.187 147.504 226.403 147.504C227.619 147.504 228.387 147.536 228.707 147.6C229.027 147.6 229.251 147.6 229.379 147.6L228.995 145.68C229.187 145.424 229.443 145.104 229.763 144.72C230.147 144.272 231.107 143.696 232.643 142.992C234.179 142.288 235.971 141.936 238.019 141.936C242.243 141.936 245.571 143.536 248.003 146.736C250.499 149.872 252.707 156.016 254.627 165.168C256.611 174.256 258.467 187.76 260.195 205.68C259.939 206 259.555 206.416 259.043 206.928ZM227.267 187.152C229.315 186.896 231.459 186.768 233.699 186.768C235.939 186.768 237.219 186.8 237.539 186.864C235.235 175.216 233.219 165.36 231.491 157.296C229.891 166.128 228.483 176.08 227.267 187.152Z" fill="#C1E6F8" fill-opacity="0.75"/>
</g>
<g filter="url(#filter1_f_217_297)">
<path d="M347.23 766.728C347.23 763.656 347.486 760.648 347.998 757.704C348.51 754.696 349.022 752.488 349.534 751.08L350.302 748.872L348.67 741.576C349.118 740.232 350.206 738.92 351.934 737.64C353.854 736.296 356.83 735.624 360.862 735.624C364.894 735.624 367.71 736.296 369.31 737.64C370.974 738.984 371.806 740.936 371.806 743.496C371.806 744.84 371.262 748.2 370.174 753.576C369.086 758.952 368.542 764.648 368.542 770.664C368.542 776.68 369.15 781.384 370.366 784.776C371.646 788.168 373.406 789.864 375.646 789.864C377.95 789.864 379.774 788.232 381.118 784.968C382.526 781.704 383.23 776.904 383.23 770.568C383.23 764.232 382.75 758.312 381.79 752.808C380.894 747.24 379.966 743.24 379.006 740.808L377.662 737.16C377.662 736.968 377.886 736.584 378.334 736.008C378.846 735.432 379.39 734.952 379.966 734.568C381.502 733.672 383.518 733.224 386.014 733.224C396.574 733.224 401.854 742.696 401.854 761.64C401.854 769.832 400.926 776.84 399.07 782.664C397.214 788.424 394.078 793.032 389.662 796.488C385.31 799.88 379.742 801.576 372.958 801.576C364.062 801.576 357.534 798.44 353.374 792.168C349.278 785.896 347.23 777.416 347.23 766.728ZM448.562 738.216C448.882 741.224 449.042 743.24 449.042 744.264C449.042 745.288 449.01 746.344 448.946 747.432C448.946 748.52 448.722 749.64 448.274 750.792C447.826 751.88 447.218 752.936 446.45 753.96C444.978 755.944 442.322 756.936 438.482 756.936C435.858 756.936 433.714 756.328 432.05 755.112C430.45 753.832 428.914 752.008 427.442 749.64C426.098 754.312 425.426 759.784 425.426 766.056C425.426 773.736 427.314 779.368 431.09 782.952C433.01 784.808 435.474 785.736 438.482 785.736C441.49 785.736 444.914 784.968 448.754 783.432C449.202 785.288 449.234 787.208 448.85 789.192C448.466 791.112 447.858 792.744 447.026 794.088C446.194 795.432 445.138 796.584 443.858 797.544C440.786 799.848 436.338 801 430.514 801C421.554 801 414.898 797.992 410.546 791.976C408.946 789.736 407.634 786.792 406.61 783.144C405.586 779.432 405.074 775.208 405.074 770.472C405.074 762.216 406.674 755.464 409.874 750.216C413.138 744.968 417.106 741.192 421.778 738.888C422.418 737.48 423.474 736.136 424.946 734.856C426.482 733.576 428.53 732.936 431.09 732.936C433.714 732.936 436.69 733.832 440.018 735.624C443.346 737.352 446.194 738.216 448.562 738.216ZM484.091 780.648C486.587 781.608 487.835 784.136 487.835 788.232C487.835 791.112 487.003 793.96 485.339 796.776C483.675 799.592 481.435 801 478.619 801L462.395 800.232C459.899 800.232 457.691 800.488 455.771 801C453.467 797.8 452.315 794.504 452.315 791.112C452.315 787.72 453.723 785.8 456.539 785.352L453.755 736.104C458.427 733.224 462.491 731.784 465.947 731.784C469.403 731.784 472.059 732.776 473.915 734.76C475.835 736.68 476.795 740.168 476.795 745.224C476.795 757.064 476.315 769.608 475.355 782.856L484.091 780.648ZM541.543 797.928C541.095 798.376 540.007 799.016 538.279 799.848C536.615 800.616 534.567 801 532.135 801C526.823 801 523.463 797.032 522.055 789.096C519.815 789.352 517.127 789.48 513.991 789.48C510.919 789.48 508.967 789.384 508.135 789.192C507.303 793.48 506.119 796.52 504.583 798.312C503.111 800.104 500.871 801 497.863 801C496.391 801 494.983 800.744 493.639 800.232C492.295 799.72 491.335 799.208 490.759 798.696L489.799 797.928C492.295 767.848 495.815 749.672 500.359 743.4C502.023 741.224 503.559 739.88 504.967 739.368C506.375 738.792 507.687 738.504 508.903 738.504C510.119 738.504 510.887 738.536 511.207 738.6C511.527 738.6 511.751 738.6 511.879 738.6L511.495 736.68C511.687 736.424 511.943 736.104 512.263 735.72C512.647 735.272 513.607 734.696 515.143 733.992C516.679 733.288 518.471 732.936 520.519 732.936C524.743 732.936 528.071 734.536 530.503 737.736C532.999 740.872 535.207 747.016 537.127 756.168C539.111 765.256 540.967 778.76 542.695 796.68C542.439 797 542.055 797.416 541.543 797.928ZM509.767 778.152C511.815 777.896 513.959 777.768 516.199 777.768C518.439 777.768 519.719 777.8 520.039 777.864C517.735 766.216 515.719 756.36 513.991 748.296C512.391 757.128 510.983 767.08 509.767 778.152Z" fill="#C1E6F8" fill-opacity="0.75"/>
</g>
<rect x="75.5" y="158.5" width="462" height="626" stroke="#FFD100" stroke-width="5"/>
<mask id="path-6-inside-1_217_297" fill="white">
<path d="M97 192C97 184.268 103.268 178 111 178H503C510.732 178 517 184.268 517 192V572C517 579.732 510.732 586 503 586H111C103.268 586 97 579.732 97 572V192Z"/>
</mask>
<path d="M95 192C95 183.163 102.163 176 111 176H503C511.837 176 519 183.163 519 192H515C515 185.373 509.627 180 503 180H111C104.373 180 99 185.373 99 192H95ZM517 586H97H517ZM111 586C102.163 586 95 578.837 95 570V192C95 183.163 102.163 176 111 176V180C104.373 180 99 185.373 99 192V572C99 579.732 104.373 586 111 586ZM503 176C511.837 176 519 183.163 519 192V570C519 578.837 511.837 586 503 586C509.627 586 515 579.732 515 572V192C515 185.373 509.627 180 503 180V176Z" fill="#C1E6F8" mask="url(#path-6-inside-1_217_297)"/>
<path d="M467.767 271H487.777C488.797 271 489.727 271.25 490.567 271.75C491.427 272.23 492.107 272.9 492.607 273.76C493.107 274.6 493.357 275.53 493.357 276.55C493.357 277.53 493.117 278.46 492.637 279.34C492.157 280.22 491.517 280.93 490.717 281.47C491.517 282.03 492.157 282.76 492.637 283.66C493.117 284.54 493.357 285.47 493.357 286.45C493.357 287.45 493.107 288.38 492.607 289.24C492.107 290.08 491.427 290.75 490.567 291.25C489.727 291.75 488.797 292 487.777 292H467.767V271ZM478.747 280.63C479.467 280.63 480.127 280.46 480.727 280.12C481.347 279.76 481.827 279.28 482.167 278.68C482.527 278.06 482.707 277.4 482.707 276.7C482.707 275.98 482.527 275.32 482.167 274.72C481.827 274.1 481.347 273.61 480.727 273.25C480.127 272.89 479.467 272.71 478.747 272.71H478.297V280.6C478.397 280.62 478.547 280.63 478.747 280.63ZM478.747 290.26C479.467 290.26 480.127 290.09 480.727 289.75C481.347 289.39 481.827 288.91 482.167 288.31C482.527 287.69 482.707 287.02 482.707 286.3C482.707 285.6 482.527 284.95 482.167 284.35C481.827 283.73 481.347 283.25 480.727 282.91C480.127 282.55 479.467 282.37 478.747 282.37H478.297V290.23C478.397 290.25 478.547 290.26 478.747 290.26ZM467.732 310H487.802C488.782 310 489.682 310.25 490.502 310.75C491.342 311.23 492.002 311.89 492.482 312.73C492.982 313.55 493.232 314.45 493.232 315.43C493.232 316.73 492.832 317.91 492.032 318.97C491.232 320.03 490.222 320.71 489.002 321.01C490.082 321.31 490.962 321.88 491.642 322.72C492.342 323.56 492.692 324.51 492.692 325.57V331H482.642V324.49C482.642 323.85 482.522 323.35 482.282 322.99C482.002 322.57 481.682 322.26 481.322 322.06C480.922 321.84 480.472 321.68 479.972 321.58C479.452 321.48 478.962 321.42 478.502 321.4L477.692 321.37V331H467.732V310ZM478.742 319.63C479.462 319.63 480.122 319.46 480.722 319.12C481.342 318.76 481.822 318.28 482.162 317.68C482.522 317.06 482.702 316.4 482.702 315.7C482.702 314.98 482.522 314.32 482.162 313.72C481.822 313.1 481.342 312.61 480.722 312.25C480.122 311.89 479.462 311.71 478.742 311.71H477.692V319.66L478.742 319.63ZM480.507 370.15C476.887 370.15 474.297 369.62 472.737 368.56C471.197 367.5 470.427 365.88 470.427 363.7V349H481.887V363.7C481.887 365.12 482.197 366.16 482.817 366.82C483.457 367.46 484.297 367.78 485.337 367.78C487.657 367.78 488.817 366.42 488.817 363.7V349H490.587V363.7C490.587 365.4 490.227 366.72 489.507 367.66C488.787 368.58 487.707 369.23 486.267 369.61C484.827 369.97 482.907 370.15 480.507 370.15ZM475.598 388H485.378V409H475.598V388ZM470.808 427H479.628L488.388 437.5V427H490.188V448H483.138L472.638 434.02V448H470.808V427ZM484.949 473.53C487.329 474.17 489.109 475.02 490.289 476.08C491.469 477.12 492.059 478.48 492.059 480.16C492.059 481.5 491.639 482.7 490.799 483.76C489.959 484.82 488.719 485.65 487.079 486.25C485.459 486.85 483.489 487.15 481.169 487.15C478.429 487.15 476.009 486.8 473.909 486.1C471.829 485.38 470.199 484.51 469.019 483.49L470.009 482.14C471.049 482.96 472.359 483.66 473.939 484.24C475.519 484.82 477.219 485.11 479.039 485.11C480.219 485.11 481.109 484.94 481.709 484.6C482.329 484.26 482.639 483.78 482.639 483.16C482.639 482.08 481.569 481.24 479.429 480.64L475.529 479.5C473.409 478.86 471.769 477.97 470.609 476.83C469.469 475.69 468.899 474.34 468.899 472.78C468.899 471.48 469.309 470.3 470.129 469.24C470.949 468.18 472.139 467.35 473.699 466.75C475.279 466.13 477.169 465.82 479.369 465.82C481.469 465.82 483.399 466.06 485.159 466.54C486.939 467.02 488.389 467.6 489.509 468.28L488.519 469.66C487.579 469.12 486.449 468.66 485.129 468.28C483.829 467.9 482.459 467.71 481.019 467.71C479.759 467.71 478.789 467.91 478.109 468.31C477.449 468.69 477.119 469.22 477.119 469.9C477.119 470.42 477.369 470.88 477.869 471.28C478.369 471.66 479.319 472.04 480.719 472.42L484.949 473.53Z" fill="#98D6F2" fill-opacity="0.52"/>
<rect x="59" y="611" width="372" height="88" fill="#FAF5E9" fill-opacity="0.63"/>
<path d="M106.192 645.892L91 644.272H106.552L106.192 645.892ZM106.984 642.4L91.828 640.78H107.38L106.984 642.4ZM107.812 638.944L92.656 637.324H108.172L107.812 638.944ZM108.604 635.488L93.484 633.868H109L108.604 635.488ZM109.432 632.032L94.312 630.412H109.792L109.432 632.032ZM110.224 628.576L95.14 626.956H110.62L110.224 628.576ZM111.052 625.12L95.968 623.5H111.412L111.052 625.12ZM114.4 646H107.272L112.528 623.5H121.456L122.104 634.948H122.356L127.036 623.5H135.964L133.3 646H126.136L127.648 635.092H127.396L122.896 646H117.676L116.92 635.092H116.74L114.4 646ZM156.968 638.26H151.604L151.172 640.708H157.832L156.896 646H144.188L147.5 626.956H160.172L158.48 632.356H152.612L152.18 634.804H157.58L156.968 638.26ZM143 645.892L127.736 644.272H143.288L143 645.892ZM144.224 638.944L128.96 637.324H144.512L144.224 638.944ZM144.836 635.488L129.572 633.868H145.124L144.836 635.488ZM145.448 632.032L130.184 630.412H145.736L145.448 632.032ZM146.06 628.576L130.796 626.956H146.312L146.06 628.576ZM143.612 642.4L128.348 640.78H143.9L143.612 642.4ZM178.973 646L175.265 638.872H175.121L173.861 646H167.813L171.125 626.956H176.021L179.765 634.048H179.981L181.205 626.956H187.217L183.869 646H178.973ZM166.625 645.892L151.361 644.272H166.913L166.625 645.892ZM167.849 638.944L152.585 637.324H168.137L167.849 638.944ZM168.461 635.488L153.197 633.868H168.749L168.461 635.488ZM169.073 632.032L153.809 630.412H169.361L169.073 632.032ZM169.685 628.576L154.421 626.956H169.937L169.685 628.576ZM167.237 642.4L151.973 640.78H167.525L167.237 642.4ZM195.085 628.324V628.576L183.421 626.956H195.265C195.145 627.196 195.085 627.652 195.085 628.324ZM194.581 635.452L183.313 633.868H195.193L194.581 635.452ZM196.417 630.808L195.949 631.996L184.573 630.412H195.805C195.925 630.556 196.129 630.688 196.417 630.808ZM196.273 627.352C196.561 625.912 197.005 624.916 197.605 624.364C198.205 623.788 199.165 623.5 200.485 623.5C201.805 623.5 202.693 623.68 203.149 624.04C203.629 624.4 203.869 625 203.869 625.84C203.869 627.496 203.197 629.368 201.853 631.456L198.685 636.352L195.805 635.308L197.821 630.124C196.717 629.932 196.165 629.332 196.165 628.324C196.165 628.036 196.201 627.712 196.273 627.352ZM196.057 644.272H211.609L211.105 645.892L196.057 644.272ZM214.345 630.412C214.201 630.796 214.045 631.336 213.877 632.032L198.829 630.412H214.345ZM213.445 635.2V635.488L198.181 633.868H213.517C213.469 634.444 213.445 634.888 213.445 635.2ZM212.257 642.364L197.245 640.78H212.761L212.257 642.364ZM216.829 626.956C216.181 627.436 215.689 627.94 215.353 628.468L201.313 626.956H216.829ZM213.769 637.324C213.985 637.948 214.333 638.488 214.813 638.944L199.585 637.324H213.769ZM228.133 632.608C226.501 632.224 225.109 632.032 223.957 632.032C222.805 632.032 221.953 632.068 221.401 632.14L221.221 633.184L223.021 633.4C226.885 633.904 228.817 635.5 228.817 638.188C228.817 638.5 228.745 639.088 228.601 639.952C228.457 640.792 228.217 641.608 227.881 642.4C227.545 643.192 227.113 643.84 226.585 644.344C226.081 644.824 225.577 645.22 225.073 645.532C224.593 645.82 223.969 646.024 223.201 646.144C222.001 646.336 220.393 646.432 218.377 646.432C216.385 646.432 214.369 646.156 212.329 645.604L214.093 640.276C215.965 640.804 217.597 641.068 218.989 641.068C220.405 641.068 221.401 641.032 221.977 640.96L222.157 639.808L219.889 639.556C217.945 639.34 216.565 638.884 215.749 638.188C214.933 637.492 214.525 636.496 214.525 635.2C214.525 634.72 214.585 634.12 214.705 633.4C215.185 630.832 216.049 629.056 217.297 628.072C218.545 627.088 220.441 626.596 222.985 626.596C225.553 626.596 227.845 626.848 229.861 627.352L228.133 632.608ZM122.392 661.5C124.12 661.5 125.368 661.8 126.136 662.4C126.928 663 127.324 663.924 127.324 665.172C127.324 666.996 126.916 668.496 126.1 669.672C125.308 670.848 124.336 671.58 123.184 671.868L123.148 672.084C125.308 672.492 126.388 673.92 126.388 676.368C126.388 678.528 125.8 680.34 124.624 681.804C123.448 683.268 121.792 684 119.656 684H107.344L111.304 661.5H122.392ZM118.432 675.036H115.732L115.084 678.708H117.748C118.348 678.708 118.804 678.468 119.116 677.988C119.428 677.508 119.584 676.896 119.584 676.152C119.584 675.408 119.2 675.036 118.432 675.036ZM119.44 666.432H117.28L116.668 669.78H118.792C119.896 669.78 120.448 669 120.448 667.44C120.448 666.768 120.112 666.432 119.44 666.432ZM106.264 683.892L91 682.272H106.552L106.264 683.892ZM107.488 676.944L92.224 675.324H107.776L107.488 676.944ZM108.1 673.488L92.836 671.868H108.388L108.1 673.488ZM108.712 670.032L93.448 668.412H109L108.712 670.032ZM109.324 666.576L94.06 664.956H109.576L109.324 666.576ZM106.876 680.4L91.612 678.78H107.164L106.876 680.4ZM109.9 663.12L94.672 661.5H110.188L109.9 663.12ZM146.815 684L146.671 681.084H142.135L141.019 684H134.791L142.783 664.956H151.711L153.115 684H146.815ZM146.671 675.936V670.464H146.167L144.043 675.936H146.671ZM133.639 683.856L118.879 682.272H134.323L133.639 683.856ZM135.115 680.364L120.355 678.78H135.799L135.115 680.364ZM136.591 676.908L121.831 675.324H137.239L136.591 676.908ZM138.031 673.452L123.307 671.868H138.715L138.031 673.452ZM139.507 669.996L124.783 668.412H140.155L139.507 669.996ZM140.947 666.504L126.259 664.956H141.595L140.947 666.504ZM146.592 682.272H162.144L161.64 683.892L146.592 682.272ZM164.88 668.412C164.736 668.796 164.58 669.336 164.412 670.032L149.364 668.412H164.88ZM163.98 673.2V673.488L148.716 671.868H164.052C164.004 672.444 163.98 672.888 163.98 673.2ZM162.792 680.364L147.78 678.78H163.296L162.792 680.364ZM167.364 664.956C166.716 665.436 166.224 665.94 165.888 666.468L151.848 664.956H167.364ZM164.304 675.324C164.52 675.948 164.868 676.488 165.348 676.944L150.12 675.324H164.304ZM178.668 670.608C177.036 670.224 175.644 670.032 174.492 670.032C173.34 670.032 172.488 670.068 171.936 670.14L171.756 671.184L173.556 671.4C177.42 671.904 179.352 673.5 179.352 676.188C179.352 676.5 179.28 677.088 179.136 677.952C178.992 678.792 178.752 679.608 178.416 680.4C178.08 681.192 177.648 681.84 177.12 682.344C176.616 682.824 176.112 683.22 175.608 683.532C175.128 683.82 174.504 684.024 173.736 684.144C172.536 684.336 170.928 684.432 168.912 684.432C166.92 684.432 164.904 684.156 162.864 683.604L164.628 678.276C166.5 678.804 168.132 679.068 169.524 679.068C170.94 679.068 171.936 679.032 172.512 678.96L172.692 677.808L170.424 677.556C168.48 677.34 167.1 676.884 166.284 676.188C165.468 675.492 165.06 674.496 165.06 673.2C165.06 672.72 165.12 672.12 165.24 671.4C165.72 668.832 166.584 667.056 167.832 666.072C169.08 665.088 170.976 664.596 173.52 664.596C176.088 664.596 178.38 664.848 180.396 665.352L178.668 670.608ZM197.38 684L195.688 677.772H195.472L194.392 684H188.344L191.656 664.956H197.74L196.696 670.788H196.876L200.584 664.956H207.172L201.124 674.28L203.968 684H197.38ZM187.156 683.892L171.892 682.272H187.444L187.156 683.892ZM188.38 676.944L173.116 675.324H188.668L188.38 676.944ZM188.992 673.488L173.728 671.868H189.28L188.992 673.488ZM189.604 670.032L174.34 668.412H189.892L189.604 670.032ZM190.216 666.576L174.952 664.956H190.468L190.216 666.576ZM187.768 680.4L172.504 678.78H188.056L187.768 680.4ZM226.226 676.26H220.862L220.43 678.708H227.09L226.154 684H213.446L216.758 664.956H229.43L227.738 670.356H221.87L221.438 672.804H226.838L226.226 676.26ZM212.258 683.892L196.994 682.272H212.546L212.258 683.892ZM213.482 676.944L198.218 675.324H213.77L213.482 676.944ZM214.094 673.488L198.83 671.868H214.382L214.094 673.488ZM214.706 670.032L199.442 668.412H214.994L214.706 670.032ZM215.318 666.576L200.054 664.956H215.57L215.318 666.576ZM212.87 680.4L197.606 678.78H213.158L212.87 680.4ZM252.299 670.356H248.411L246.035 684H239.699L242.075 670.356H238.079L239.051 664.956H253.271L252.299 670.356ZM238.619 683.892L223.355 682.272H238.907L238.619 683.892ZM239.843 676.944L224.579 675.324H240.131L239.843 676.944ZM240.455 673.488L225.191 671.868H240.743L240.455 673.488ZM236.999 670.032L221.735 668.412H237.287L236.999 670.032ZM237.611 666.576L222.347 664.956H237.863L237.611 666.576ZM239.231 680.4L223.967 678.78H239.519L239.231 680.4ZM272.532 664.956C275.268 664.956 276.636 666.084 276.636 668.34C276.636 669.588 276.336 670.716 275.736 671.724C275.16 672.732 274.452 673.428 273.612 673.812L273.576 674.028C275.16 674.532 275.952 675.624 275.952 677.304C275.952 679.416 275.376 681.06 274.224 682.236C273.096 683.412 271.38 684 269.076 684H259.5L262.812 664.956H272.532ZM269.076 676.62H266.844L266.376 679.284H268.608C269.448 679.284 269.868 678.672 269.868 677.448C269.868 676.896 269.604 676.62 269.076 676.62ZM270.012 669.528H268.068L267.672 671.832H269.652C270.372 671.832 270.732 671.304 270.732 670.248C270.732 669.768 270.492 669.528 270.012 669.528ZM258.348 683.892L243.084 682.272H258.636L258.348 683.892ZM259.572 676.944L244.308 675.324H259.86L259.572 676.944ZM260.184 673.488L244.92 671.868H260.472L260.184 673.488ZM260.796 670.032L245.532 668.412H261.084L260.796 670.032ZM261.408 666.576L246.144 664.956H261.66L261.408 666.576ZM258.96 680.4L243.696 678.78H259.248L258.96 680.4ZM296.791 684L296.647 681.084H292.111L290.995 684H284.767L292.759 664.956H301.687L303.091 684H296.791ZM296.647 675.936V670.464H296.143L294.019 675.936H296.647ZM283.615 683.856L268.855 682.272H284.299L283.615 683.856ZM285.091 680.364L270.331 678.78H285.775L285.091 680.364ZM286.567 676.908L271.807 675.324H287.215L286.567 676.908ZM288.007 673.452L273.283 671.868H288.691L288.007 673.452ZM289.483 669.996L274.759 668.412H290.131L289.483 669.996ZM290.923 666.504L276.235 664.956H291.571L290.923 666.504ZM324.181 684H312.481L315.793 664.956H322.129L319.717 678.708H325.117L324.181 684ZM311.293 683.892L296.029 682.272H311.581L311.293 683.892ZM312.517 676.944L297.253 675.324H312.805L312.517 676.944ZM313.129 673.488L297.865 671.868H313.417L313.129 673.488ZM313.741 670.032L298.477 668.412H314.029L313.741 670.032ZM314.353 666.576L299.089 664.956H314.605L314.353 666.576ZM311.905 680.4L296.641 678.78H312.193L311.905 680.4ZM344.607 684H332.907L336.219 664.956H342.555L340.143 678.708H345.543L344.607 684ZM331.719 683.892L316.454 682.272H332.007L331.719 683.892ZM332.943 676.944L317.678 675.324H333.231L332.943 676.944ZM333.555 673.488L318.29 671.868H333.843L333.555 673.488ZM334.167 670.032L318.902 668.412H334.455L334.167 670.032ZM334.779 666.576L319.514 664.956H335.031L334.779 666.576ZM332.331 680.4L317.066 678.78H332.619L332.331 680.4Z" fill="#023047"/>
<g filter="url(#filter2_dddddd_217_297)">
<path fill-rule="evenodd" clip-rule="evenodd" d="M583.968 108L597.18 111.942L560.699 197.971L597.815 337.191L560.798 441.474L598 526.849L560.83 620.385L597.876 707.746L560.235 840L546.596 837.269L583.272 708.404L546 620.509L583.148 527.027L546.033 441.852L583.334 336.769L546.132 197.226L583.968 108Z" fill="#60BBE5" fill-opacity="0.4"/>
<path fill-rule="evenodd" clip-rule="evenodd" d="M583.968 108L597.18 111.942L560.699 197.971L597.815 337.191L560.798 441.474L598 526.849L560.83 620.385L597.876 707.746L560.235 840L546.596 837.269L583.272 708.404L546 620.509L583.148 527.027L546.033 441.852L583.334 336.769L546.132 197.226L583.968 108Z" fill="white"/>
</g>
<g filter="url(#filter3_dddddd_217_297)">
<path fill-rule="evenodd" clip-rule="evenodd" d="M583.559 252.814L520 125.604L532.757 121L598.09 251.76L555.964 403.779L624 495.584L556.863 583.235L606.164 645.506L555.847 763.112L584.995 846.651L571.707 850L541.26 762.737L590.73 647.111L540.243 583.342L607.543 495.479L541.143 405.882L583.559 252.814Z" fill="white"/>
</g>
<g filter="url(#filter4_dddddd_217_297)">
<path fill-rule="evenodd" clip-rule="evenodd" d="M9.90153 814.934L12.9493 803.785L82.4707 833.24L194.086 800.158L278.292 829.812L346.605 797.397L422.17 827.327L492.082 795.016L598.787 824.811L596.717 836.302L492.746 807.271L422.407 839.78L346.886 809.867L278.733 842.206L193.881 812.324L82.0066 845.484L9.90153 814.934Z" fill="#60BBE5" fill-opacity="0.4"/>
<path fill-rule="evenodd" clip-rule="evenodd" d="M9.90153 814.934L12.9493 803.785L82.4707 833.24L194.086 800.158L278.292 829.812L346.605 797.397L422.17 827.327L492.082 795.016L598.787 824.811L596.717 836.302L492.746 807.271L422.407 839.78L346.886 809.867L278.733 842.206L193.881 812.324L82.0066 845.484L9.90153 814.934Z" fill="white"/>
</g>
<g filter="url(#filter5_dddddd_217_297)">
<path fill-rule="evenodd" clip-rule="evenodd" d="M127.103 813.188L25.5478 868.937L21.7311 858.161L126.121 800.856L248.588 834.564L321.671 775.497L392.684 831.338L442.226 788.595L537.136 829.735L603.945 803.823L606.759 815.067L536.971 842.134L443.66 801.687L392.925 845.458L321.741 789.481L250.415 847.128L127.103 813.188Z" fill="white"/>
</g>
<g filter="url(#filter6_dddddd_217_297)">
<path fill-rule="evenodd" clip-rule="evenodd" d="M598.599 129.066L595.552 140.215L526.03 110.76L414.415 143.842L330.209 114.188L261.896 146.603L186.331 116.673L116.419 148.984L9.71352 119.189L11.7838 107.698L115.755 136.729L186.094 104.22L261.615 134.133L329.768 101.794L414.62 131.675L526.494 98.5164L598.599 129.066Z" fill="#60BBE5" fill-opacity="0.4"/>
<path fill-rule="evenodd" clip-rule="evenodd" d="M598.599 129.066L595.552 140.215L526.03 110.76L414.415 143.842L330.209 114.188L261.896 146.603L186.331 116.673L116.419 148.984L9.71352 119.189L11.7838 107.698L115.755 136.729L186.094 104.22L261.615 134.133L329.768 101.794L414.62 131.675L526.494 98.5164L598.599 129.066Z" fill="white"/>
</g>
<g filter="url(#filter7_dddddd_217_297)">
<path fill-rule="evenodd" clip-rule="evenodd" d="M481.391 130.835L582.953 75.0639L586.768 85.8391L482.372 143.167L359.91 109.485L286.819 168.568L215.815 112.741L166.266 155.496L71.3627 114.376L4.55018 140.302L1.73801 129.059L71.5289 101.977L164.835 142.404L215.575 98.6215L286.751 154.583L358.085 96.921L481.391 130.835Z" fill="white"/>
</g>
<g filter="url(#filter8_dddddd_217_297)">
<path fill-rule="evenodd" clip-rule="evenodd" d="M63.9684 97L77.1798 100.942L40.6987 186.971L77.8146 326.191L40.7975 430.474L78 515.849L40.8302 609.385L77.876 696.746L40.2346 829L26.5956 826.269L63.2722 697.404L26 609.509L63.1482 516.027L26.0327 430.852L63.3336 325.769L26.1315 186.226L63.9684 97Z" fill="#60BBE5" fill-opacity="0.4"/>
<path fill-rule="evenodd" clip-rule="evenodd" d="M63.9684 97L77.1798 100.942L40.6987 186.971L77.8146 326.191L40.7975 430.474L78 515.849L40.8302 609.385L77.876 696.746L40.2346 829L26.5956 826.269L63.2722 697.404L26 609.509L63.1482 516.027L26.0327 430.852L63.3336 325.769L26.1315 186.226L63.9684 97Z" fill="white"/>
</g>
<g filter="url(#filter9_dddddd_217_297)">
<path fill-rule="evenodd" clip-rule="evenodd" d="M63.5592 242.814L0 115.604L12.7568 111L78.0898 241.76L35.964 393.779L104 485.584L36.8633 573.235L86.1642 635.506L35.8468 753.112L64.9948 836.651L51.7074 840L21.26 752.737L70.7301 637.111L20.2435 573.342L87.5428 485.479L21.1428 395.882L63.5592 242.814Z" fill="white"/>
</g>
<g filter="url(#filter10_dddddd_217_297)">
<path fill-rule="evenodd" clip-rule="evenodd" d="M534.188 78.6464C514.153 108.562 491.444 142.47 466 177.208C501.066 144.625 529.604 119.802 551.67 101.77C556.564 115.898 559.501 125.525 559.462 130.578C566.804 120.652 574.573 109.96 582.764 98.6867C603.928 69.5586 627.917 36.5434 654.671 2.80408C618.043 34.3162 588.365 58.1811 565.54 75.3941C559.873 60.9082 556.412 51.0606 556.254 45.8874C549.297 56.0868 541.943 67.0676 534.188 78.6464Z" fill="#60BBE5" fill-opacity="0.4"/>
<path fill-rule="evenodd" clip-rule="evenodd" d="M534.188 78.6464C514.153 108.562 491.444 142.47 466 177.208C501.066 144.625 529.604 119.802 551.67 101.77C556.564 115.898 559.501 125.525 559.462 130.578C566.804 120.652 574.573 109.96 582.764 98.6867C603.928 69.5586 627.917 36.5434 654.671 2.80408C618.043 34.3162 588.365 58.1811 565.54 75.3941C559.873 60.9082 556.412 51.0606 556.254 45.8874C549.297 56.0868 541.943 67.0676 534.188 78.6464Z" fill="white"/>
</g>
<defs>
<filter id="filter0_f_217_297" x="58.7305" y="134.784" width="207.465" height="81.792" filterUnits="userSpaceOnUse" color-interpolation-filters="sRGB">
<feFlood flood-opacity="0" result="BackgroundImageFix"/>
<feBlend mode="normal" in="SourceGraphic" in2="BackgroundImageFix" result="shape"/>
<feGaussianBlur stdDeviation="3" result="effect1_foregroundBlur_217_297"/>
</filter>
<filter id="filter1_f_217_297" x="341.23" y="725.784" width="207.465" height="81.7921" filterUnits="userSpaceOnUse" color-interpolation-filters="sRGB">
<feFlood flood-opacity="0" result="BackgroundImageFix"/>
<feBlend mode="normal" in="SourceGraphic" in2="BackgroundImageFix" result="shape"/>
<feGaussianBlur stdDeviation="3" result="effect1_foregroundBlur_217_297"/>
</filter>
<filter id="filter2_dddddd_217_297" x="-1806.43" y="-2244.43" width="4756.87" height="5436.87" filterUnits="userSpaceOnUse" color-interpolation-filters="sRGB">
<feFlood flood-opacity="0" result="BackgroundImageFix"/>
<feColorMatrix in="SourceAlpha" type="matrix" values="0 0 0 0 0 0 0 0 0 0 0 0 0 0 0 0 0 0 127 0" result="hardAlpha"/>
<feOffset/>
<feGaussianBlur stdDeviation="28.0052"/>
<feColorMatrix type="matrix" values="0 0 0 0 0.141176 0 0 0 0 0.784314 0 0 0 0 1 0 0 0 1 0"/>
<feBlend mode="normal" in2="BackgroundImageFix" result="effect1_dropShadow_217_297"/>
<feColorMatrix in="SourceAlpha" type="matrix" values="0 0 0 0 0 0 0 0 0 0 0 0 0 0 0 0 0 0 127 0" result="hardAlpha"/>
<feOffset/>
<feGaussianBlur stdDeviation="56.0103"/>
<feColorMatrix type="matrix" values="0 0 0 0 0.141176 0 0 0 0 0.784314 0 0 0 0 1 0 0 0 1 0"/>
<feBlend mode="normal" in2="effect1_dropShadow_217_297" result="effect2_dropShadow_217_297"/>
<feColorMatrix in="SourceAlpha" type="matrix" values="0 0 0 0 0 0 0 0 0 0 0 0 0 0 0 0 0 0 127 0" result="hardAlpha"/>
<feOffset/>
<feGaussianBlur stdDeviation="196.036"/>
<feColorMatrix type="matrix" values="0 0 0 0 0.141176 0 0 0 0 0.784314 0 0 0 0 1 0 0 0 1 0"/>
<feBlend mode="normal" in2="effect2_dropShadow_217_297" result="effect3_dropShadow_217_297"/>
<feColorMatrix in="SourceAlpha" type="matrix" values="0 0 0 0 0 0 0 0 0 0 0 0 0 0 0 0 0 0 127 0" result="hardAlpha"/>
<feOffset/>
<feGaussianBlur stdDeviation="392.072"/>
<feColorMatrix type="matrix" values="0 0 0 0 0.141176 0 0 0 0 0.784314 0 0 0 0 1 0 0 0 1 0"/>
<feBlend mode="normal" in2="effect3_dropShadow_217_297" result="effect4_dropShadow_217_297"/>
<feColorMatrix in="SourceAlpha" type="matrix" values="0 0 0 0 0 0 0 0 0 0 0 0 0 0 0 0 0 0 127 0" result="hardAlpha"/>
<feOffset/>
<feGaussianBlur stdDeviation="672.124"/>
<feColorMatrix type="matrix" values="0 0 0 0 0.141176 0 0 0 0 0.784314 0 0 0 0 1 0 0 0 1 0"/>
<feBlend mode="normal" in2="effect4_dropShadow_217_297" result="effect5_dropShadow_217_297"/>
<feColorMatrix in="SourceAlpha" type="matrix" values="0 0 0 0 0 0 0 0 0 0 0 0 0 0 0 0 0 0 127 0" result="hardAlpha"/>
<feOffset/>
<feGaussianBlur stdDeviation="1176.22"/>
<feColorMatrix type="matrix" values="0 0 0 0 0.141176 0 0 0 0 0.784314 0 0 0 0 1 0 0 0 1 0"/>
<feBlend mode="normal" in2="effect5_dropShadow_217_297" result="effect6_dropShadow_217_297"/>
<feBlend mode="normal" in="SourceGraphic" in2="effect6_dropShadow_217_297" result="shape"/>
</filter>
<filter id="filter3_dddddd_217_297" x="-1819.35" y="-2218.35" width="4782.7" height="5407.7" filterUnits="userSpaceOnUse" color-interpolation-filters="sRGB">
<feFlood flood-opacity="0" result="BackgroundImageFix"/>
<feColorMatrix in="SourceAlpha" type="matrix" values="0 0 0 0 0 0 0 0 0 0 0 0 0 0 0 0 0 0 127 0" result="hardAlpha"/>
<feOffset/>
<feGaussianBlur stdDeviation="27.8494"/>
<feColorMatrix type="matrix" values="0 0 0 0 0.101961 0 0 0 0 0.776471 0 0 0 0 1 0 0 0 1 0"/>
<feBlend mode="normal" in2="BackgroundImageFix" result="effect1_dropShadow_217_297"/>
<feColorMatrix in="SourceAlpha" type="matrix" values="0 0 0 0 0 0 0 0 0 0 0 0 0 0 0 0 0 0 127 0" result="hardAlpha"/>
<feOffset/>
<feGaussianBlur stdDeviation="55.6988"/>
<feColorMatrix type="matrix" values="0 0 0 0 0.101961 0 0 0 0 0.776471 0 0 0 0 1 0 0 0 1 0"/>
<feBlend mode="normal" in2="effect1_dropShadow_217_297" result="effect2_dropShadow_217_297"/>
<feColorMatrix in="SourceAlpha" type="matrix" values="0 0 0 0 0 0 0 0 0 0 0 0 0 0 0 0 0 0 127 0" result="hardAlpha"/>
<feOffset/>
<feGaussianBlur stdDeviation="194.946"/>
<feColorMatrix type="matrix" values="0 0 0 0 0.101961 0 0 0 0 0.776471 0 0 0 0 1 0 0 0 1 0"/>
<feBlend mode="normal" in2="effect2_dropShadow_217_297" result="effect3_dropShadow_217_297"/>
<feColorMatrix in="SourceAlpha" type="matrix" values="0 0 0 0 0 0 0 0 0 0 0 0 0 0 0 0 0 0 127 0" result="hardAlpha"/>
<feOffset/>
<feGaussianBlur stdDeviation="389.892"/>
<feColorMatrix type="matrix" values="0 0 0 0 0.101961 0 0 0 0 0.776471 0 0 0 0 1 0 0 0 1 0"/>
<feBlend mode="normal" in2="effect3_dropShadow_217_297" result="effect4_dropShadow_217_297"/>
<feColorMatrix in="SourceAlpha" type="matrix" values="0 0 0 0 0 0 0 0 0 0 0 0 0 0 0 0 0 0 127 0" result="hardAlpha"/>
<feOffset/>
<feGaussianBlur stdDeviation="668.386"/>
<feColorMatrix type="matrix" values="0 0 0 0 0.101961 0 0 0 0 0.776471 0 0 0 0 1 0 0 0 1 0"/>
<feBlend mode="normal" in2="effect4_dropShadow_217_297" result="effect5_dropShadow_217_297"/>
<feColorMatrix in="SourceAlpha" type="matrix" values="0 0 0 0 0 0 0 0 0 0 0 0 0 0 0 0 0 0 127 0" result="hardAlpha"/>
<feOffset/>
<feGaussianBlur stdDeviation="1169.68"/>
<feColorMatrix type="matrix" values="0 0 0 0 0.101961 0 0 0 0 0.776471 0 0 0 0 1 0 0 0 1 0"/>
<feBlend mode="normal" in2="effect5_dropShadow_217_297" result="effect6_dropShadow_217_297"/>
<feBlend mode="normal" in="SourceGraphic" in2="effect6_dropShadow_217_297" result="shape"/>
</filter>
<filter id="filter4_dddddd_217_297" x="-2342.53" y="-1557.42" width="5293.75" height="4755.33" filterUnits="userSpaceOnUse" color-interpolation-filters="sRGB">
<feFlood flood-opacity="0" result="BackgroundImageFix"/>
<feColorMatrix in="SourceAlpha" type="matrix" values="0 0 0 0 0 0 0 0 0 0 0 0 0 0 0 0 0 0 127 0" result="hardAlpha"/>
<feOffset/>
<feGaussianBlur stdDeviation="28.0052"/>
<feColorMatrix type="matrix" values="0 0 0 0 0.141176 0 0 0 0 0.784314 0 0 0 0 1 0 0 0 1 0"/>
<feBlend mode="normal" in2="BackgroundImageFix" result="effect1_dropShadow_217_297"/>
<feColorMatrix in="SourceAlpha" type="matrix" values="0 0 0 0 0 0 0 0 0 0 0 0 0 0 0 0 0 0 127 0" result="hardAlpha"/>
<feOffset/>
<feGaussianBlur stdDeviation="56.0103"/>
<feColorMatrix type="matrix" values="0 0 0 0 0.141176 0 0 0 0 0.784314 0 0 0 0 1 0 0 0 1 0"/>
<feBlend mode="normal" in2="effect1_dropShadow_217_297" result="effect2_dropShadow_217_297"/>
<feColorMatrix in="SourceAlpha" type="matrix" values="0 0 0 0 0 0 0 0 0 0 0 0 0 0 0 0 0 0 127 0" result="hardAlpha"/>
<feOffset/>
<feGaussianBlur stdDeviation="196.036"/>
<feColorMatrix type="matrix" values="0 0 0 0 0.141176 0 0 0 0 0.784314 0 0 0 0 1 0 0 0 1 0"/>
<feBlend mode="normal" in2="effect2_dropShadow_217_297" result="effect3_dropShadow_217_297"/>
<feColorMatrix in="SourceAlpha" type="matrix" values="0 0 0 0 0 0 0 0 0 0 0 0 0 0 0 0 0 0 127 0" result="hardAlpha"/>
<feOffset/>
<feGaussianBlur stdDeviation="392.072"/>
<feColorMatrix type="matrix" values="0 0 0 0 0.141176 0 0 0 0 0.784314 0 0 0 0 1 0 0 0 1 0"/>
<feBlend mode="normal" in2="effect3_dropShadow_217_297" result="effect4_dropShadow_217_297"/>
<feColorMatrix in="SourceAlpha" type="matrix" values="0 0 0 0 0 0 0 0 0 0 0 0 0 0 0 0 0 0 127 0" result="hardAlpha"/>
<feOffset/>
<feGaussianBlur stdDeviation="672.124"/>
<feColorMatrix type="matrix" values="0 0 0 0 0.141176 0 0 0 0 0.784314 0 0 0 0 1 0 0 0 1 0"/>
<feBlend mode="normal" in2="effect4_dropShadow_217_297" result="effect5_dropShadow_217_297"/>
<feColorMatrix in="SourceAlpha" type="matrix" values="0 0 0 0 0 0 0 0 0 0 0 0 0 0 0 0 0 0 127 0" result="hardAlpha"/>
<feOffset/>
<feGaussianBlur stdDeviation="1176.22"/>
<feColorMatrix type="matrix" values="0 0 0 0 0.141176 0 0 0 0 0.784314 0 0 0 0 1 0 0 0 1 0"/>
<feBlend mode="normal" in2="effect5_dropShadow_217_297" result="effect6_dropShadow_217_297"/>
<feBlend mode="normal" in="SourceGraphic" in2="effect6_dropShadow_217_297" result="shape"/>
</filter>
<filter id="filter5_dddddd_217_297" x="-2317.62" y="-1563.85" width="5263.73" height="4772.14" filterUnits="userSpaceOnUse" color-interpolation-filters="sRGB">
<feFlood flood-opacity="0" result="BackgroundImageFix"/>
<feColorMatrix in="SourceAlpha" type="matrix" values="0 0 0 0 0 0 0 0 0 0 0 0 0 0 0 0 0 0 127 0" result="hardAlpha"/>
<feOffset/>
<feGaussianBlur stdDeviation="27.8494"/>
<feColorMatrix type="matrix" values="0 0 0 0 0.101961 0 0 0 0 0.776471 0 0 0 0 1 0 0 0 1 0"/>
<feBlend mode="normal" in2="BackgroundImageFix" result="effect1_dropShadow_217_297"/>
<feColorMatrix in="SourceAlpha" type="matrix" values="0 0 0 0 0 0 0 0 0 0 0 0 0 0 0 0 0 0 127 0" result="hardAlpha"/>
<feOffset/>
<feGaussianBlur stdDeviation="55.6988"/>
<feColorMatrix type="matrix" values="0 0 0 0 0.101961 0 0 0 0 0.776471 0 0 0 0 1 0 0 0 1 0"/>
<feBlend mode="normal" in2="effect1_dropShadow_217_297" result="effect2_dropShadow_217_297"/>
<feColorMatrix in="SourceAlpha" type="matrix" values="0 0 0 0 0 0 0 0 0 0 0 0 0 0 0 0 0 0 127 0" result="hardAlpha"/>
<feOffset/>
<feGaussianBlur stdDeviation="194.946"/>
<feColorMatrix type="matrix" values="0 0 0 0 0.101961 0 0 0 0 0.776471 0 0 0 0 1 0 0 0 1 0"/>
<feBlend mode="normal" in2="effect2_dropShadow_217_297" result="effect3_dropShadow_217_297"/>
<feColorMatrix in="SourceAlpha" type="matrix" values="0 0 0 0 0 0 0 0 0 0 0 0 0 0 0 0 0 0 127 0" result="hardAlpha"/>
<feOffset/>
<feGaussianBlur stdDeviation="389.892"/>
<feColorMatrix type="matrix" values="0 0 0 0 0.101961 0 0 0 0 0.776471 0 0 0 0 1 0 0 0 1 0"/>
<feBlend mode="normal" in2="effect3_dropShadow_217_297" result="effect4_dropShadow_217_297"/>
<feColorMatrix in="SourceAlpha" type="matrix" values="0 0 0 0 0 0 0 0 0 0 0 0 0 0 0 0 0 0 127 0" result="hardAlpha"/>
<feOffset/>
<feGaussianBlur stdDeviation="668.386"/>
<feColorMatrix type="matrix" values="0 0 0 0 0.101961 0 0 0 0 0.776471 0 0 0 0 1 0 0 0 1 0"/>
<feBlend mode="normal" in2="effect4_dropShadow_217_297" result="effect5_dropShadow_217_297"/>
<feColorMatrix in="SourceAlpha" type="matrix" values="0 0 0 0 0 0 0 0 0 0 0 0 0 0 0 0 0 0 127 0" result="hardAlpha"/>
<feOffset/>
<feGaussianBlur stdDeviation="1169.68"/>
<feColorMatrix type="matrix" values="0 0 0 0 0.101961 0 0 0 0 0.776471 0 0 0 0 1 0 0 0 1 0"/>
<feBlend mode="normal" in2="effect5_dropShadow_217_297" result="effect6_dropShadow_217_297"/>
<feBlend mode="normal" in="SourceGraphic" in2="effect6_dropShadow_217_297" result="shape"/>
</filter>
<filter id="filter6_dddddd_217_297" x="-2342.72" y="-2253.92" width="5293.75" height="4755.33" filterUnits="userSpaceOnUse" color-interpolation-filters="sRGB">
<feFlood flood-opacity="0" result="BackgroundImageFix"/>
<feColorMatrix in="SourceAlpha" type="matrix" values="0 0 0 0 0 0 0 0 0 0 0 0 0 0 0 0 0 0 127 0" result="hardAlpha"/>
<feOffset/>
<feGaussianBlur stdDeviation="28.0052"/>
<feColorMatrix type="matrix" values="0 0 0 0 0.141176 0 0 0 0 0.784314 0 0 0 0 1 0 0 0 1 0"/>
<feBlend mode="normal" in2="BackgroundImageFix" result="effect1_dropShadow_217_297"/>
<feColorMatrix in="SourceAlpha" type="matrix" values="0 0 0 0 0 0 0 0 0 0 0 0 0 0 0 0 0 0 127 0" result="hardAlpha"/>
<feOffset/>
<feGaussianBlur stdDeviation="56.0103"/>
<feColorMatrix type="matrix" values="0 0 0 0 0.141176 0 0 0 0 0.784314 0 0 0 0 1 0 0 0 1 0"/>
<feBlend mode="normal" in2="effect1_dropShadow_217_297" result="effect2_dropShadow_217_297"/>
<feColorMatrix in="SourceAlpha" type="matrix" values="0 0 0 0 0 0 0 0 0 0 0 0 0 0 0 0 0 0 127 0" result="hardAlpha"/>
<feOffset/>
<feGaussianBlur stdDeviation="196.036"/>
<feColorMatrix type="matrix" values="0 0 0 0 0.141176 0 0 0 0 0.784314 0 0 0 0 1 0 0 0 1 0"/>
<feBlend mode="normal" in2="effect2_dropShadow_217_297" result="effect3_dropShadow_217_297"/>
<feColorMatrix in="SourceAlpha" type="matrix" values="0 0 0 0 0 0 0 0 0 0 0 0 0 0 0 0 0 0 127 0" result="hardAlpha"/>
<feOffset/>
<feGaussianBlur stdDeviation="392.072"/>
<feColorMatrix type="matrix" values="0 0 0 0 0.141176 0 0 0 0 0.784314 0 0 0 0 1 0 0 0 1 0"/>
<feBlend mode="normal" in2="effect3_dropShadow_217_297" result="effect4_dropShadow_217_297"/>
<feColorMatrix in="SourceAlpha" type="matrix" values="0 0 0 0 0 0 0 0 0 0 0 0 0 0 0 0 0 0 127 0" result="hardAlpha"/>
<feOffset/>
<feGaussianBlur stdDeviation="672.124"/>
<feColorMatrix type="matrix" values="0 0 0 0 0.141176 0 0 0 0 0.784314 0 0 0 0 1 0 0 0 1 0"/>
<feBlend mode="normal" in2="effect4_dropShadow_217_297" result="effect5_dropShadow_217_297"/>
<feColorMatrix in="SourceAlpha" type="matrix" values="0 0 0 0 0 0 0 0 0 0 0 0 0 0 0 0 0 0 127 0" result="hardAlpha"/>
<feOffset/>
<feGaussianBlur stdDeviation="1176.22"/>
<feColorMatrix type="matrix" values="0 0 0 0 0.141176 0 0 0 0 0.784314 0 0 0 0 1 0 0 0 1 0"/>
<feBlend mode="normal" in2="effect5_dropShadow_217_297" result="effect6_dropShadow_217_297"/>
<feBlend mode="normal" in="SourceGraphic" in2="effect6_dropShadow_217_297" result="shape"/>
</filter>
<filter id="filter7_dddddd_217_297" x="-2337.61" y="-2264.29" width="5263.73" height="4772.21" filterUnits="userSpaceOnUse" color-interpolation-filters="sRGB">
<feFlood flood-opacity="0" result="BackgroundImageFix"/>
<feColorMatrix in="SourceAlpha" type="matrix" values="0 0 0 0 0 0 0 0 0 0 0 0 0 0 0 0 0 0 127 0" result="hardAlpha"/>
<feOffset/>
<feGaussianBlur stdDeviation="27.8494"/>
<feColorMatrix type="matrix" values="0 0 0 0 0.101961 0 0 0 0 0.776471 0 0 0 0 1 0 0 0 1 0"/>
<feBlend mode="normal" in2="BackgroundImageFix" result="effect1_dropShadow_217_297"/>
<feColorMatrix in="SourceAlpha" type="matrix" values="0 0 0 0 0 0 0 0 0 0 0 0 0 0 0 0 0 0 127 0" result="hardAlpha"/>
<feOffset/>
<feGaussianBlur stdDeviation="55.6988"/>
<feColorMatrix type="matrix" values="0 0 0 0 0.101961 0 0 0 0 0.776471 0 0 0 0 1 0 0 0 1 0"/>
<feBlend mode="normal" in2="effect1_dropShadow_217_297" result="effect2_dropShadow_217_297"/>
<feColorMatrix in="SourceAlpha" type="matrix" values="0 0 0 0 0 0 0 0 0 0 0 0 0 0 0 0 0 0 127 0" result="hardAlpha"/>
<feOffset/>
<feGaussianBlur stdDeviation="194.946"/>
<feColorMatrix type="matrix" values="0 0 0 0 0.101961 0 0 0 0 0.776471 0 0 0 0 1 0 0 0 1 0"/>
<feBlend mode="normal" in2="effect2_dropShadow_217_297" result="effect3_dropShadow_217_297"/>
<feColorMatrix in="SourceAlpha" type="matrix" values="0 0 0 0 0 0 0 0 0 0 0 0 0 0 0 0 0 0 127 0" result="hardAlpha"/>
<feOffset/>
<feGaussianBlur stdDeviation="389.892"/>
<feColorMatrix type="matrix" values="0 0 0 0 0.101961 0 0 0 0 0.776471 0 0 0 0 1 0 0 0 1 0"/>
<feBlend mode="normal" in2="effect3_dropShadow_217_297" result="effect4_dropShadow_217_297"/>
<feColorMatrix in="SourceAlpha" type="matrix" values="0 0 0 0 0 0 0 0 0 0 0 0 0 0 0 0 0 0 127 0" result="hardAlpha"/>
<feOffset/>
<feGaussianBlur stdDeviation="668.386"/>
<feColorMatrix type="matrix" values="0 0 0 0 0.101961 0 0 0 0 0.776471 0 0 0 0 1 0 0 0 1 0"/>
<feBlend mode="normal" in2="effect4_dropShadow_217_297" result="effect5_dropShadow_217_297"/>
<feColorMatrix in="SourceAlpha" type="matrix" values="0 0 0 0 0 0 0 0 0 0 0 0 0 0 0 0 0 0 127 0" result="hardAlpha"/>
<feOffset/>
<feGaussianBlur stdDeviation="1169.68"/>
<feColorMatrix type="matrix" values="0 0 0 0 0.101961 0 0 0 0 0.776471 0 0 0 0 1 0 0 0 1 0"/>
<feBlend mode="normal" in2="effect5_dropShadow_217_297" result="effect6_dropShadow_217_297"/>
<feBlend mode="normal" in="SourceGraphic" in2="effect6_dropShadow_217_297" result="shape"/>
</filter>
<filter id="filter8_dddddd_217_297" x="-2326.43" y="-2255.43" width="4756.87" height="5436.87" filterUnits="userSpaceOnUse" color-interpolation-filters="sRGB">
<feFlood flood-opacity="0" result="BackgroundImageFix"/>
<feColorMatrix in="SourceAlpha" type="matrix" values="0 0 0 0 0 0 0 0 0 0 0 0 0 0 0 0 0 0 127 0" result="hardAlpha"/>
<feOffset/>
<feGaussianBlur stdDeviation="28.0052"/>
<feColorMatrix type="matrix" values="0 0 0 0 0.141176 0 0 0 0 0.784314 0 0 0 0 1 0 0 0 1 0"/>
<feBlend mode="normal" in2="BackgroundImageFix" result="effect1_dropShadow_217_297"/>
<feColorMatrix in="SourceAlpha" type="matrix" values="0 0 0 0 0 0 0 0 0 0 0 0 0 0 0 0 0 0 127 0" result="hardAlpha"/>
<feOffset/>
<feGaussianBlur stdDeviation="56.0103"/>
<feColorMatrix type="matrix" values="0 0 0 0 0.141176 0 0 0 0 0.784314 0 0 0 0 1 0 0 0 1 0"/>
<feBlend mode="normal" in2="effect1_dropShadow_217_297" result="effect2_dropShadow_217_297"/>
<feColorMatrix in="SourceAlpha" type="matrix" values="0 0 0 0 0 0 0 0 0 0 0 0 0 0 0 0 0 0 127 0" result="hardAlpha"/>
<feOffset/>
<feGaussianBlur stdDeviation="196.036"/>
<feColorMatrix type="matrix" values="0 0 0 0 0.141176 0 0 0 0 0.784314 0 0 0 0 1 0 0 0 1 0"/>
<feBlend mode="normal" in2="effect2_dropShadow_217_297" result="effect3_dropShadow_217_297"/>
<feColorMatrix in="SourceAlpha" type="matrix" values="0 0 0 0 0 0 0 0 0 0 0 0 0 0 0 0 0 0 127 0" result="hardAlpha"/>
<feOffset/>
<feGaussianBlur stdDeviation="392.072"/>
<feColorMatrix type="matrix" values="0 0 0 0 0.141176 0 0 0 0 0.784314 0 0 0 0 1 0 0 0 1 0"/>
<feBlend mode="normal" in2="effect3_dropShadow_217_297" result="effect4_dropShadow_217_297"/>
<feColorMatrix in="SourceAlpha" type="matrix" values="0 0 0 0 0 0 0 0 0 0 0 0 0 0 0 0 0 0 127 0" result="hardAlpha"/>
<feOffset/>
<feGaussianBlur stdDeviation="672.124"/>
<feColorMatrix type="matrix" values="0 0 0 0 0.141176 0 0 0 0 0.784314 0 0 0 0 1 0 0 0 1 0"/>
<feBlend mode="normal" in2="effect4_dropShadow_217_297" result="effect5_dropShadow_217_297"/>
<feColorMatrix in="SourceAlpha" type="matrix" values="0 0 0 0 0 0 0 0 0 0 0 0 0 0 0 0 0 0 127 0" result="hardAlpha"/>
<feOffset/>
<feGaussianBlur stdDeviation="1176.22"/>
<feColorMatrix type="matrix" values="0 0 0 0 0.141176 0 0 0 0 0.784314 0 0 0 0 1 0 0 0 1 0"/>
<feBlend mode="normal" in2="effect5_dropShadow_217_297" result="effect6_dropShadow_217_297"/>
<feBlend mode="normal" in="SourceGraphic" in2="effect6_dropShadow_217_297" result="shape"/>
</filter>
<filter id="filter9_dddddd_217_297" x="-2339.35" y="-2228.35" width="4782.7" height="5407.7" filterUnits="userSpaceOnUse" color-interpolation-filters="sRGB">
<feFlood flood-opacity="0" result="BackgroundImageFix"/>
<feColorMatrix in="SourceAlpha" type="matrix" values="0 0 0 0 0 0 0 0 0 0 0 0 0 0 0 0 0 0 127 0" result="hardAlpha"/>
<feOffset/>
<feGaussianBlur stdDeviation="27.8494"/>
<feColorMatrix type="matrix" values="0 0 0 0 0.101961 0 0 0 0 0.776471 0 0 0 0 1 0 0 0 1 0"/>
<feBlend mode="normal" in2="BackgroundImageFix" result="effect1_dropShadow_217_297"/>
<feColorMatrix in="SourceAlpha" type="matrix" values="0 0 0 0 0 0 0 0 0 0 0 0 0 0 0 0 0 0 127 0" result="hardAlpha"/>
<feOffset/>
<feGaussianBlur stdDeviation="55.6988"/>
<feColorMatrix type="matrix" values="0 0 0 0 0.101961 0 0 0 0 0.776471 0 0 0 0 1 0 0 0 1 0"/>
<feBlend mode="normal" in2="effect1_dropShadow_217_297" result="effect2_dropShadow_217_297"/>
<feColorMatrix in="SourceAlpha" type="matrix" values="0 0 0 0 0 0 0 0 0 0 0 0 0 0 0 0 0 0 127 0" result="hardAlpha"/>
<feOffset/>
<feGaussianBlur stdDeviation="194.946"/>
<feColorMatrix type="matrix" values="0 0 0 0 0.101961 0 0 0 0 0.776471 0 0 0 0 1 0 0 0 1 0"/>
<feBlend mode="normal" in2="effect2_dropShadow_217_297" result="effect3_dropShadow_217_297"/>
<feColorMatrix in="SourceAlpha" type="matrix" values="0 0 0 0 0 0 0 0 0 0 0 0 0 0 0 0 0 0 127 0" result="hardAlpha"/>
<feOffset/>
<feGaussianBlur stdDeviation="389.892"/>
<feColorMatrix type="matrix" values="0 0 0 0 0.101961 0 0 0 0 0.776471 0 0 0 0 1 0 0 0 1 0"/>
<feBlend mode="normal" in2="effect3_dropShadow_217_297" result="effect4_dropShadow_217_297"/>
<feColorMatrix in="SourceAlpha" type="matrix" values="0 0 0 0 0 0 0 0 0 0 0 0 0 0 0 0 0 0 127 0" result="hardAlpha"/>
<feOffset/>
<feGaussianBlur stdDeviation="668.386"/>
<feColorMatrix type="matrix" values="0 0 0 0 0.101961 0 0 0 0 0.776471 0 0 0 0 1 0 0 0 1 0"/>
<feBlend mode="normal" in2="effect4_dropShadow_217_297" result="effect5_dropShadow_217_297"/>
<feColorMatrix in="SourceAlpha" type="matrix" values="0 0 0 0 0 0 0 0 0 0 0 0 0 0 0 0 0 0 127 0" result="hardAlpha"/>
<feOffset/>
<feGaussianBlur stdDeviation="1169.68"/>
<feColorMatrix type="matrix" values="0 0 0 0 0.101961 0 0 0 0 0.776471 0 0 0 0 1 0 0 0 1 0"/>
<feBlend mode="normal" in2="effect5_dropShadow_217_297" result="effect6_dropShadow_217_297"/>
<feBlend mode="normal" in="SourceGraphic" in2="effect6_dropShadow_217_297" result="shape"/>
</filter>
<filter id="filter10_dddddd_217_297" x="-237.155" y="-700.351" width="1594.98" height="1580.71" filterUnits="userSpaceOnUse" color-interpolation-filters="sRGB">
<feFlood flood-opacity="0" result="BackgroundImageFix"/>
<feColorMatrix in="SourceAlpha" type="matrix" values="0 0 0 0 0 0 0 0 0 0 0 0 0 0 0 0 0 0 127 0" result="hardAlpha"/>
<feOffset/>
<feGaussianBlur stdDeviation="8.37089"/>
<feColorMatrix type="matrix" values="0 0 0 0 0.239216 0 0 0 0 0.733333 0 0 0 0 0.960784 0 0 0 1 0"/>
<feBlend mode="normal" in2="BackgroundImageFix" result="effect1_dropShadow_217_297"/>
<feColorMatrix in="SourceAlpha" type="matrix" values="0 0 0 0 0 0 0 0 0 0 0 0 0 0 0 0 0 0 127 0" result="hardAlpha"/>
<feOffset/>
<feGaussianBlur stdDeviation="16.7418"/>
<feColorMatrix type="matrix" values="0 0 0 0 0.239216 0 0 0 0 0.733333 0 0 0 0 0.960784 0 0 0 1 0"/>
<feBlend mode="normal" in2="effect1_dropShadow_217_297" result="effect2_dropShadow_217_297"/>
<feColorMatrix in="SourceAlpha" type="matrix" values="0 0 0 0 0 0 0 0 0 0 0 0 0 0 0 0 0 0 127 0" result="hardAlpha"/>
<feOffset/>
<feGaussianBlur stdDeviation="58.5962"/>
<feColorMatrix type="matrix" values="0 0 0 0 0.239216 0 0 0 0 0.733333 0 0 0 0 0.960784 0 0 0 1 0"/>
<feBlend mode="normal" in2="effect2_dropShadow_217_297" result="effect3_dropShadow_217_297"/>
<feColorMatrix in="SourceAlpha" type="matrix" values="0 0 0 0 0 0 0 0 0 0 0 0 0 0 0 0 0 0 127 0" result="hardAlpha"/>
<feOffset/>
<feGaussianBlur stdDeviation="117.192"/>
<feColorMatrix type="matrix" values="0 0 0 0 0.239216 0 0 0 0 0.733333 0 0 0 0 0.960784 0 0 0 1 0"/>
<feBlend mode="normal" in2="effect3_dropShadow_217_297" result="effect4_dropShadow_217_297"/>
<feColorMatrix in="SourceAlpha" type="matrix" values="0 0 0 0 0 0 0 0 0 0 0 0 0 0 0 0 0 0 127 0" result="hardAlpha"/>
<feOffset/>
<feGaussianBlur stdDeviation="200.901"/>
<feColorMatrix type="matrix" values="0 0 0 0 0.239216 0 0 0 0 0.733333 0 0 0 0 0.960784 0 0 0 1 0"/>
<feBlend mode="normal" in2="effect4_dropShadow_217_297" result="effect5_dropShadow_217_297"/>
<feColorMatrix in="SourceAlpha" type="matrix" values="0 0 0 0 0 0 0 0 0 0 0 0 0 0 0 0 0 0 127 0" result="hardAlpha"/>
<feOffset/>
<feGaussianBlur stdDeviation="351.577"/>
<feColorMatrix type="matrix" values="0 0 0 0 0.239216 0 0 0 0 0.733333 0 0 0 0 0.960784 0 0 0 1 0"/>
<feBlend mode="normal" in2="effect5_dropShadow_217_297" result="effect6_dropShadow_217_297"/>
<feBlend mode="normal" in="SourceGraphic" in2="effect6_dropShadow_217_297" result="shape"/>
</filter>
</defs>
</svg>
