<svg width="736" height="858" viewBox="0 0 736 858" fill="none" xmlns="http://www.w3.org/2000/svg">
<rect x="93" y="140" width="496" height="666" fill="#D9D9D9"/>
<rect x="93" y="141" width="496" height="667" fill="#218ABE"/>
<g filter="url(#filter0_f_147_435)">
<path d="M98.7303 178.728C98.7303 175.656 98.9863 172.648 99.4983 169.704C100.01 166.696 100.522 164.488 101.034 163.08L101.802 160.872L100.17 153.576C100.618 152.232 101.706 150.92 103.434 149.64C105.354 148.296 108.33 147.624 112.362 147.624C116.394 147.624 119.21 148.296 120.81 149.64C122.474 150.984 123.306 152.936 123.306 155.496C123.306 156.84 122.762 160.2 121.674 165.576C120.586 170.952 120.042 176.648 120.042 182.664C120.042 188.68 120.65 193.384 121.866 196.776C123.146 200.168 124.906 201.864 127.146 201.864C129.45 201.864 131.274 200.232 132.618 196.968C134.026 193.704 134.73 188.904 134.73 182.568C134.73 176.232 134.25 170.312 133.29 164.808C132.394 159.24 131.466 155.24 130.506 152.808L129.162 149.16C129.162 148.968 129.386 148.584 129.834 148.008C130.346 147.432 130.89 146.952 131.466 146.568C133.002 145.672 135.018 145.224 137.514 145.224C148.074 145.224 153.354 154.696 153.354 173.64C153.354 181.832 152.426 188.84 150.57 194.664C148.714 200.424 145.578 205.032 141.162 208.488C136.81 211.88 131.242 213.576 124.458 213.576C115.562 213.576 109.034 210.44 104.874 204.168C100.778 197.896 98.7303 189.416 98.7303 178.728ZM200.062 150.216C200.382 153.224 200.542 155.24 200.542 156.264C200.542 157.288 200.51 158.344 200.446 159.432C200.446 160.52 200.222 161.64 199.774 162.792C199.326 163.88 198.718 164.936 197.95 165.96C196.478 167.944 193.822 168.936 189.982 168.936C187.358 168.936 185.214 168.328 183.55 167.112C181.95 165.832 180.414 164.008 178.942 161.64C177.598 166.312 176.926 171.784 176.926 178.056C176.926 185.736 178.814 191.368 182.59 194.952C184.51 196.808 186.974 197.736 189.982 197.736C192.99 197.736 196.414 196.968 200.254 195.432C200.702 197.288 200.734 199.208 200.35 201.192C199.966 203.112 199.358 204.744 198.526 206.088C197.694 207.432 196.638 208.584 195.358 209.544C192.286 211.848 187.838 213 182.014 213C173.054 213 166.398 209.992 162.046 203.976C160.446 201.736 159.134 198.792 158.11 195.144C157.086 191.432 156.574 187.208 156.574 182.472C156.574 174.216 158.174 167.464 161.374 162.216C164.638 156.968 168.606 153.192 173.278 150.888C173.918 149.48 174.974 148.136 176.446 146.856C177.982 145.576 180.03 144.936 182.59 144.936C185.214 144.936 188.19 145.832 191.518 147.624C194.846 149.352 197.694 150.216 200.062 150.216ZM235.591 192.648C238.087 193.608 239.335 196.136 239.335 200.232C239.335 203.112 238.503 205.96 236.839 208.776C235.175 211.592 232.935 213 230.119 213L213.895 212.232C211.399 212.232 209.191 212.488 207.271 213C204.967 209.8 203.815 206.504 203.815 203.112C203.815 199.72 205.223 197.8 208.039 197.352L205.255 148.104C209.927 145.224 213.991 143.784 217.447 143.784C220.903 143.784 223.559 144.776 225.415 146.76C227.335 148.68 228.295 152.168 228.295 157.224C228.295 169.064 227.815 181.608 226.855 194.856L235.591 192.648ZM293.043 209.928C292.595 210.376 291.507 211.016 289.779 211.848C288.115 212.616 286.067 213 283.635 213C278.323 213 274.963 209.032 273.555 201.096C271.315 201.352 268.627 201.48 265.491 201.48C262.419 201.48 260.467 201.384 259.635 201.192C258.803 205.48 257.619 208.52 256.083 210.312C254.611 212.104 252.371 213 249.363 213C247.891 213 246.483 212.744 245.139 212.232C243.795 211.72 242.835 211.208 242.259 210.696L241.299 209.928C243.795 179.848 247.315 161.672 251.859 155.4C253.523 153.224 255.059 151.88 256.467 151.368C257.875 150.792 259.187 150.504 260.403 150.504C261.619 150.504 262.387 150.536 262.707 150.6C263.027 150.6 263.251 150.6 263.379 150.6L262.995 148.68C263.187 148.424 263.443 148.104 263.763 147.72C264.147 147.272 265.107 146.696 266.643 145.992C268.179 145.288 269.971 144.936 272.019 144.936C276.243 144.936 279.571 146.536 282.003 149.736C284.499 152.872 286.707 159.016 288.627 168.168C290.611 177.256 292.467 190.76 294.195 208.68C293.939 209 293.555 209.416 293.043 209.928ZM261.267 190.152C263.315 189.896 265.459 189.768 267.699 189.768C269.939 189.768 271.219 189.8 271.539 189.864C269.235 178.216 267.219 168.36 265.491 160.296C263.891 169.128 262.483 179.08 261.267 190.152Z" fill="#C1E6F8" fill-opacity="0.75"/>
</g>
<g filter="url(#filter1_f_147_435)">
<path d="M381.23 769.728C381.23 766.656 381.486 763.648 381.998 760.704C382.51 757.696 383.022 755.488 383.534 754.08L384.302 751.872L382.67 744.576C383.118 743.232 384.206 741.92 385.934 740.64C387.854 739.296 390.83 738.624 394.862 738.624C398.894 738.624 401.71 739.296 403.31 740.64C404.974 741.984 405.806 743.936 405.806 746.496C405.806 747.84 405.262 751.2 404.174 756.576C403.086 761.952 402.542 767.648 402.542 773.664C402.542 779.68 403.15 784.384 404.366 787.776C405.646 791.168 407.406 792.864 409.646 792.864C411.95 792.864 413.774 791.232 415.118 787.968C416.526 784.704 417.23 779.904 417.23 773.568C417.23 767.232 416.75 761.312 415.79 755.808C414.894 750.24 413.966 746.24 413.006 743.808L411.662 740.16C411.662 739.968 411.886 739.584 412.334 739.008C412.846 738.432 413.39 737.952 413.966 737.568C415.502 736.672 417.518 736.224 420.014 736.224C430.574 736.224 435.854 745.696 435.854 764.64C435.854 772.832 434.926 779.84 433.07 785.664C431.214 791.424 428.078 796.032 423.662 799.488C419.31 802.88 413.742 804.576 406.958 804.576C398.062 804.576 391.534 801.44 387.374 795.168C383.278 788.896 381.23 780.416 381.23 769.728ZM482.562 741.216C482.882 744.224 483.042 746.24 483.042 747.264C483.042 748.288 483.01 749.344 482.946 750.432C482.946 751.52 482.722 752.64 482.274 753.792C481.826 754.88 481.218 755.936 480.45 756.96C478.978 758.944 476.322 759.936 472.482 759.936C469.858 759.936 467.714 759.328 466.05 758.112C464.45 756.832 462.914 755.008 461.442 752.64C460.098 757.312 459.426 762.784 459.426 769.056C459.426 776.736 461.314 782.368 465.09 785.952C467.01 787.808 469.474 788.736 472.482 788.736C475.49 788.736 478.914 787.968 482.754 786.432C483.202 788.288 483.234 790.208 482.85 792.192C482.466 794.112 481.858 795.744 481.026 797.088C480.194 798.432 479.138 799.584 477.858 800.544C474.786 802.848 470.338 804 464.514 804C455.554 804 448.898 800.992 444.546 794.976C442.946 792.736 441.634 789.792 440.61 786.144C439.586 782.432 439.074 778.208 439.074 773.472C439.074 765.216 440.674 758.464 443.874 753.216C447.138 747.968 451.106 744.192 455.778 741.888C456.418 740.48 457.474 739.136 458.946 737.856C460.482 736.576 462.53 735.936 465.09 735.936C467.714 735.936 470.69 736.832 474.018 738.624C477.346 740.352 480.194 741.216 482.562 741.216ZM518.091 783.648C520.587 784.608 521.835 787.136 521.835 791.232C521.835 794.112 521.003 796.96 519.339 799.776C517.675 802.592 515.435 804 512.619 804L496.395 803.232C493.899 803.232 491.691 803.488 489.771 804C487.467 800.8 486.315 797.504 486.315 794.112C486.315 790.72 487.723 788.8 490.539 788.352L487.755 739.104C492.427 736.224 496.491 734.784 499.947 734.784C503.403 734.784 506.059 735.776 507.915 737.76C509.835 739.68 510.795 743.168 510.795 748.224C510.795 760.064 510.315 772.608 509.355 785.856L518.091 783.648ZM575.543 800.928C575.095 801.376 574.007 802.016 572.279 802.848C570.615 803.616 568.567 804 566.135 804C560.823 804 557.463 800.032 556.055 792.096C553.815 792.352 551.127 792.48 547.991 792.48C544.919 792.48 542.967 792.384 542.135 792.192C541.303 796.48 540.119 799.52 538.583 801.312C537.111 803.104 534.871 804 531.863 804C530.391 804 528.983 803.744 527.639 803.232C526.295 802.72 525.335 802.208 524.759 801.696L523.799 800.928C526.295 770.848 529.815 752.672 534.359 746.4C536.023 744.224 537.559 742.88 538.967 742.368C540.375 741.792 541.687 741.504 542.903 741.504C544.119 741.504 544.887 741.536 545.207 741.6C545.527 741.6 545.751 741.6 545.879 741.6L545.495 739.68C545.687 739.424 545.943 739.104 546.263 738.72C546.647 738.272 547.607 737.696 549.143 736.992C550.679 736.288 552.471 735.936 554.519 735.936C558.743 735.936 562.071 737.536 564.503 740.736C566.999 743.872 569.207 750.016 571.127 759.168C573.111 768.256 574.967 781.76 576.695 799.68C576.439 800 576.055 800.416 575.543 800.928ZM543.767 781.152C545.815 780.896 547.959 780.768 550.199 780.768C552.439 780.768 553.719 780.8 554.039 780.864C551.735 769.216 549.719 759.36 547.991 751.296C546.391 760.128 544.983 770.08 543.767 781.152Z" fill="#C1E6F8" fill-opacity="0.75"/>
</g>
<rect x="109.5" y="161.5" width="462" height="626" stroke="#FFD100" stroke-width="5"/>
<mask id="path-6-inside-1_147_435" fill="white">
<path d="M131 195C131 187.268 137.268 181 145 181H537C544.732 181 551 187.268 551 195V575C551 582.732 544.732 589 537 589H145C137.268 589 131 582.732 131 575V195Z"/>
</mask>
<path d="M129 195C129 186.163 136.163 179 145 179H537C545.837 179 553 186.163 553 195H549C549 188.373 543.627 183 537 183H145C138.373 183 133 188.373 133 195H129ZM551 589H131H551ZM145 589C136.163 589 129 581.837 129 573V195C129 186.163 136.163 179 145 179V183C138.373 183 133 188.373 133 195V575C133 582.732 138.373 589 145 589ZM537 179C545.837 179 553 186.163 553 195V573C553 581.837 545.837 589 537 589C543.627 589 549 582.732 549 575V195C549 188.373 543.627 183 537 183V179Z" fill="#C1E6F8" mask="url(#path-6-inside-1_147_435)"/>
<path d="M501.767 274H521.777C522.797 274 523.727 274.25 524.567 274.75C525.427 275.23 526.107 275.9 526.607 276.76C527.107 277.6 527.357 278.53 527.357 279.55C527.357 280.53 527.117 281.46 526.637 282.34C526.157 283.22 525.517 283.93 524.717 284.47C525.517 285.03 526.157 285.76 526.637 286.66C527.117 287.54 527.357 288.47 527.357 289.45C527.357 290.45 527.107 291.38 526.607 292.24C526.107 293.08 525.427 293.75 524.567 294.25C523.727 294.75 522.797 295 521.777 295H501.767V274ZM512.747 283.63C513.467 283.63 514.127 283.46 514.727 283.12C515.347 282.76 515.827 282.28 516.167 281.68C516.527 281.06 516.707 280.4 516.707 279.7C516.707 278.98 516.527 278.32 516.167 277.72C515.827 277.1 515.347 276.61 514.727 276.25C514.127 275.89 513.467 275.71 512.747 275.71H512.297V283.6C512.397 283.62 512.547 283.63 512.747 283.63ZM512.747 293.26C513.467 293.26 514.127 293.09 514.727 292.75C515.347 292.39 515.827 291.91 516.167 291.31C516.527 290.69 516.707 290.02 516.707 289.3C516.707 288.6 516.527 287.95 516.167 287.35C515.827 286.73 515.347 286.25 514.727 285.91C514.127 285.55 513.467 285.37 512.747 285.37H512.297V293.23C512.397 293.25 512.547 293.26 512.747 293.26ZM501.732 313H521.802C522.782 313 523.682 313.25 524.502 313.75C525.342 314.23 526.002 314.89 526.482 315.73C526.982 316.55 527.232 317.45 527.232 318.43C527.232 319.73 526.832 320.91 526.032 321.97C525.232 323.03 524.222 323.71 523.002 324.01C524.082 324.31 524.962 324.88 525.642 325.72C526.342 326.56 526.692 327.51 526.692 328.57V334H516.642V327.49C516.642 326.85 516.522 326.35 516.282 325.99C516.002 325.57 515.682 325.26 515.322 325.06C514.922 324.84 514.472 324.68 513.972 324.58C513.452 324.48 512.962 324.42 512.502 324.4L511.692 324.37V334H501.732V313ZM512.742 322.63C513.462 322.63 514.122 322.46 514.722 322.12C515.342 321.76 515.822 321.28 516.162 320.68C516.522 320.06 516.702 319.4 516.702 318.7C516.702 317.98 516.522 317.32 516.162 316.72C515.822 316.1 515.342 315.61 514.722 315.25C514.122 314.89 513.462 314.71 512.742 314.71H511.692V322.66L512.742 322.63ZM514.507 373.15C510.887 373.15 508.297 372.62 506.737 371.56C505.197 370.5 504.427 368.88 504.427 366.7V352H515.887V366.7C515.887 368.12 516.197 369.16 516.817 369.82C517.457 370.46 518.297 370.78 519.337 370.78C521.657 370.78 522.817 369.42 522.817 366.7V352H524.587V366.7C524.587 368.4 524.227 369.72 523.507 370.66C522.787 371.58 521.707 372.23 520.267 372.61C518.827 372.97 516.907 373.15 514.507 373.15ZM509.598 391H519.378V412H509.598V391ZM504.808 430H513.628L522.388 440.5V430H524.188V451H517.138L506.638 437.02V451H504.808V430ZM518.949 476.53C521.329 477.17 523.109 478.02 524.289 479.08C525.469 480.12 526.059 481.48 526.059 483.16C526.059 484.5 525.639 485.7 524.799 486.76C523.959 487.82 522.719 488.65 521.079 489.25C519.459 489.85 517.489 490.15 515.169 490.15C512.429 490.15 510.009 489.8 507.909 489.1C505.829 488.38 504.199 487.51 503.019 486.49L504.009 485.14C505.049 485.96 506.359 486.66 507.939 487.24C509.519 487.82 511.219 488.11 513.039 488.11C514.219 488.11 515.109 487.94 515.709 487.6C516.329 487.26 516.639 486.78 516.639 486.16C516.639 485.08 515.569 484.24 513.429 483.64L509.529 482.5C507.409 481.86 505.769 480.97 504.609 479.83C503.469 478.69 502.899 477.34 502.899 475.78C502.899 474.48 503.309 473.3 504.129 472.24C504.949 471.18 506.139 470.35 507.699 469.75C509.279 469.13 511.169 468.82 513.369 468.82C515.469 468.82 517.399 469.06 519.159 469.54C520.939 470.02 522.389 470.6 523.509 471.28L522.519 472.66C521.579 472.12 520.449 471.66 519.129 471.28C517.829 470.9 516.459 470.71 515.019 470.71C513.759 470.71 512.789 470.91 512.109 471.31C511.449 471.69 511.119 472.22 511.119 472.9C511.119 473.42 511.369 473.88 511.869 474.28C512.369 474.66 513.319 475.04 514.719 475.42L518.949 476.53Z" fill="#98D6F2" fill-opacity="0.52"/>
<rect x="93" y="614" width="372" height="88" fill="#FAF5E9" fill-opacity="0.63"/>
<path d="M140.192 648.892L125 647.272H140.552L140.192 648.892ZM140.984 645.4L125.828 643.78H141.38L140.984 645.4ZM141.812 641.944L126.656 640.324H142.172L141.812 641.944ZM142.604 638.488L127.484 636.868H143L142.604 638.488ZM143.432 635.032L128.312 633.412H143.792L143.432 635.032ZM144.224 631.576L129.14 629.956H144.62L144.224 631.576ZM145.052 628.12L129.968 626.5H145.412L145.052 628.12ZM148.4 649H141.272L146.528 626.5H155.456L156.104 637.948H156.356L161.036 626.5H169.964L167.3 649H160.136L161.648 638.092H161.396L156.896 649H151.676L150.92 638.092H150.74L148.4 649ZM190.968 641.26H185.604L185.172 643.708H191.832L190.896 649H178.188L181.5 629.956H194.172L192.48 635.356H186.612L186.18 637.804H191.58L190.968 641.26ZM177 648.892L161.736 647.272H177.288L177 648.892ZM178.224 641.944L162.96 640.324H178.512L178.224 641.944ZM178.836 638.488L163.572 636.868H179.124L178.836 638.488ZM179.448 635.032L164.184 633.412H179.736L179.448 635.032ZM180.06 631.576L164.796 629.956H180.312L180.06 631.576ZM177.612 645.4L162.348 643.78H177.9L177.612 645.4ZM212.973 649L209.265 641.872H209.121L207.861 649H201.813L205.125 629.956H210.021L213.765 637.048H213.981L215.205 629.956H221.217L217.869 649H212.973ZM200.625 648.892L185.361 647.272H200.913L200.625 648.892ZM201.849 641.944L186.585 640.324H202.137L201.849 641.944ZM202.461 638.488L187.197 636.868H202.749L202.461 638.488ZM203.073 635.032L187.809 633.412H203.361L203.073 635.032ZM203.685 631.576L188.421 629.956H203.937L203.685 631.576ZM201.237 645.4L185.973 643.78H201.525L201.237 645.4ZM229.085 631.324V631.576L217.421 629.956H229.265C229.145 630.196 229.085 630.652 229.085 631.324ZM228.581 638.452L217.313 636.868H229.193L228.581 638.452ZM230.417 633.808L229.949 634.996L218.573 633.412H229.805C229.925 633.556 230.129 633.688 230.417 633.808ZM230.273 630.352C230.561 628.912 231.005 627.916 231.605 627.364C232.205 626.788 233.165 626.5 234.485 626.5C235.805 626.5 236.693 626.68 237.149 627.04C237.629 627.4 237.869 628 237.869 628.84C237.869 630.496 237.197 632.368 235.853 634.456L232.685 639.352L229.805 638.308L231.821 633.124C230.717 632.932 230.165 632.332 230.165 631.324C230.165 631.036 230.201 630.712 230.273 630.352ZM230.057 647.272H245.609L245.105 648.892L230.057 647.272ZM248.345 633.412C248.201 633.796 248.045 634.336 247.877 635.032L232.829 633.412H248.345ZM247.445 638.2V638.488L232.181 636.868H247.517C247.469 637.444 247.445 637.888 247.445 638.2ZM246.257 645.364L231.245 643.78H246.761L246.257 645.364ZM250.829 629.956C250.181 630.436 249.689 630.94 249.353 631.468L235.313 629.956H250.829ZM247.769 640.324C247.985 640.948 248.333 641.488 248.813 641.944L233.585 640.324H247.769ZM262.133 635.608C260.501 635.224 259.109 635.032 257.957 635.032C256.805 635.032 255.953 635.068 255.401 635.14L255.221 636.184L257.021 636.4C260.885 636.904 262.817 638.5 262.817 641.188C262.817 641.5 262.745 642.088 262.601 642.952C262.457 643.792 262.217 644.608 261.881 645.4C261.545 646.192 261.113 646.84 260.585 647.344C260.081 647.824 259.577 648.22 259.073 648.532C258.593 648.82 257.969 649.024 257.201 649.144C256.001 649.336 254.393 649.432 252.377 649.432C250.385 649.432 248.369 649.156 246.329 648.604L248.093 643.276C249.965 643.804 251.597 644.068 252.989 644.068C254.405 644.068 255.401 644.032 255.977 643.96L256.157 642.808L253.889 642.556C251.945 642.34 250.565 641.884 249.749 641.188C248.933 640.492 248.525 639.496 248.525 638.2C248.525 637.72 248.585 637.12 248.705 636.4C249.185 633.832 250.049 632.056 251.297 631.072C252.545 630.088 254.441 629.596 256.985 629.596C259.553 629.596 261.845 629.848 263.861 630.352L262.133 635.608ZM156.392 664.5C158.12 664.5 159.368 664.8 160.136 665.4C160.928 666 161.324 666.924 161.324 668.172C161.324 669.996 160.916 671.496 160.1 672.672C159.308 673.848 158.336 674.58 157.184 674.868L157.148 675.084C159.308 675.492 160.388 676.92 160.388 679.368C160.388 681.528 159.8 683.34 158.624 684.804C157.448 686.268 155.792 687 153.656 687H141.344L145.304 664.5H156.392ZM152.432 678.036H149.732L149.084 681.708H151.748C152.348 681.708 152.804 681.468 153.116 680.988C153.428 680.508 153.584 679.896 153.584 679.152C153.584 678.408 153.2 678.036 152.432 678.036ZM153.44 669.432H151.28L150.668 672.78H152.792C153.896 672.78 154.448 672 154.448 670.44C154.448 669.768 154.112 669.432 153.44 669.432ZM140.264 686.892L125 685.272H140.552L140.264 686.892ZM141.488 679.944L126.224 678.324H141.776L141.488 679.944ZM142.1 676.488L126.836 674.868H142.388L142.1 676.488ZM142.712 673.032L127.448 671.412H143L142.712 673.032ZM143.324 669.576L128.06 667.956H143.576L143.324 669.576ZM140.876 683.4L125.612 681.78H141.164L140.876 683.4ZM143.9 666.12L128.672 664.5H144.188L143.9 666.12ZM180.815 687L180.671 684.084H176.135L175.019 687H168.791L176.783 667.956H185.711L187.115 687H180.815ZM180.671 678.936V673.464H180.167L178.043 678.936H180.671ZM167.639 686.856L152.879 685.272H168.323L167.639 686.856ZM169.115 683.364L154.355 681.78H169.799L169.115 683.364ZM170.591 679.908L155.831 678.324H171.239L170.591 679.908ZM172.031 676.452L157.307 674.868H172.715L172.031 676.452ZM173.507 672.996L158.783 671.412H174.155L173.507 672.996ZM174.947 669.504L160.259 667.956H175.595L174.947 669.504ZM180.592 685.272H196.144L195.64 686.892L180.592 685.272ZM198.88 671.412C198.736 671.796 198.58 672.336 198.412 673.032L183.364 671.412H198.88ZM197.98 676.2V676.488L182.716 674.868H198.052C198.004 675.444 197.98 675.888 197.98 676.2ZM196.792 683.364L181.78 681.78H197.296L196.792 683.364ZM201.364 667.956C200.716 668.436 200.224 668.94 199.888 669.468L185.848 667.956H201.364ZM198.304 678.324C198.52 678.948 198.868 679.488 199.348 679.944L184.12 678.324H198.304ZM212.668 673.608C211.036 673.224 209.644 673.032 208.492 673.032C207.34 673.032 206.488 673.068 205.936 673.14L205.756 674.184L207.556 674.4C211.42 674.904 213.352 676.5 213.352 679.188C213.352 679.5 213.28 680.088 213.136 680.952C212.992 681.792 212.752 682.608 212.416 683.4C212.08 684.192 211.648 684.84 211.12 685.344C210.616 685.824 210.112 686.22 209.608 686.532C209.128 686.82 208.504 687.024 207.736 687.144C206.536 687.336 204.928 687.432 202.912 687.432C200.92 687.432 198.904 687.156 196.864 686.604L198.628 681.276C200.5 681.804 202.132 682.068 203.524 682.068C204.94 682.068 205.936 682.032 206.512 681.96L206.692 680.808L204.424 680.556C202.48 680.34 201.1 679.884 200.284 679.188C199.468 678.492 199.06 677.496 199.06 676.2C199.06 675.72 199.12 675.12 199.24 674.4C199.72 671.832 200.584 670.056 201.832 669.072C203.08 668.088 204.976 667.596 207.52 667.596C210.088 667.596 212.38 667.848 214.396 668.352L212.668 673.608ZM231.38 687L229.688 680.772H229.472L228.392 687H222.344L225.656 667.956H231.74L230.696 673.788H230.876L234.584 667.956H241.172L235.124 677.28L237.968 687H231.38ZM221.156 686.892L205.892 685.272H221.444L221.156 686.892ZM222.38 679.944L207.116 678.324H222.668L222.38 679.944ZM222.992 676.488L207.728 674.868H223.28L222.992 676.488ZM223.604 673.032L208.34 671.412H223.892L223.604 673.032ZM224.216 669.576L208.952 667.956H224.468L224.216 669.576ZM221.768 683.4L206.504 681.78H222.056L221.768 683.4ZM260.226 679.26H254.862L254.43 681.708H261.09L260.154 687H247.446L250.758 667.956H263.43L261.738 673.356H255.87L255.438 675.804H260.838L260.226 679.26ZM246.258 686.892L230.994 685.272H246.546L246.258 686.892ZM247.482 679.944L232.218 678.324H247.77L247.482 679.944ZM248.094 676.488L232.83 674.868H248.382L248.094 676.488ZM248.706 673.032L233.442 671.412H248.994L248.706 673.032ZM249.318 669.576L234.054 667.956H249.57L249.318 669.576ZM246.87 683.4L231.606 681.78H247.158L246.87 683.4ZM286.299 673.356H282.411L280.035 687H273.699L276.075 673.356H272.079L273.051 667.956H287.271L286.299 673.356ZM272.619 686.892L257.355 685.272H272.907L272.619 686.892ZM273.843 679.944L258.579 678.324H274.131L273.843 679.944ZM274.455 676.488L259.191 674.868H274.743L274.455 676.488ZM270.999 673.032L255.735 671.412H271.287L270.999 673.032ZM271.611 669.576L256.347 667.956H271.863L271.611 669.576ZM273.231 683.4L257.967 681.78H273.519L273.231 683.4ZM306.532 667.956C309.268 667.956 310.636 669.084 310.636 671.34C310.636 672.588 310.336 673.716 309.736 674.724C309.16 675.732 308.452 676.428 307.612 676.812L307.576 677.028C309.16 677.532 309.952 678.624 309.952 680.304C309.952 682.416 309.376 684.06 308.224 685.236C307.096 686.412 305.38 687 303.076 687H293.5L296.812 667.956H306.532ZM303.076 679.62H300.844L300.376 682.284H302.608C303.448 682.284 303.868 681.672 303.868 680.448C303.868 679.896 303.604 679.62 303.076 679.62ZM304.012 672.528H302.068L301.672 674.832H303.652C304.372 674.832 304.732 674.304 304.732 673.248C304.732 672.768 304.492 672.528 304.012 672.528ZM292.348 686.892L277.084 685.272H292.636L292.348 686.892ZM293.572 679.944L278.308 678.324H293.86L293.572 679.944ZM294.184 676.488L278.92 674.868H294.472L294.184 676.488ZM294.796 673.032L279.532 671.412H295.084L294.796 673.032ZM295.408 669.576L280.144 667.956H295.66L295.408 669.576ZM292.96 683.4L277.696 681.78H293.248L292.96 683.4ZM330.791 687L330.647 684.084H326.111L324.995 687H318.767L326.759 667.956H335.687L337.091 687H330.791ZM330.647 678.936V673.464H330.143L328.019 678.936H330.647ZM317.615 686.856L302.855 685.272H318.299L317.615 686.856ZM319.091 683.364L304.331 681.78H319.775L319.091 683.364ZM320.567 679.908L305.807 678.324H321.215L320.567 679.908ZM322.007 676.452L307.283 674.868H322.691L322.007 676.452ZM323.483 672.996L308.759 671.412H324.131L323.483 672.996ZM324.923 669.504L310.235 667.956H325.571L324.923 669.504ZM358.181 687H346.481L349.793 667.956H356.129L353.717 681.708H359.117L358.181 687ZM345.293 686.892L330.029 685.272H345.581L345.293 686.892ZM346.517 679.944L331.253 678.324H346.805L346.517 679.944ZM347.129 676.488L331.865 674.868H347.417L347.129 676.488ZM347.741 673.032L332.477 671.412H348.029L347.741 673.032ZM348.353 669.576L333.089 667.956H348.605L348.353 669.576ZM345.905 683.4L330.641 681.78H346.193L345.905 683.4ZM378.607 687H366.907L370.219 667.956H376.555L374.143 681.708H379.543L378.607 687ZM365.719 686.892L350.454 685.272H366.007L365.719 686.892ZM366.943 679.944L351.678 678.324H367.231L366.943 679.944ZM367.555 676.488L352.29 674.868H367.843L367.555 676.488ZM368.167 673.032L352.902 671.412H368.455L368.167 673.032ZM368.779 669.576L353.514 667.956H369.031L368.779 669.576ZM366.331 683.4L351.066 681.78H366.619L366.331 683.4Z" fill="#023047"/>
<path fill-rule="evenodd" clip-rule="evenodd" d="M86.2855 112.003C62.0183 85.4052 34.5126 55.2573 6.85449 22.2556C30.1231 64.0865 47.414 97.7259 59.6565 123.459C44.7691 124.838 34.7195 125.392 29.8216 124.148C37.7075 133.647 46.2352 143.744 55.2274 154.39C78.4599 181.897 104.793 213.074 131.169 247.109C109.313 204.017 93.2241 169.499 81.9585 143.224C97.3784 141.18 107.767 140.171 112.829 141.252C104.585 132.061 95.678 122.298 86.2855 112.003Z" fill="#D8F2FF" fill-opacity="0.4"/>
<path fill-rule="evenodd" clip-rule="evenodd" d="M634.004 120.933C664.921 102.481 699.964 81.5655 735.978 57.9622C701.615 91.2864 675.343 118.495 656.188 139.594C670.042 145.215 679.503 148.649 684.551 148.873C674.257 155.689 663.176 162.891 651.491 170.486C621.302 190.107 587.085 212.346 552 237.309C585.374 202.37 610.75 173.972 629.126 152.073C614.954 145.661 605.3 141.693 600.142 141.266C610.689 134.848 622.038 128.075 634.004 120.933Z" fill="#D8F2FF" fill-opacity="0.4"/>
<path fill-rule="evenodd" clip-rule="evenodd" d="M615.65 95.1476C645.864 75.5657 680.111 53.3705 715.228 28.4531C682.12 63.0237 656.87 91.1846 638.508 112.976C652.56 118.082 662.141 121.164 667.194 121.202C657.159 128.393 646.352 135.999 634.955 144.02C605.512 164.743 572.139 188.231 538 214.473C570.061 178.325 594.37 149.009 611.925 126.446C597.526 120.562 587.732 116.953 582.562 116.717C592.865 109.914 603.955 102.727 615.65 95.1476Z" fill="#60BBE5" fill-opacity="0.4"/>
<path fill-rule="evenodd" clip-rule="evenodd" d="M111.307 92.6204C88.0389 65.1439 61.6654 34.0008 35.2451 0C56.9528 42.6618 72.9894 76.9168 84.2732 103.084C69.345 103.913 59.2818 104.095 54.4332 102.671C61.9629 112.455 70.1118 122.86 78.7045 133.831C100.905 162.177 126.069 194.305 151.17 229.291C130.92 185.422 116.117 150.333 105.83 123.66C121.315 122.187 131.734 121.562 136.752 122.829C128.854 113.34 120.313 103.255 111.307 92.6204Z" fill="#60BBE5" fill-opacity="0.4"/>
<defs>
<filter id="filter0_f_147_435" x="92.7305" y="137.784" width="207.465" height="81.792" filterUnits="userSpaceOnUse" color-interpolation-filters="sRGB">
<feFlood flood-opacity="0" result="BackgroundImageFix"/>
<feBlend mode="normal" in="SourceGraphic" in2="BackgroundImageFix" result="shape"/>
<feGaussianBlur stdDeviation="3" result="effect1_foregroundBlur_147_435"/>
</filter>
<filter id="filter1_f_147_435" x="375.23" y="728.784" width="207.465" height="81.792" filterUnits="userSpaceOnUse" color-interpolation-filters="sRGB">
<feFlood flood-opacity="0" result="BackgroundImageFix"/>
<feBlend mode="normal" in="SourceGraphic" in2="BackgroundImageFix" result="shape"/>
<feGaussianBlur stdDeviation="3" result="effect1_foregroundBlur_147_435"/>
</filter>
</defs>
</svg>
