<svg width="5307" height="5474" viewBox="0 0 5307 5474" fill="none" xmlns="http://www.w3.org/2000/svg">
<rect x="2413.44" y="2406" width="497" height="666" fill="#FAF5E9"/>
<g filter="url(#filter0_f_187_348)">
<path d="M2419.67 2443.73C2419.67 2440.66 2419.92 2437.65 2420.44 2434.7C2420.95 2431.7 2421.46 2429.49 2421.97 2428.08L2422.74 2425.87L2421.11 2418.58C2421.56 2417.23 2422.64 2415.92 2424.37 2414.64C2426.29 2413.3 2429.27 2412.62 2433.3 2412.62C2437.33 2412.62 2440.15 2413.3 2441.75 2414.64C2443.41 2415.98 2444.24 2417.94 2444.24 2420.5C2444.24 2421.84 2443.7 2425.2 2442.61 2430.58C2441.52 2435.95 2440.98 2441.65 2440.98 2447.66C2440.98 2453.68 2441.59 2458.38 2442.8 2461.78C2444.08 2465.17 2445.84 2466.86 2448.08 2466.86C2450.39 2466.86 2452.21 2465.23 2453.56 2461.97C2454.96 2458.7 2455.67 2453.9 2455.67 2447.57C2455.67 2441.23 2455.19 2435.31 2454.23 2429.81C2453.33 2424.24 2452.4 2420.24 2451.44 2417.81L2450.1 2414.16C2450.1 2413.97 2450.32 2413.58 2450.77 2413.01C2451.28 2412.43 2451.83 2411.95 2452.4 2411.57C2453.94 2410.67 2455.96 2410.22 2458.45 2410.22C2469.01 2410.22 2474.29 2419.7 2474.29 2438.64C2474.29 2446.83 2473.36 2453.84 2471.51 2459.66C2469.65 2465.42 2466.52 2470.03 2462.1 2473.49C2457.75 2476.88 2452.18 2478.58 2445.4 2478.58C2436.5 2478.58 2429.97 2475.44 2425.81 2469.17C2421.72 2462.9 2419.67 2454.42 2419.67 2443.73ZM2521 2415.22C2521.32 2418.22 2521.48 2420.24 2521.48 2421.26C2521.48 2422.29 2521.45 2423.34 2521.38 2424.43C2521.38 2425.52 2521.16 2426.64 2520.71 2427.79C2520.26 2428.88 2519.66 2429.94 2518.89 2430.96C2517.42 2432.94 2514.76 2433.94 2510.92 2433.94C2508.3 2433.94 2506.15 2433.33 2504.49 2432.11C2502.89 2430.83 2501.35 2429.01 2499.88 2426.64C2498.54 2431.31 2497.86 2436.78 2497.86 2443.06C2497.86 2450.74 2499.75 2456.37 2503.53 2459.95C2505.45 2461.81 2507.91 2462.74 2510.92 2462.74C2513.93 2462.74 2517.35 2461.97 2521.19 2460.43C2521.64 2462.29 2521.67 2464.21 2521.29 2466.19C2520.9 2468.11 2520.3 2469.74 2519.46 2471.09C2518.63 2472.43 2517.58 2473.58 2516.3 2474.54C2513.22 2476.85 2508.78 2478 2502.95 2478C2493.99 2478 2487.34 2474.99 2482.98 2468.98C2481.38 2466.74 2480.07 2463.79 2479.05 2460.14C2478.02 2456.43 2477.51 2452.21 2477.51 2447.47C2477.51 2439.22 2479.11 2432.46 2482.31 2427.22C2485.58 2421.97 2489.54 2418.19 2494.22 2415.89C2494.86 2414.48 2495.91 2413.14 2497.38 2411.86C2498.92 2410.58 2500.97 2409.94 2503.53 2409.94C2506.15 2409.94 2509.13 2410.83 2512.46 2412.62C2515.78 2414.35 2518.63 2415.22 2521 2415.22ZM2556.53 2457.65C2559.02 2458.61 2560.27 2461.14 2560.27 2465.23C2560.27 2468.11 2559.44 2470.96 2557.78 2473.78C2556.11 2476.59 2553.87 2478 2551.06 2478L2534.83 2477.23C2532.34 2477.23 2530.13 2477.49 2528.21 2478C2525.9 2474.8 2524.75 2471.5 2524.75 2468.11C2524.75 2464.72 2526.16 2462.8 2528.98 2462.35L2526.19 2413.1C2530.86 2410.22 2534.93 2408.78 2538.38 2408.78C2541.84 2408.78 2544.5 2409.78 2546.35 2411.76C2548.27 2413.68 2549.23 2417.17 2549.23 2422.22C2549.23 2434.06 2548.75 2446.61 2547.79 2459.86L2556.53 2457.65ZM2613.98 2474.93C2613.53 2475.38 2612.45 2476.02 2610.72 2476.85C2609.05 2477.62 2607.01 2478 2604.57 2478C2599.26 2478 2595.9 2474.03 2594.49 2466.1C2592.25 2466.35 2589.57 2466.48 2586.43 2466.48C2583.36 2466.48 2581.41 2466.38 2580.57 2466.19C2579.74 2470.48 2578.56 2473.52 2577.02 2475.31C2575.55 2477.1 2573.31 2478 2570.3 2478C2568.83 2478 2567.42 2477.74 2566.08 2477.23C2564.73 2476.72 2563.77 2476.21 2563.2 2475.7L2562.24 2474.93C2564.73 2444.85 2568.25 2426.67 2572.8 2420.4C2574.46 2418.22 2576 2416.88 2577.41 2416.37C2578.81 2415.79 2580.13 2415.5 2581.34 2415.5C2582.56 2415.5 2583.33 2415.54 2583.65 2415.6C2583.97 2415.6 2584.19 2415.6 2584.32 2415.6L2583.93 2413.68C2584.13 2413.42 2584.38 2413.1 2584.7 2412.72C2585.09 2412.27 2586.05 2411.7 2587.58 2410.99C2589.12 2410.29 2590.91 2409.94 2592.96 2409.94C2597.18 2409.94 2600.51 2411.54 2602.94 2414.74C2605.44 2417.87 2607.65 2424.02 2609.57 2433.17C2611.55 2442.26 2613.41 2455.76 2615.13 2473.68C2614.88 2474 2614.49 2474.42 2613.98 2474.93ZM2582.21 2455.15C2584.25 2454.9 2586.4 2454.77 2588.64 2454.77C2590.88 2454.77 2592.16 2454.8 2592.48 2454.86C2590.17 2443.22 2588.16 2433.36 2586.43 2425.3C2584.83 2434.13 2583.42 2444.08 2582.21 2455.15Z" fill="#FFC73C" fill-opacity="0.56"/>
</g>
<g filter="url(#filter1_f_187_348)">
<path d="M2705.17 3033.73C2705.17 3030.66 2705.42 3027.65 2705.94 3024.7C2706.45 3021.7 2706.96 3019.49 2707.47 3018.08L2708.24 3015.87L2706.61 3008.58C2707.06 3007.23 2708.14 3005.92 2709.87 3004.64C2711.79 3003.3 2714.77 3002.62 2718.8 3002.62C2722.83 3002.62 2725.65 3003.3 2727.25 3004.64C2728.91 3005.98 2729.74 3007.94 2729.74 3010.5C2729.74 3011.84 2729.2 3015.2 2728.11 3020.58C2727.02 3025.95 2726.48 3031.65 2726.48 3037.66C2726.48 3043.68 2727.09 3048.38 2728.3 3051.78C2729.58 3055.17 2731.34 3056.86 2733.58 3056.86C2735.89 3056.86 2737.71 3055.23 2739.06 3051.97C2740.46 3048.7 2741.17 3043.9 2741.17 3037.57C2741.17 3031.23 2740.69 3025.31 2739.73 3019.81C2738.83 3014.24 2737.9 3010.24 2736.94 3007.81L2735.6 3004.16C2735.6 3003.97 2735.82 3003.58 2736.27 3003.01C2736.78 3002.43 2737.33 3001.95 2737.9 3001.57C2739.44 3000.67 2741.46 3000.22 2743.95 3000.22C2754.51 3000.22 2759.79 3009.7 2759.79 3028.64C2759.79 3036.83 2758.86 3043.84 2757.01 3049.66C2755.15 3055.42 2752.02 3060.03 2747.6 3063.49C2743.25 3066.88 2737.68 3068.58 2730.9 3068.58C2722 3068.58 2715.47 3065.44 2711.31 3059.17C2707.22 3052.9 2705.17 3044.42 2705.17 3033.73ZM2806.5 3005.22C2806.82 3008.22 2806.98 3010.24 2806.98 3011.26C2806.98 3012.29 2806.95 3013.34 2806.88 3014.43C2806.88 3015.52 2806.66 3016.64 2806.21 3017.79C2805.76 3018.88 2805.16 3019.94 2804.39 3020.96C2802.92 3022.94 2800.26 3023.94 2796.42 3023.94C2793.8 3023.94 2791.65 3023.33 2789.99 3022.11C2788.39 3020.83 2786.85 3019.01 2785.38 3016.64C2784.04 3021.31 2783.36 3026.78 2783.36 3033.06C2783.36 3040.74 2785.25 3046.37 2789.03 3049.95C2790.95 3051.81 2793.41 3052.74 2796.42 3052.74C2799.43 3052.74 2802.85 3051.97 2806.69 3050.43C2807.14 3052.29 2807.17 3054.21 2806.79 3056.19C2806.4 3058.11 2805.8 3059.74 2804.96 3061.09C2804.13 3062.43 2803.08 3063.58 2801.8 3064.54C2798.72 3066.85 2794.28 3068 2788.45 3068C2779.49 3068 2772.84 3064.99 2768.48 3058.98C2766.88 3056.74 2765.57 3053.79 2764.55 3050.14C2763.52 3046.43 2763.01 3042.21 2763.01 3037.47C2763.01 3029.22 2764.61 3022.46 2767.81 3017.22C2771.08 3011.97 2775.04 3008.19 2779.72 3005.89C2780.36 3004.48 2781.41 3003.14 2782.88 3001.86C2784.42 3000.58 2786.47 2999.94 2789.03 2999.94C2791.65 2999.94 2794.63 3000.83 2797.96 3002.62C2801.28 3004.35 2804.13 3005.22 2806.5 3005.22ZM2842.03 3047.65C2844.52 3048.61 2845.77 3051.14 2845.77 3055.23C2845.77 3058.11 2844.94 3060.96 2843.28 3063.78C2841.61 3066.59 2839.37 3068 2836.56 3068L2820.33 3067.23C2817.84 3067.23 2815.63 3067.49 2813.71 3068C2811.4 3064.8 2810.25 3061.5 2810.25 3058.11C2810.25 3054.72 2811.66 3052.8 2814.48 3052.35L2811.69 3003.1C2816.36 3000.22 2820.43 2998.78 2823.88 2998.78C2827.34 2998.78 2830 2999.78 2831.85 3001.76C2833.77 3003.68 2834.73 3007.17 2834.73 3012.22C2834.73 3024.06 2834.25 3036.61 2833.29 3049.86L2842.03 3047.65ZM2899.48 3064.93C2899.03 3065.38 2897.95 3066.02 2896.22 3066.85C2894.55 3067.62 2892.51 3068 2890.07 3068C2884.76 3068 2881.4 3064.03 2879.99 3056.1C2877.75 3056.35 2875.07 3056.48 2871.93 3056.48C2868.86 3056.48 2866.91 3056.38 2866.07 3056.19C2865.24 3060.48 2864.06 3063.52 2862.52 3065.31C2861.05 3067.1 2858.81 3068 2855.8 3068C2854.33 3068 2852.92 3067.74 2851.58 3067.23C2850.23 3066.72 2849.27 3066.21 2848.7 3065.7L2847.74 3064.93C2850.23 3034.85 2853.75 3016.67 2858.3 3010.4C2859.96 3008.22 2861.5 3006.88 2862.91 3006.37C2864.31 3005.79 2865.63 3005.5 2866.84 3005.5C2868.06 3005.5 2868.83 3005.54 2869.15 3005.6C2869.47 3005.6 2869.69 3005.6 2869.82 3005.6L2869.43 3003.68C2869.63 3003.42 2869.88 3003.1 2870.2 3002.72C2870.59 3002.27 2871.55 3001.7 2873.08 3000.99C2874.62 3000.29 2876.41 2999.94 2878.46 2999.94C2882.68 2999.94 2886.01 3001.54 2888.44 3004.74C2890.94 3007.87 2893.15 3014.02 2895.07 3023.17C2897.05 3032.26 2898.91 3045.76 2900.63 3063.68C2900.38 3064 2899.99 3064.42 2899.48 3064.93ZM2867.71 3045.15C2869.75 3044.9 2871.9 3044.77 2874.14 3044.77C2876.38 3044.77 2877.66 3044.8 2877.98 3044.86C2875.67 3033.22 2873.66 3023.36 2871.93 3015.3C2870.33 3024.13 2868.92 3034.08 2867.71 3045.15Z" fill="#FFC73C" fill-opacity="0.56"/>
</g>
<rect x="2429.94" y="2426.5" width="463" height="625" stroke="#218ABE" stroke-width="5"/>
<mask id="path-5-inside-1_187_348" fill="white">
<path d="M2452.44 2460C2452.44 2452.27 2458.71 2446 2466.44 2446H2858.44C2866.17 2446 2872.44 2452.27 2872.44 2460V2840C2872.44 2847.73 2866.17 2854 2858.44 2854H2466.44C2458.71 2854 2452.44 2847.73 2452.44 2840V2460Z"/>
</mask>
<path d="M2450.44 2460C2450.44 2451.16 2457.6 2444 2466.44 2444H2858.44C2867.27 2444 2874.44 2451.16 2874.44 2460H2870.44C2870.44 2453.37 2865.07 2448 2858.44 2448H2466.44C2459.81 2448 2454.44 2453.37 2454.44 2460H2450.44ZM2872.44 2854H2452.44H2872.44ZM2466.44 2854C2457.6 2854 2450.44 2846.84 2450.44 2838V2460C2450.44 2451.16 2457.6 2444 2466.44 2444V2448C2459.81 2448 2454.44 2453.37 2454.44 2460V2840C2454.44 2847.73 2459.81 2854 2466.44 2854ZM2858.44 2444C2867.27 2444 2874.44 2451.16 2874.44 2460V2838C2874.44 2846.84 2867.27 2854 2858.44 2854C2865.07 2854 2870.44 2847.73 2870.44 2840V2460C2870.44 2453.37 2865.07 2448 2858.44 2448V2444Z" fill="#FFD100" mask="url(#path-5-inside-1_187_348)"/>
<rect x="2413.44" y="2878" width="373" height="89" fill="#C1E6F8" fill-opacity="0.54"/>
<path d="M2462.47 2891.5V2893.12L2448.32 2891.5H2462.47ZM2462.47 2894.96V2896.58L2448.32 2894.96H2462.47ZM2462.47 2898.41V2900.03L2448.32 2898.41H2462.47ZM2462.47 2901.87V2903.49L2448.32 2901.87H2462.47ZM2462.47 2905.32V2906.94L2448.32 2905.32H2462.47ZM2462.47 2908.78V2910.4L2448.32 2908.78H2462.47ZM2462.47 2912.27V2913.89L2448.32 2912.27H2462.47ZM2475.25 2914V2905.72H2474.85L2471.86 2914H2463.55V2891.5H2470.71L2470.06 2904.06H2470.28L2474.96 2891.5H2480.39V2904.06H2480.61L2484.46 2891.5H2491.63L2484.32 2914H2475.25ZM2508.52 2894.6C2511.11 2894.6 2512.96 2895.1 2514.06 2896.11C2515.16 2897.09 2515.72 2898.64 2515.72 2900.75C2515.72 2901.78 2515.58 2903.03 2515.32 2904.5C2514.72 2907.95 2513.66 2910.47 2512.15 2912.06C2510.64 2913.64 2508.26 2914.43 2505.02 2914.43C2502.48 2914.43 2500.67 2913.94 2499.59 2912.96C2498.51 2911.95 2497.97 2910.4 2497.97 2908.31C2497.97 2907.23 2498.1 2905.96 2498.36 2904.5C2498.96 2901.04 2500.01 2898.53 2501.5 2896.97C2502.98 2895.39 2505.32 2894.6 2508.52 2894.6ZM2506.07 2908.96C2506.76 2908.96 2507.28 2908.88 2507.62 2908.71C2507.98 2908.54 2508.22 2908.17 2508.34 2907.59L2509.7 2900.07H2507.51C2506.84 2900.07 2506.31 2900.15 2505.92 2900.32C2505.56 2900.49 2505.35 2900.85 2505.28 2901.4L2503.94 2908.96H2506.07ZM2497.1 2905.32C2497.01 2906.07 2496.95 2906.57 2496.92 2906.84L2482.74 2905.32H2497.1ZM2497.79 2901.87L2497.46 2903.38L2483.39 2901.87H2497.79ZM2496.89 2908.78C2496.89 2909.16 2496.94 2909.67 2497.03 2910.29L2482.88 2908.78H2496.89ZM2499.05 2898.41C2498.76 2899.04 2498.56 2899.52 2498.44 2899.85L2484.83 2898.41H2499.05ZM2497.64 2912.27C2497.93 2912.85 2498.24 2913.29 2498.58 2913.6L2486.02 2912.27H2497.64ZM2502.18 2894.96C2501.6 2895.29 2501.11 2895.69 2500.7 2896.14L2489.65 2894.96H2502.18ZM2538.21 2914H2533.46L2532.92 2906.26H2532.74L2531.01 2914H2524.85L2529.21 2894.96H2537.02L2537.56 2903.88H2537.7L2541.34 2894.96H2549.15L2546.85 2914H2540.66L2541.63 2906.26H2541.45L2538.21 2914ZM2523.66 2913.89L2508.4 2912.27H2524.02L2523.66 2913.89ZM2524.46 2910.4L2509.23 2908.78H2524.85L2524.46 2910.4ZM2525.28 2906.94L2510.06 2905.32H2525.64L2525.28 2906.94ZM2526 2903.49L2510.88 2901.87H2526.4L2526 2903.49ZM2526.83 2900.03L2511.71 2898.41H2527.19L2526.83 2900.03ZM2527.62 2896.58L2512.54 2894.96H2528.02L2527.62 2896.58ZM2570.08 2906.26H2564.72L2564.29 2908.71H2570.95L2570.01 2914H2557.3L2560.61 2894.96H2573.29L2571.59 2900.36H2565.73L2565.29 2902.8H2570.69L2570.08 2906.26ZM2556.11 2913.89L2540.85 2912.27H2556.4L2556.11 2913.89ZM2557.34 2906.94L2542.07 2905.32H2557.63L2557.34 2906.94ZM2557.95 2903.49L2542.69 2901.87H2558.24L2557.95 2903.49ZM2558.56 2900.03L2543.3 2898.41H2558.85L2558.56 2900.03ZM2559.17 2896.58L2543.91 2894.96H2559.43L2559.17 2896.58ZM2556.73 2910.4L2541.46 2908.78H2557.01L2556.73 2910.4ZM2592.09 2914L2588.38 2906.87H2588.23L2586.97 2914H2580.93L2584.24 2894.96H2589.13L2592.88 2902.05H2593.09L2594.32 2894.96H2600.33L2596.98 2914H2592.09ZM2579.74 2913.89L2564.47 2912.27H2580.03L2579.74 2913.89ZM2580.96 2906.94L2565.7 2905.32H2581.25L2580.96 2906.94ZM2581.57 2903.49L2566.31 2901.87H2581.86L2581.57 2903.49ZM2582.19 2900.03L2566.92 2898.41H2582.47L2582.19 2900.03ZM2582.8 2896.58L2567.53 2894.96H2583.05L2582.8 2896.58ZM2580.35 2910.4L2565.09 2908.78H2580.64L2580.35 2910.4ZM2608.2 2896.32V2896.58L2596.53 2894.96H2608.38C2608.26 2895.2 2608.2 2895.65 2608.2 2896.32ZM2607.69 2903.45L2596.43 2901.87H2608.31L2607.69 2903.45ZM2609.53 2898.81L2609.06 2900L2597.69 2898.41H2608.92C2609.04 2898.56 2609.24 2898.69 2609.53 2898.81ZM2609.39 2895.35C2609.67 2893.91 2610.12 2892.92 2610.72 2892.36C2611.32 2891.79 2612.28 2891.5 2613.6 2891.5C2614.92 2891.5 2615.81 2891.68 2616.26 2892.04C2616.74 2892.4 2616.98 2893 2616.98 2893.84C2616.98 2895.5 2616.31 2897.37 2614.97 2899.46L2611.8 2904.35L2608.92 2903.31L2610.93 2898.12C2609.83 2897.93 2609.28 2897.33 2609.28 2896.32C2609.28 2896.04 2609.31 2895.71 2609.39 2895.35ZM2609.17 2912.27H2624.72L2624.22 2913.89L2609.17 2912.27ZM2627.46 2898.41C2627.31 2898.8 2627.16 2899.34 2626.99 2900.03L2611.94 2898.41H2627.46ZM2626.56 2903.2V2903.49L2611.29 2901.87H2626.63C2626.58 2902.44 2626.56 2902.89 2626.56 2903.2ZM2625.37 2910.36L2610.36 2908.78H2625.87L2625.37 2910.36ZM2629.94 2894.96C2629.29 2895.44 2628.8 2895.94 2628.47 2896.47L2614.43 2894.96H2629.94ZM2626.88 2905.32C2627.1 2905.95 2627.45 2906.49 2627.93 2906.94L2612.7 2905.32H2626.88ZM2641.25 2900.61C2639.61 2900.22 2638.22 2900.03 2637.07 2900.03C2635.92 2900.03 2635.07 2900.07 2634.51 2900.14L2634.33 2901.18L2636.13 2901.4C2640 2901.9 2641.93 2903.5 2641.93 2906.19C2641.93 2906.5 2641.86 2907.09 2641.71 2907.95C2641.57 2908.79 2641.33 2909.61 2640.99 2910.4C2640.66 2911.19 2640.23 2911.84 2639.7 2912.34C2639.19 2912.82 2638.69 2913.22 2638.19 2913.53C2637.71 2913.82 2637.08 2914.02 2636.31 2914.14C2635.11 2914.34 2633.51 2914.43 2631.49 2914.43C2629.5 2914.43 2627.48 2914.16 2625.44 2913.6L2627.21 2908.28C2629.08 2908.8 2630.71 2909.07 2632.1 2909.07C2633.52 2909.07 2634.51 2909.03 2635.09 2908.96L2635.27 2907.81L2633 2907.56C2631.06 2907.34 2629.68 2906.88 2628.86 2906.19C2628.05 2905.49 2627.64 2904.5 2627.64 2903.2C2627.64 2902.72 2627.7 2902.12 2627.82 2901.4C2628.3 2898.83 2629.16 2897.06 2630.41 2896.07C2631.66 2895.09 2633.55 2894.6 2636.1 2894.6C2638.67 2894.6 2640.96 2894.85 2642.97 2895.35L2641.25 2900.61ZM2476.83 2929.5C2478.56 2929.5 2479.81 2929.8 2480.57 2930.4C2481.37 2931 2481.76 2931.92 2481.76 2933.17C2481.76 2935 2481.35 2936.5 2480.54 2937.67C2479.75 2938.85 2478.77 2939.58 2477.62 2939.87L2477.59 2940.08C2479.75 2940.49 2480.83 2941.92 2480.83 2944.37C2480.83 2946.53 2480.24 2948.34 2479.06 2949.8C2477.89 2951.27 2476.23 2952 2474.09 2952H2461.78L2465.74 2929.5H2476.83ZM2472.87 2943.04H2470.17L2469.52 2946.71H2472.19C2472.79 2946.71 2473.24 2946.47 2473.55 2945.99C2473.87 2945.51 2474.02 2944.9 2474.02 2944.15C2474.02 2943.41 2473.64 2943.04 2472.87 2943.04ZM2473.88 2934.43H2471.72L2471.11 2937.78H2473.23C2474.33 2937.78 2474.89 2937 2474.89 2935.44C2474.89 2934.77 2474.55 2934.43 2473.88 2934.43ZM2460.7 2951.89L2445.44 2950.27H2460.99L2460.7 2951.89ZM2461.93 2944.94L2446.66 2943.32H2462.21L2461.93 2944.94ZM2462.54 2941.49L2447.27 2939.87H2462.83L2462.54 2941.49ZM2463.15 2938.03L2447.89 2936.41H2463.44L2463.15 2938.03ZM2463.76 2934.58L2448.5 2932.96H2464.01L2463.76 2934.58ZM2461.31 2948.4L2446.05 2946.78H2461.6L2461.31 2948.4ZM2464.34 2931.12L2449.11 2929.5H2464.63L2464.34 2931.12ZM2501.25 2952L2501.11 2949.08H2496.57L2495.46 2952H2489.23L2497.22 2932.96H2506.15L2507.55 2952H2501.25ZM2501.11 2943.94V2938.46H2500.6L2498.48 2943.94H2501.11ZM2488.08 2951.86L2473.32 2950.27H2488.76L2488.08 2951.86ZM2489.55 2948.36L2474.79 2946.78H2490.24L2489.55 2948.36ZM2491.03 2944.91L2476.27 2943.32H2491.68L2491.03 2944.91ZM2492.47 2941.45L2477.74 2939.87H2493.15L2492.47 2941.45ZM2493.94 2938L2479.22 2936.41H2494.59L2493.94 2938ZM2495.38 2934.5L2480.7 2932.96H2496.03L2495.38 2934.5ZM2501.03 2950.27H2516.58L2516.08 2951.89L2501.03 2950.27ZM2519.32 2936.41C2519.17 2936.8 2519.02 2937.34 2518.85 2938.03L2503.8 2936.41H2519.32ZM2518.42 2941.2V2941.49L2503.15 2939.87H2518.49C2518.44 2940.44 2518.42 2940.89 2518.42 2941.2ZM2517.23 2948.36L2502.22 2946.78H2517.73L2517.23 2948.36ZM2521.8 2932.96C2521.15 2933.44 2520.66 2933.94 2520.33 2934.47L2506.29 2932.96H2521.8ZM2518.74 2943.32C2518.96 2943.95 2519.31 2944.49 2519.79 2944.94L2504.56 2943.32H2518.74ZM2533.11 2938.61C2531.47 2938.22 2530.08 2938.03 2528.93 2938.03C2527.78 2938.03 2526.93 2938.07 2526.37 2938.14L2526.19 2939.18L2527.99 2939.4C2531.86 2939.9 2533.79 2941.5 2533.79 2944.19C2533.79 2944.5 2533.72 2945.09 2533.57 2945.95C2533.43 2946.79 2533.19 2947.61 2532.85 2948.4C2532.52 2949.19 2532.09 2949.84 2531.56 2950.34C2531.05 2950.82 2530.55 2951.22 2530.05 2951.53C2529.57 2951.82 2528.94 2952.02 2528.17 2952.14C2526.97 2952.34 2525.37 2952.43 2523.35 2952.43C2521.36 2952.43 2519.34 2952.16 2517.3 2951.6L2519.07 2946.28C2520.94 2946.8 2522.57 2947.07 2523.96 2947.07C2525.38 2947.07 2526.37 2947.03 2526.95 2946.96L2527.13 2945.81L2524.86 2945.56C2522.92 2945.34 2521.54 2944.88 2520.72 2944.19C2519.91 2943.49 2519.5 2942.5 2519.5 2941.2C2519.5 2940.72 2519.56 2940.12 2519.68 2939.4C2520.16 2936.83 2521.02 2935.06 2522.27 2934.07C2523.52 2933.09 2525.41 2932.6 2527.96 2932.6C2530.53 2932.6 2532.82 2932.85 2534.83 2933.35L2533.11 2938.61ZM2551.82 2952L2550.13 2945.77H2549.91L2548.83 2952H2542.78L2546.09 2932.96H2552.18L2551.13 2938.79H2551.31L2555.02 2932.96H2561.61L2555.56 2942.28L2558.41 2952H2551.82ZM2541.59 2951.89L2526.33 2950.27H2541.88L2541.59 2951.89ZM2542.82 2944.94L2527.55 2943.32H2543.11L2542.82 2944.94ZM2543.43 2941.49L2528.17 2939.87H2543.72L2543.43 2941.49ZM2544.04 2938.03L2528.78 2936.41H2544.33L2544.04 2938.03ZM2544.65 2934.58L2529.39 2932.96H2544.91L2544.65 2934.58ZM2542.21 2948.4L2526.94 2946.78H2542.49L2542.21 2948.4ZM2580.66 2944.26H2575.3L2574.87 2946.71H2581.53L2580.59 2952H2567.88L2571.2 2932.96H2583.87L2582.18 2938.36H2576.31L2575.88 2940.8H2581.28L2580.66 2944.26ZM2566.7 2951.89L2551.43 2950.27H2566.98L2566.7 2951.89ZM2567.92 2944.94L2552.66 2943.32H2568.21L2567.92 2944.94ZM2568.53 2941.49L2553.27 2939.87H2568.82L2568.53 2941.49ZM2569.14 2938.03L2553.88 2936.41H2569.43L2569.14 2938.03ZM2569.76 2934.58L2554.49 2932.96H2570.01L2569.76 2934.58ZM2567.31 2948.4L2552.04 2946.78H2567.6L2567.31 2948.4ZM2606.74 2938.36H2602.85L2600.47 2952H2594.14L2596.51 2938.36H2592.52L2593.49 2932.96H2607.71L2606.74 2938.36ZM2593.06 2951.89L2577.79 2950.27H2593.34L2593.06 2951.89ZM2594.28 2944.94L2579.02 2943.32H2594.57L2594.28 2944.94ZM2594.89 2941.49L2579.63 2939.87H2595.18L2594.89 2941.49ZM2591.44 2938.03L2576.17 2936.41H2591.72L2591.44 2938.03ZM2592.05 2934.58L2576.78 2932.96H2592.3L2592.05 2934.58ZM2593.67 2948.4L2578.4 2946.78H2593.96L2593.67 2948.4ZM2626.97 2932.96C2629.71 2932.96 2631.07 2934.08 2631.07 2936.34C2631.07 2937.59 2630.77 2938.72 2630.17 2939.72C2629.6 2940.73 2628.89 2941.43 2628.05 2941.81L2628.01 2942.03C2629.6 2942.53 2630.39 2943.62 2630.39 2945.3C2630.39 2947.42 2629.81 2949.06 2628.66 2950.24C2627.53 2951.41 2625.82 2952 2623.51 2952H2613.94L2617.25 2932.96H2626.97ZM2623.51 2944.62H2621.28L2620.81 2947.28H2623.05C2623.89 2947.28 2624.31 2946.67 2624.31 2945.45C2624.31 2944.9 2624.04 2944.62 2623.51 2944.62ZM2624.45 2937.53H2622.51L2622.11 2939.83H2624.09C2624.81 2939.83 2625.17 2939.3 2625.17 2938.25C2625.17 2937.77 2624.93 2937.53 2624.45 2937.53ZM2612.79 2951.89L2597.52 2950.27H2613.07L2612.79 2951.89ZM2614.01 2944.94L2598.75 2943.32H2614.3L2614.01 2944.94ZM2614.62 2941.49L2599.36 2939.87H2614.91L2614.62 2941.49ZM2615.23 2938.03L2599.97 2936.41H2615.52L2615.23 2938.03ZM2615.85 2934.58L2600.58 2932.96H2616.1L2615.85 2934.58ZM2613.4 2948.4L2598.13 2946.78H2613.69L2613.4 2948.4ZM2651.23 2952L2651.09 2949.08H2646.55L2645.43 2952H2639.21L2647.2 2932.96H2656.13L2657.53 2952H2651.23ZM2651.09 2943.94V2938.46H2650.58L2648.46 2943.94H2651.09ZM2638.05 2951.86L2623.29 2950.27H2638.74L2638.05 2951.86ZM2639.53 2948.36L2624.77 2946.78H2640.21L2639.53 2948.36ZM2641.01 2944.91L2626.25 2943.32H2641.65L2641.01 2944.91ZM2642.45 2941.45L2627.72 2939.87H2643.13L2642.45 2941.45ZM2643.92 2938L2629.2 2936.41H2644.57L2643.92 2938ZM2645.36 2934.5L2630.67 2932.96H2646.01L2645.36 2934.5ZM2678.62 2952H2666.92L2670.23 2932.96H2676.57L2674.15 2946.71H2679.55L2678.62 2952ZM2665.73 2951.89L2650.47 2950.27H2666.02L2665.73 2951.89ZM2666.95 2944.94L2651.69 2943.32H2667.24L2666.95 2944.94ZM2667.57 2941.49L2652.3 2939.87H2667.85L2667.57 2941.49ZM2668.18 2938.03L2652.91 2936.41H2668.47L2668.18 2938.03ZM2668.79 2934.58L2653.53 2932.96H2669.04L2668.79 2934.58ZM2666.34 2948.4L2651.08 2946.78H2666.63L2666.34 2948.4ZM2699.04 2952H2687.34L2690.66 2932.96H2696.99L2694.58 2946.71H2699.98L2699.04 2952ZM2686.16 2951.89L2670.89 2950.27H2686.44L2686.16 2951.89ZM2687.38 2944.94L2672.12 2943.32H2687.67L2687.38 2944.94ZM2687.99 2941.49L2672.73 2939.87H2688.28L2687.99 2941.49ZM2688.6 2938.03L2673.34 2936.41H2688.89L2688.6 2938.03ZM2689.22 2934.58L2673.95 2932.96H2689.47L2689.22 2934.58ZM2686.77 2948.4L2671.5 2946.78H2687.06L2686.77 2948.4Z" fill="#023047"/>
<path d="M2820.2 2538H2840.21C2841.23 2538 2842.16 2538.25 2843 2538.75C2843.86 2539.23 2844.54 2539.9 2845.04 2540.76C2845.54 2541.6 2845.79 2542.53 2845.79 2543.55C2845.79 2544.53 2845.55 2545.46 2845.07 2546.34C2844.59 2547.22 2843.95 2547.93 2843.15 2548.47C2843.95 2549.03 2844.59 2549.76 2845.07 2550.66C2845.55 2551.54 2845.79 2552.47 2845.79 2553.45C2845.79 2554.45 2845.54 2555.38 2845.04 2556.24C2844.54 2557.08 2843.86 2557.75 2843 2558.25C2842.16 2558.75 2841.23 2559 2840.21 2559H2820.2V2538ZM2831.18 2547.63C2831.9 2547.63 2832.56 2547.46 2833.16 2547.12C2833.78 2546.76 2834.26 2546.28 2834.6 2545.68C2834.96 2545.06 2835.14 2544.4 2835.14 2543.7C2835.14 2542.98 2834.96 2542.32 2834.6 2541.72C2834.26 2541.1 2833.78 2540.61 2833.16 2540.25C2832.56 2539.89 2831.9 2539.71 2831.18 2539.71H2830.73V2547.6C2830.83 2547.62 2830.98 2547.63 2831.18 2547.63ZM2831.18 2557.26C2831.9 2557.26 2832.56 2557.09 2833.16 2556.75C2833.78 2556.39 2834.26 2555.91 2834.6 2555.31C2834.96 2554.69 2835.14 2554.02 2835.14 2553.3C2835.14 2552.6 2834.96 2551.95 2834.6 2551.35C2834.26 2550.73 2833.78 2550.25 2833.16 2549.91C2832.56 2549.55 2831.9 2549.37 2831.18 2549.37H2830.73V2557.23C2830.83 2557.25 2830.98 2557.26 2831.18 2557.26ZM2820.17 2577H2840.24C2841.22 2577 2842.12 2577.25 2842.94 2577.75C2843.78 2578.23 2844.44 2578.89 2844.92 2579.73C2845.42 2580.55 2845.67 2581.45 2845.67 2582.43C2845.67 2583.73 2845.27 2584.91 2844.47 2585.97C2843.67 2587.03 2842.66 2587.71 2841.44 2588.01C2842.52 2588.31 2843.4 2588.88 2844.08 2589.72C2844.78 2590.56 2845.13 2591.51 2845.13 2592.57V2598H2835.08V2591.49C2835.08 2590.85 2834.96 2590.35 2834.72 2589.99C2834.44 2589.57 2834.12 2589.26 2833.76 2589.06C2833.36 2588.84 2832.91 2588.68 2832.41 2588.58C2831.89 2588.48 2831.4 2588.42 2830.94 2588.4L2830.13 2588.37V2598H2820.17V2577ZM2831.18 2586.63C2831.9 2586.63 2832.56 2586.46 2833.16 2586.12C2833.78 2585.76 2834.26 2585.28 2834.6 2584.68C2834.96 2584.06 2835.14 2583.4 2835.14 2582.7C2835.14 2581.98 2834.96 2581.32 2834.6 2580.72C2834.26 2580.1 2833.78 2579.61 2833.16 2579.25C2832.56 2578.89 2831.9 2578.71 2831.18 2578.71H2830.13V2586.66L2831.18 2586.63ZM2832.94 2637.15C2829.32 2637.15 2826.73 2636.62 2825.17 2635.56C2823.63 2634.5 2822.86 2632.88 2822.86 2630.7V2616H2834.32V2630.7C2834.32 2632.12 2834.63 2633.16 2835.25 2633.82C2835.89 2634.46 2836.73 2634.78 2837.77 2634.78C2840.09 2634.78 2841.25 2633.42 2841.25 2630.7V2616H2843.02V2630.7C2843.02 2632.4 2842.66 2633.72 2841.94 2634.66C2841.22 2635.58 2840.14 2636.23 2838.7 2636.61C2837.26 2636.97 2835.34 2637.15 2832.94 2637.15ZM2828.04 2655H2837.82V2676H2828.04V2655ZM2823.25 2694H2832.07L2840.83 2704.5V2694H2842.63V2715H2835.58L2825.08 2701.02V2715H2823.25V2694ZM2837.39 2740.53C2839.77 2741.17 2841.55 2742.02 2842.73 2743.08C2843.91 2744.12 2844.5 2745.48 2844.5 2747.16C2844.5 2748.5 2844.08 2749.7 2843.24 2750.76C2842.4 2751.82 2841.16 2752.65 2839.52 2753.25C2837.9 2753.85 2835.93 2754.15 2833.61 2754.15C2830.87 2754.15 2828.45 2753.8 2826.35 2753.1C2824.27 2752.38 2822.64 2751.51 2821.46 2750.49L2822.45 2749.14C2823.49 2749.96 2824.8 2750.66 2826.38 2751.24C2827.96 2751.82 2829.66 2752.11 2831.48 2752.11C2832.66 2752.11 2833.55 2751.94 2834.15 2751.6C2834.77 2751.26 2835.08 2750.78 2835.08 2750.16C2835.08 2749.08 2834.01 2748.24 2831.87 2747.64L2827.97 2746.5C2825.85 2745.86 2824.21 2744.97 2823.05 2743.83C2821.91 2742.69 2821.34 2741.34 2821.34 2739.78C2821.34 2738.48 2821.75 2737.3 2822.57 2736.24C2823.39 2735.18 2824.58 2734.35 2826.14 2733.75C2827.72 2733.13 2829.61 2732.82 2831.81 2732.82C2833.91 2732.82 2835.84 2733.06 2837.6 2733.54C2839.38 2734.02 2840.83 2734.6 2841.95 2735.28L2840.96 2736.66C2840.02 2736.12 2838.89 2735.66 2837.57 2735.28C2836.27 2734.9 2834.9 2734.71 2833.46 2734.71C2832.2 2734.71 2831.23 2734.91 2830.55 2735.31C2829.89 2735.69 2829.56 2736.22 2829.56 2736.9C2829.56 2737.42 2829.81 2737.88 2830.31 2738.28C2830.81 2738.66 2831.76 2739.04 2833.16 2739.42L2837.39 2740.53Z" fill="#98D6F2" fill-opacity="0.52"/>
<g filter="url(#filter2_dddddd_187_348)">
<path fill-rule="evenodd" clip-rule="evenodd" d="M2927.41 3101L2940.62 3097.06L2904.14 3011.03L2941.25 2871.81L2904.24 2767.53L2941.44 2682.15L2904.27 2588.62L2941.31 2501.25L2903.67 2369L2890.03 2371.73L2926.71 2500.6L2889.44 2588.49L2926.59 2681.97L2889.47 2767.15L2926.77 2872.23L2889.57 3011.77L2927.41 3101Z" fill="#60BBE5" fill-opacity="0.4"/>
<path fill-rule="evenodd" clip-rule="evenodd" d="M2927.41 3101L2940.62 3097.06L2904.14 3011.03L2941.25 2871.81L2904.24 2767.53L2941.44 2682.15L2904.27 2588.62L2941.31 2501.25L2903.67 2369L2890.03 2371.73L2926.71 2500.6L2889.44 2588.49L2926.59 2681.97L2889.47 2767.15L2926.77 2872.23L2889.57 3011.77L2927.41 3101Z" fill="white"/>
</g>
<g filter="url(#filter3_dddddd_187_348)">
<path fill-rule="evenodd" clip-rule="evenodd" d="M2927 2956.19L2863.44 3083.4L2876.19 3088L2941.53 2957.24L2899.4 2805.22L2967.44 2713.42L2900.3 2625.77L2949.6 2563.49L2899.28 2445.89L2928.43 2362.35L2915.15 2359L2884.7 2446.26L2934.17 2561.89L2883.68 2625.66L2950.98 2713.52L2884.58 2803.12L2927 2956.19Z" fill="white"/>
</g>
<g filter="url(#filter4_dddddd_187_348)">
<path fill-rule="evenodd" clip-rule="evenodd" d="M2353.34 2394.07L2356.39 2405.22L2425.91 2375.76L2537.52 2408.84L2621.73 2379.19L2690.04 2411.6L2765.61 2381.67L2835.52 2413.98L2942.23 2384.19L2940.16 2372.7L2836.18 2401.73L2765.85 2369.22L2690.32 2399.13L2622.17 2366.79L2537.32 2396.68L2425.44 2363.52L2353.34 2394.07Z" fill="#60BBE5" fill-opacity="0.4"/>
<path fill-rule="evenodd" clip-rule="evenodd" d="M2353.34 2394.07L2356.39 2405.22L2425.91 2375.76L2537.52 2408.84L2621.73 2379.19L2690.04 2411.6L2765.61 2381.67L2835.52 2413.98L2942.23 2384.19L2940.16 2372.7L2836.18 2401.73L2765.85 2369.22L2690.32 2399.13L2622.17 2366.79L2537.32 2396.68L2425.44 2363.52L2353.34 2394.07Z" fill="white"/>
</g>
<g filter="url(#filter5_dddddd_187_348)">
<path fill-rule="evenodd" clip-rule="evenodd" d="M2470.54 2395.81L2368.99 2340.06L2365.17 2350.84L2469.56 2408.14L2592.03 2374.44L2665.11 2433.5L2736.12 2377.66L2785.66 2420.41L2880.57 2379.27L2947.38 2405.18L2950.2 2393.93L2880.41 2366.87L2787.1 2407.31L2736.36 2363.54L2665.18 2419.52L2593.85 2361.87L2470.54 2395.81Z" fill="white"/>
</g>
<g filter="url(#filter6_dddddd_187_348)">
<path fill-rule="evenodd" clip-rule="evenodd" d="M2942.04 3079.93L2938.99 3068.78L2869.47 3098.24L2757.85 3065.16L2673.65 3094.81L2605.33 3062.4L2529.77 3092.33L2459.86 3060.02L2353.15 3089.81L2355.22 3101.3L2459.19 3072.27L2529.53 3104.78L2605.05 3074.87L2673.21 3107.21L2758.06 3077.32L2869.93 3110.48L2942.04 3079.93Z" fill="#60BBE5" fill-opacity="0.4"/>
<path fill-rule="evenodd" clip-rule="evenodd" d="M2942.04 3079.93L2938.99 3068.78L2869.47 3098.24L2757.85 3065.16L2673.65 3094.81L2605.33 3062.4L2529.77 3092.33L2459.86 3060.02L2353.15 3089.81L2355.22 3101.3L2459.19 3072.27L2529.53 3104.78L2605.05 3074.87L2673.21 3107.21L2758.06 3077.32L2869.93 3110.48L2942.04 3079.93Z" fill="white"/>
</g>
<g filter="url(#filter7_dddddd_187_348)">
<path fill-rule="evenodd" clip-rule="evenodd" d="M2824.83 3078.16L2926.39 3133.94L2930.21 3123.16L2825.81 3065.83L2703.35 3099.52L2630.26 3040.43L2559.25 3096.26L2509.7 3053.5L2414.8 3094.62L2347.99 3068.7L2345.18 3079.94L2414.97 3107.02L2508.27 3066.6L2559.01 3110.38L2630.19 3054.42L2701.52 3112.08L2824.83 3078.16Z" fill="white"/>
</g>
<g filter="url(#filter8_dddddd_187_348)">
<path fill-rule="evenodd" clip-rule="evenodd" d="M2407.41 3112L2420.62 3108.06L2384.14 3022.03L2421.25 2882.81L2384.24 2778.53L2421.44 2693.15L2384.27 2599.62L2421.31 2512.25L2383.67 2380L2370.03 2382.73L2406.71 2511.6L2369.44 2599.49L2406.59 2692.97L2369.47 2778.15L2406.77 2883.23L2369.57 3022.77L2407.41 3112Z" fill="#60BBE5" fill-opacity="0.4"/>
<path fill-rule="evenodd" clip-rule="evenodd" d="M2407.41 3112L2420.62 3108.06L2384.14 3022.03L2421.25 2882.81L2384.24 2778.53L2421.44 2693.15L2384.27 2599.62L2421.31 2512.25L2383.67 2380L2370.03 2382.73L2406.71 2511.6L2369.44 2599.49L2406.59 2692.97L2369.47 2778.15L2406.77 2883.23L2369.57 3022.77L2407.41 3112Z" fill="white"/>
</g>
<g filter="url(#filter9_dddddd_187_348)">
<path fill-rule="evenodd" clip-rule="evenodd" d="M2407 2966.19L2343.44 3093.4L2356.19 3098L2421.53 2967.24L2379.4 2815.22L2447.44 2723.42L2380.3 2635.77L2429.6 2573.49L2379.28 2455.89L2408.43 2372.35L2395.15 2369L2364.7 2456.26L2414.17 2571.89L2363.68 2635.66L2430.98 2723.52L2364.58 2813.12L2407 2966.19Z" fill="white"/>
</g>
<g filter="url(#filter10_dddddd_187_348)">
<path fill-rule="evenodd" clip-rule="evenodd" d="M2369.63 2359.37C2349.59 2329.45 2326.88 2295.54 2301.44 2260.8C2336.5 2293.39 2365.04 2318.21 2387.11 2336.24C2392 2322.11 2394.94 2312.49 2394.9 2307.43C2402.24 2317.36 2410.01 2328.05 2418.2 2339.33C2439.37 2368.45 2463.36 2401.47 2490.11 2435.21C2453.48 2403.7 2423.8 2379.83 2400.98 2362.62C2395.31 2377.1 2391.85 2386.95 2391.69 2392.12C2384.73 2381.93 2377.38 2370.94 2369.63 2359.37Z" fill="#60BBE5" fill-opacity="0.4"/>
<path fill-rule="evenodd" clip-rule="evenodd" d="M2369.63 2359.37C2349.59 2329.45 2326.88 2295.54 2301.44 2260.8C2336.5 2293.39 2365.04 2318.21 2387.11 2336.24C2392 2322.11 2394.94 2312.49 2394.9 2307.43C2402.24 2317.36 2410.01 2328.05 2418.2 2339.33C2439.37 2368.45 2463.36 2401.47 2490.11 2435.21C2453.48 2403.7 2423.8 2379.83 2400.98 2362.62C2395.31 2377.1 2391.85 2386.95 2391.69 2392.12C2384.73 2381.93 2377.38 2370.94 2369.63 2359.37Z" fill="white"/>
</g>
<defs>
<filter id="filter0_f_187_348" x="2413.67" y="2402.78" width="207.465" height="81.7921" filterUnits="userSpaceOnUse" color-interpolation-filters="sRGB">
<feFlood flood-opacity="0" result="BackgroundImageFix"/>
<feBlend mode="normal" in="SourceGraphic" in2="BackgroundImageFix" result="shape"/>
<feGaussianBlur stdDeviation="3" result="effect1_foregroundBlur_187_348"/>
</filter>
<filter id="filter1_f_187_348" x="2699.17" y="2992.78" width="207.465" height="81.792" filterUnits="userSpaceOnUse" color-interpolation-filters="sRGB">
<feFlood flood-opacity="0" result="BackgroundImageFix"/>
<feBlend mode="normal" in="SourceGraphic" in2="BackgroundImageFix" result="shape"/>
<feGaussianBlur stdDeviation="3" result="effect1_foregroundBlur_187_348"/>
</filter>
<filter id="filter2_dddddd_187_348" x="537.005" y="16.5671" width="4756.87" height="5436.87" filterUnits="userSpaceOnUse" color-interpolation-filters="sRGB">
<feFlood flood-opacity="0" result="BackgroundImageFix"/>
<feColorMatrix in="SourceAlpha" type="matrix" values="0 0 0 0 0 0 0 0 0 0 0 0 0 0 0 0 0 0 127 0" result="hardAlpha"/>
<feOffset/>
<feGaussianBlur stdDeviation="28.0052"/>
<feColorMatrix type="matrix" values="0 0 0 0 0.141176 0 0 0 0 0.784314 0 0 0 0 1 0 0 0 1 0"/>
<feBlend mode="normal" in2="BackgroundImageFix" result="effect1_dropShadow_187_348"/>
<feColorMatrix in="SourceAlpha" type="matrix" values="0 0 0 0 0 0 0 0 0 0 0 0 0 0 0 0 0 0 127 0" result="hardAlpha"/>
<feOffset/>
<feGaussianBlur stdDeviation="56.0103"/>
<feColorMatrix type="matrix" values="0 0 0 0 0.141176 0 0 0 0 0.784314 0 0 0 0 1 0 0 0 1 0"/>
<feBlend mode="normal" in2="effect1_dropShadow_187_348" result="effect2_dropShadow_187_348"/>
<feColorMatrix in="SourceAlpha" type="matrix" values="0 0 0 0 0 0 0 0 0 0 0 0 0 0 0 0 0 0 127 0" result="hardAlpha"/>
<feOffset/>
<feGaussianBlur stdDeviation="196.036"/>
<feColorMatrix type="matrix" values="0 0 0 0 0.141176 0 0 0 0 0.784314 0 0 0 0 1 0 0 0 1 0"/>
<feBlend mode="normal" in2="effect2_dropShadow_187_348" result="effect3_dropShadow_187_348"/>
<feColorMatrix in="SourceAlpha" type="matrix" values="0 0 0 0 0 0 0 0 0 0 0 0 0 0 0 0 0 0 127 0" result="hardAlpha"/>
<feOffset/>
<feGaussianBlur stdDeviation="392.072"/>
<feColorMatrix type="matrix" values="0 0 0 0 0.141176 0 0 0 0 0.784314 0 0 0 0 1 0 0 0 1 0"/>
<feBlend mode="normal" in2="effect3_dropShadow_187_348" result="effect4_dropShadow_187_348"/>
<feColorMatrix in="SourceAlpha" type="matrix" values="0 0 0 0 0 0 0 0 0 0 0 0 0 0 0 0 0 0 127 0" result="hardAlpha"/>
<feOffset/>
<feGaussianBlur stdDeviation="672.124"/>
<feColorMatrix type="matrix" values="0 0 0 0 0.141176 0 0 0 0 0.784314 0 0 0 0 1 0 0 0 1 0"/>
<feBlend mode="normal" in2="effect4_dropShadow_187_348" result="effect5_dropShadow_187_348"/>
<feColorMatrix in="SourceAlpha" type="matrix" values="0 0 0 0 0 0 0 0 0 0 0 0 0 0 0 0 0 0 127 0" result="hardAlpha"/>
<feOffset/>
<feGaussianBlur stdDeviation="1176.22"/>
<feColorMatrix type="matrix" values="0 0 0 0 0.141176 0 0 0 0 0.784314 0 0 0 0 1 0 0 0 1 0"/>
<feBlend mode="normal" in2="effect5_dropShadow_187_348" result="effect6_dropShadow_187_348"/>
<feBlend mode="normal" in="SourceGraphic" in2="effect6_dropShadow_187_348" result="shape"/>
</filter>
<filter id="filter3_dddddd_187_348" x="524.087" y="19.6489" width="4782.7" height="5407.7" filterUnits="userSpaceOnUse" color-interpolation-filters="sRGB">
<feFlood flood-opacity="0" result="BackgroundImageFix"/>
<feColorMatrix in="SourceAlpha" type="matrix" values="0 0 0 0 0 0 0 0 0 0 0 0 0 0 0 0 0 0 127 0" result="hardAlpha"/>
<feOffset/>
<feGaussianBlur stdDeviation="27.8494"/>
<feColorMatrix type="matrix" values="0 0 0 0 0.101961 0 0 0 0 0.776471 0 0 0 0 1 0 0 0 1 0"/>
<feBlend mode="normal" in2="BackgroundImageFix" result="effect1_dropShadow_187_348"/>
<feColorMatrix in="SourceAlpha" type="matrix" values="0 0 0 0 0 0 0 0 0 0 0 0 0 0 0 0 0 0 127 0" result="hardAlpha"/>
<feOffset/>
<feGaussianBlur stdDeviation="55.6988"/>
<feColorMatrix type="matrix" values="0 0 0 0 0.101961 0 0 0 0 0.776471 0 0 0 0 1 0 0 0 1 0"/>
<feBlend mode="normal" in2="effect1_dropShadow_187_348" result="effect2_dropShadow_187_348"/>
<feColorMatrix in="SourceAlpha" type="matrix" values="0 0 0 0 0 0 0 0 0 0 0 0 0 0 0 0 0 0 127 0" result="hardAlpha"/>
<feOffset/>
<feGaussianBlur stdDeviation="194.946"/>
<feColorMatrix type="matrix" values="0 0 0 0 0.101961 0 0 0 0 0.776471 0 0 0 0 1 0 0 0 1 0"/>
<feBlend mode="normal" in2="effect2_dropShadow_187_348" result="effect3_dropShadow_187_348"/>
<feColorMatrix in="SourceAlpha" type="matrix" values="0 0 0 0 0 0 0 0 0 0 0 0 0 0 0 0 0 0 127 0" result="hardAlpha"/>
<feOffset/>
<feGaussianBlur stdDeviation="389.892"/>
<feColorMatrix type="matrix" values="0 0 0 0 0.101961 0 0 0 0 0.776471 0 0 0 0 1 0 0 0 1 0"/>
<feBlend mode="normal" in2="effect3_dropShadow_187_348" result="effect4_dropShadow_187_348"/>
<feColorMatrix in="SourceAlpha" type="matrix" values="0 0 0 0 0 0 0 0 0 0 0 0 0 0 0 0 0 0 127 0" result="hardAlpha"/>
<feOffset/>
<feGaussianBlur stdDeviation="668.386"/>
<feColorMatrix type="matrix" values="0 0 0 0 0.101961 0 0 0 0 0.776471 0 0 0 0 1 0 0 0 1 0"/>
<feBlend mode="normal" in2="effect4_dropShadow_187_348" result="effect5_dropShadow_187_348"/>
<feColorMatrix in="SourceAlpha" type="matrix" values="0 0 0 0 0 0 0 0 0 0 0 0 0 0 0 0 0 0 127 0" result="hardAlpha"/>
<feOffset/>
<feGaussianBlur stdDeviation="1169.68"/>
<feColorMatrix type="matrix" values="0 0 0 0 0.101961 0 0 0 0 0.776471 0 0 0 0 1 0 0 0 1 0"/>
<feBlend mode="normal" in2="effect5_dropShadow_187_348" result="effect6_dropShadow_187_348"/>
<feBlend mode="normal" in="SourceGraphic" in2="effect6_dropShadow_187_348" result="shape"/>
</filter>
<filter id="filter4_dddddd_187_348" x="0.906494" y="11.0836" width="5293.75" height="4755.33" filterUnits="userSpaceOnUse" color-interpolation-filters="sRGB">
<feFlood flood-opacity="0" result="BackgroundImageFix"/>
<feColorMatrix in="SourceAlpha" type="matrix" values="0 0 0 0 0 0 0 0 0 0 0 0 0 0 0 0 0 0 127 0" result="hardAlpha"/>
<feOffset/>
<feGaussianBlur stdDeviation="28.0052"/>
<feColorMatrix type="matrix" values="0 0 0 0 0.141176 0 0 0 0 0.784314 0 0 0 0 1 0 0 0 1 0"/>
<feBlend mode="normal" in2="BackgroundImageFix" result="effect1_dropShadow_187_348"/>
<feColorMatrix in="SourceAlpha" type="matrix" values="0 0 0 0 0 0 0 0 0 0 0 0 0 0 0 0 0 0 127 0" result="hardAlpha"/>
<feOffset/>
<feGaussianBlur stdDeviation="56.0103"/>
<feColorMatrix type="matrix" values="0 0 0 0 0.141176 0 0 0 0 0.784314 0 0 0 0 1 0 0 0 1 0"/>
<feBlend mode="normal" in2="effect1_dropShadow_187_348" result="effect2_dropShadow_187_348"/>
<feColorMatrix in="SourceAlpha" type="matrix" values="0 0 0 0 0 0 0 0 0 0 0 0 0 0 0 0 0 0 127 0" result="hardAlpha"/>
<feOffset/>
<feGaussianBlur stdDeviation="196.036"/>
<feColorMatrix type="matrix" values="0 0 0 0 0.141176 0 0 0 0 0.784314 0 0 0 0 1 0 0 0 1 0"/>
<feBlend mode="normal" in2="effect2_dropShadow_187_348" result="effect3_dropShadow_187_348"/>
<feColorMatrix in="SourceAlpha" type="matrix" values="0 0 0 0 0 0 0 0 0 0 0 0 0 0 0 0 0 0 127 0" result="hardAlpha"/>
<feOffset/>
<feGaussianBlur stdDeviation="392.072"/>
<feColorMatrix type="matrix" values="0 0 0 0 0.141176 0 0 0 0 0.784314 0 0 0 0 1 0 0 0 1 0"/>
<feBlend mode="normal" in2="effect3_dropShadow_187_348" result="effect4_dropShadow_187_348"/>
<feColorMatrix in="SourceAlpha" type="matrix" values="0 0 0 0 0 0 0 0 0 0 0 0 0 0 0 0 0 0 127 0" result="hardAlpha"/>
<feOffset/>
<feGaussianBlur stdDeviation="672.124"/>
<feColorMatrix type="matrix" values="0 0 0 0 0.141176 0 0 0 0 0.784314 0 0 0 0 1 0 0 0 1 0"/>
<feBlend mode="normal" in2="effect4_dropShadow_187_348" result="effect5_dropShadow_187_348"/>
<feColorMatrix in="SourceAlpha" type="matrix" values="0 0 0 0 0 0 0 0 0 0 0 0 0 0 0 0 0 0 127 0" result="hardAlpha"/>
<feOffset/>
<feGaussianBlur stdDeviation="1176.22"/>
<feColorMatrix type="matrix" values="0 0 0 0 0.141176 0 0 0 0 0.784314 0 0 0 0 1 0 0 0 1 0"/>
<feBlend mode="normal" in2="effect5_dropShadow_187_348" result="effect6_dropShadow_187_348"/>
<feBlend mode="normal" in="SourceGraphic" in2="effect6_dropShadow_187_348" result="shape"/>
</filter>
<filter id="filter5_dddddd_187_348" x="25.8179" y="0.712036" width="5263.73" height="4772.14" filterUnits="userSpaceOnUse" color-interpolation-filters="sRGB">
<feFlood flood-opacity="0" result="BackgroundImageFix"/>
<feColorMatrix in="SourceAlpha" type="matrix" values="0 0 0 0 0 0 0 0 0 0 0 0 0 0 0 0 0 0 127 0" result="hardAlpha"/>
<feOffset/>
<feGaussianBlur stdDeviation="27.8494"/>
<feColorMatrix type="matrix" values="0 0 0 0 0.101961 0 0 0 0 0.776471 0 0 0 0 1 0 0 0 1 0"/>
<feBlend mode="normal" in2="BackgroundImageFix" result="effect1_dropShadow_187_348"/>
<feColorMatrix in="SourceAlpha" type="matrix" values="0 0 0 0 0 0 0 0 0 0 0 0 0 0 0 0 0 0 127 0" result="hardAlpha"/>
<feOffset/>
<feGaussianBlur stdDeviation="55.6988"/>
<feColorMatrix type="matrix" values="0 0 0 0 0.101961 0 0 0 0 0.776471 0 0 0 0 1 0 0 0 1 0"/>
<feBlend mode="normal" in2="effect1_dropShadow_187_348" result="effect2_dropShadow_187_348"/>
<feColorMatrix in="SourceAlpha" type="matrix" values="0 0 0 0 0 0 0 0 0 0 0 0 0 0 0 0 0 0 127 0" result="hardAlpha"/>
<feOffset/>
<feGaussianBlur stdDeviation="194.946"/>
<feColorMatrix type="matrix" values="0 0 0 0 0.101961 0 0 0 0 0.776471 0 0 0 0 1 0 0 0 1 0"/>
<feBlend mode="normal" in2="effect2_dropShadow_187_348" result="effect3_dropShadow_187_348"/>
<feColorMatrix in="SourceAlpha" type="matrix" values="0 0 0 0 0 0 0 0 0 0 0 0 0 0 0 0 0 0 127 0" result="hardAlpha"/>
<feOffset/>
<feGaussianBlur stdDeviation="389.892"/>
<feColorMatrix type="matrix" values="0 0 0 0 0.101961 0 0 0 0 0.776471 0 0 0 0 1 0 0 0 1 0"/>
<feBlend mode="normal" in2="effect3_dropShadow_187_348" result="effect4_dropShadow_187_348"/>
<feColorMatrix in="SourceAlpha" type="matrix" values="0 0 0 0 0 0 0 0 0 0 0 0 0 0 0 0 0 0 127 0" result="hardAlpha"/>
<feOffset/>
<feGaussianBlur stdDeviation="668.386"/>
<feColorMatrix type="matrix" values="0 0 0 0 0.101961 0 0 0 0 0.776471 0 0 0 0 1 0 0 0 1 0"/>
<feBlend mode="normal" in2="effect4_dropShadow_187_348" result="effect5_dropShadow_187_348"/>
<feColorMatrix in="SourceAlpha" type="matrix" values="0 0 0 0 0 0 0 0 0 0 0 0 0 0 0 0 0 0 127 0" result="hardAlpha"/>
<feOffset/>
<feGaussianBlur stdDeviation="1169.68"/>
<feColorMatrix type="matrix" values="0 0 0 0 0.101961 0 0 0 0 0.776471 0 0 0 0 1 0 0 0 1 0"/>
<feBlend mode="normal" in2="effect5_dropShadow_187_348" result="effect6_dropShadow_187_348"/>
<feBlend mode="normal" in="SourceGraphic" in2="effect6_dropShadow_187_348" result="shape"/>
</filter>
<filter id="filter6_dddddd_187_348" x="0.718506" y="707.583" width="5293.75" height="4755.33" filterUnits="userSpaceOnUse" color-interpolation-filters="sRGB">
<feFlood flood-opacity="0" result="BackgroundImageFix"/>
<feColorMatrix in="SourceAlpha" type="matrix" values="0 0 0 0 0 0 0 0 0 0 0 0 0 0 0 0 0 0 127 0" result="hardAlpha"/>
<feOffset/>
<feGaussianBlur stdDeviation="28.0052"/>
<feColorMatrix type="matrix" values="0 0 0 0 0.141176 0 0 0 0 0.784314 0 0 0 0 1 0 0 0 1 0"/>
<feBlend mode="normal" in2="BackgroundImageFix" result="effect1_dropShadow_187_348"/>
<feColorMatrix in="SourceAlpha" type="matrix" values="0 0 0 0 0 0 0 0 0 0 0 0 0 0 0 0 0 0 127 0" result="hardAlpha"/>
<feOffset/>
<feGaussianBlur stdDeviation="56.0103"/>
<feColorMatrix type="matrix" values="0 0 0 0 0.141176 0 0 0 0 0.784314 0 0 0 0 1 0 0 0 1 0"/>
<feBlend mode="normal" in2="effect1_dropShadow_187_348" result="effect2_dropShadow_187_348"/>
<feColorMatrix in="SourceAlpha" type="matrix" values="0 0 0 0 0 0 0 0 0 0 0 0 0 0 0 0 0 0 127 0" result="hardAlpha"/>
<feOffset/>
<feGaussianBlur stdDeviation="196.036"/>
<feColorMatrix type="matrix" values="0 0 0 0 0.141176 0 0 0 0 0.784314 0 0 0 0 1 0 0 0 1 0"/>
<feBlend mode="normal" in2="effect2_dropShadow_187_348" result="effect3_dropShadow_187_348"/>
<feColorMatrix in="SourceAlpha" type="matrix" values="0 0 0 0 0 0 0 0 0 0 0 0 0 0 0 0 0 0 127 0" result="hardAlpha"/>
<feOffset/>
<feGaussianBlur stdDeviation="392.072"/>
<feColorMatrix type="matrix" values="0 0 0 0 0.141176 0 0 0 0 0.784314 0 0 0 0 1 0 0 0 1 0"/>
<feBlend mode="normal" in2="effect3_dropShadow_187_348" result="effect4_dropShadow_187_348"/>
<feColorMatrix in="SourceAlpha" type="matrix" values="0 0 0 0 0 0 0 0 0 0 0 0 0 0 0 0 0 0 127 0" result="hardAlpha"/>
<feOffset/>
<feGaussianBlur stdDeviation="672.124"/>
<feColorMatrix type="matrix" values="0 0 0 0 0.141176 0 0 0 0 0.784314 0 0 0 0 1 0 0 0 1 0"/>
<feBlend mode="normal" in2="effect4_dropShadow_187_348" result="effect5_dropShadow_187_348"/>
<feColorMatrix in="SourceAlpha" type="matrix" values="0 0 0 0 0 0 0 0 0 0 0 0 0 0 0 0 0 0 127 0" result="hardAlpha"/>
<feOffset/>
<feGaussianBlur stdDeviation="1176.22"/>
<feColorMatrix type="matrix" values="0 0 0 0 0.141176 0 0 0 0 0.784314 0 0 0 0 1 0 0 0 1 0"/>
<feBlend mode="normal" in2="effect5_dropShadow_187_348" result="effect6_dropShadow_187_348"/>
<feBlend mode="normal" in="SourceGraphic" in2="effect6_dropShadow_187_348" result="shape"/>
</filter>
<filter id="filter7_dddddd_187_348" x="5.82471" y="701.081" width="5263.73" height="4772.21" filterUnits="userSpaceOnUse" color-interpolation-filters="sRGB">
<feFlood flood-opacity="0" result="BackgroundImageFix"/>
<feColorMatrix in="SourceAlpha" type="matrix" values="0 0 0 0 0 0 0 0 0 0 0 0 0 0 0 0 0 0 127 0" result="hardAlpha"/>
<feOffset/>
<feGaussianBlur stdDeviation="27.8494"/>
<feColorMatrix type="matrix" values="0 0 0 0 0.101961 0 0 0 0 0.776471 0 0 0 0 1 0 0 0 1 0"/>
<feBlend mode="normal" in2="BackgroundImageFix" result="effect1_dropShadow_187_348"/>
<feColorMatrix in="SourceAlpha" type="matrix" values="0 0 0 0 0 0 0 0 0 0 0 0 0 0 0 0 0 0 127 0" result="hardAlpha"/>
<feOffset/>
<feGaussianBlur stdDeviation="55.6988"/>
<feColorMatrix type="matrix" values="0 0 0 0 0.101961 0 0 0 0 0.776471 0 0 0 0 1 0 0 0 1 0"/>
<feBlend mode="normal" in2="effect1_dropShadow_187_348" result="effect2_dropShadow_187_348"/>
<feColorMatrix in="SourceAlpha" type="matrix" values="0 0 0 0 0 0 0 0 0 0 0 0 0 0 0 0 0 0 127 0" result="hardAlpha"/>
<feOffset/>
<feGaussianBlur stdDeviation="194.946"/>
<feColorMatrix type="matrix" values="0 0 0 0 0.101961 0 0 0 0 0.776471 0 0 0 0 1 0 0 0 1 0"/>
<feBlend mode="normal" in2="effect2_dropShadow_187_348" result="effect3_dropShadow_187_348"/>
<feColorMatrix in="SourceAlpha" type="matrix" values="0 0 0 0 0 0 0 0 0 0 0 0 0 0 0 0 0 0 127 0" result="hardAlpha"/>
<feOffset/>
<feGaussianBlur stdDeviation="389.892"/>
<feColorMatrix type="matrix" values="0 0 0 0 0.101961 0 0 0 0 0.776471 0 0 0 0 1 0 0 0 1 0"/>
<feBlend mode="normal" in2="effect3_dropShadow_187_348" result="effect4_dropShadow_187_348"/>
<feColorMatrix in="SourceAlpha" type="matrix" values="0 0 0 0 0 0 0 0 0 0 0 0 0 0 0 0 0 0 127 0" result="hardAlpha"/>
<feOffset/>
<feGaussianBlur stdDeviation="668.386"/>
<feColorMatrix type="matrix" values="0 0 0 0 0.101961 0 0 0 0 0.776471 0 0 0 0 1 0 0 0 1 0"/>
<feBlend mode="normal" in2="effect4_dropShadow_187_348" result="effect5_dropShadow_187_348"/>
<feColorMatrix in="SourceAlpha" type="matrix" values="0 0 0 0 0 0 0 0 0 0 0 0 0 0 0 0 0 0 127 0" result="hardAlpha"/>
<feOffset/>
<feGaussianBlur stdDeviation="1169.68"/>
<feColorMatrix type="matrix" values="0 0 0 0 0.101961 0 0 0 0 0.776471 0 0 0 0 1 0 0 0 1 0"/>
<feBlend mode="normal" in2="effect5_dropShadow_187_348" result="effect6_dropShadow_187_348"/>
<feBlend mode="normal" in="SourceGraphic" in2="effect6_dropShadow_187_348" result="shape"/>
</filter>
<filter id="filter8_dddddd_187_348" x="17.0051" y="27.5671" width="4756.87" height="5436.87" filterUnits="userSpaceOnUse" color-interpolation-filters="sRGB">
<feFlood flood-opacity="0" result="BackgroundImageFix"/>
<feColorMatrix in="SourceAlpha" type="matrix" values="0 0 0 0 0 0 0 0 0 0 0 0 0 0 0 0 0 0 127 0" result="hardAlpha"/>
<feOffset/>
<feGaussianBlur stdDeviation="28.0052"/>
<feColorMatrix type="matrix" values="0 0 0 0 0.141176 0 0 0 0 0.784314 0 0 0 0 1 0 0 0 1 0"/>
<feBlend mode="normal" in2="BackgroundImageFix" result="effect1_dropShadow_187_348"/>
<feColorMatrix in="SourceAlpha" type="matrix" values="0 0 0 0 0 0 0 0 0 0 0 0 0 0 0 0 0 0 127 0" result="hardAlpha"/>
<feOffset/>
<feGaussianBlur stdDeviation="56.0103"/>
<feColorMatrix type="matrix" values="0 0 0 0 0.141176 0 0 0 0 0.784314 0 0 0 0 1 0 0 0 1 0"/>
<feBlend mode="normal" in2="effect1_dropShadow_187_348" result="effect2_dropShadow_187_348"/>
<feColorMatrix in="SourceAlpha" type="matrix" values="0 0 0 0 0 0 0 0 0 0 0 0 0 0 0 0 0 0 127 0" result="hardAlpha"/>
<feOffset/>
<feGaussianBlur stdDeviation="196.036"/>
<feColorMatrix type="matrix" values="0 0 0 0 0.141176 0 0 0 0 0.784314 0 0 0 0 1 0 0 0 1 0"/>
<feBlend mode="normal" in2="effect2_dropShadow_187_348" result="effect3_dropShadow_187_348"/>
<feColorMatrix in="SourceAlpha" type="matrix" values="0 0 0 0 0 0 0 0 0 0 0 0 0 0 0 0 0 0 127 0" result="hardAlpha"/>
<feOffset/>
<feGaussianBlur stdDeviation="392.072"/>
<feColorMatrix type="matrix" values="0 0 0 0 0.141176 0 0 0 0 0.784314 0 0 0 0 1 0 0 0 1 0"/>
<feBlend mode="normal" in2="effect3_dropShadow_187_348" result="effect4_dropShadow_187_348"/>
<feColorMatrix in="SourceAlpha" type="matrix" values="0 0 0 0 0 0 0 0 0 0 0 0 0 0 0 0 0 0 127 0" result="hardAlpha"/>
<feOffset/>
<feGaussianBlur stdDeviation="672.124"/>
<feColorMatrix type="matrix" values="0 0 0 0 0.141176 0 0 0 0 0.784314 0 0 0 0 1 0 0 0 1 0"/>
<feBlend mode="normal" in2="effect4_dropShadow_187_348" result="effect5_dropShadow_187_348"/>
<feColorMatrix in="SourceAlpha" type="matrix" values="0 0 0 0 0 0 0 0 0 0 0 0 0 0 0 0 0 0 127 0" result="hardAlpha"/>
<feOffset/>
<feGaussianBlur stdDeviation="1176.22"/>
<feColorMatrix type="matrix" values="0 0 0 0 0.141176 0 0 0 0 0.784314 0 0 0 0 1 0 0 0 1 0"/>
<feBlend mode="normal" in2="effect5_dropShadow_187_348" result="effect6_dropShadow_187_348"/>
<feBlend mode="normal" in="SourceGraphic" in2="effect6_dropShadow_187_348" result="shape"/>
</filter>
<filter id="filter9_dddddd_187_348" x="4.08691" y="29.6489" width="4782.7" height="5407.7" filterUnits="userSpaceOnUse" color-interpolation-filters="sRGB">
<feFlood flood-opacity="0" result="BackgroundImageFix"/>
<feColorMatrix in="SourceAlpha" type="matrix" values="0 0 0 0 0 0 0 0 0 0 0 0 0 0 0 0 0 0 127 0" result="hardAlpha"/>
<feOffset/>
<feGaussianBlur stdDeviation="27.8494"/>
<feColorMatrix type="matrix" values="0 0 0 0 0.101961 0 0 0 0 0.776471 0 0 0 0 1 0 0 0 1 0"/>
<feBlend mode="normal" in2="BackgroundImageFix" result="effect1_dropShadow_187_348"/>
<feColorMatrix in="SourceAlpha" type="matrix" values="0 0 0 0 0 0 0 0 0 0 0 0 0 0 0 0 0 0 127 0" result="hardAlpha"/>
<feOffset/>
<feGaussianBlur stdDeviation="55.6988"/>
<feColorMatrix type="matrix" values="0 0 0 0 0.101961 0 0 0 0 0.776471 0 0 0 0 1 0 0 0 1 0"/>
<feBlend mode="normal" in2="effect1_dropShadow_187_348" result="effect2_dropShadow_187_348"/>
<feColorMatrix in="SourceAlpha" type="matrix" values="0 0 0 0 0 0 0 0 0 0 0 0 0 0 0 0 0 0 127 0" result="hardAlpha"/>
<feOffset/>
<feGaussianBlur stdDeviation="194.946"/>
<feColorMatrix type="matrix" values="0 0 0 0 0.101961 0 0 0 0 0.776471 0 0 0 0 1 0 0 0 1 0"/>
<feBlend mode="normal" in2="effect2_dropShadow_187_348" result="effect3_dropShadow_187_348"/>
<feColorMatrix in="SourceAlpha" type="matrix" values="0 0 0 0 0 0 0 0 0 0 0 0 0 0 0 0 0 0 127 0" result="hardAlpha"/>
<feOffset/>
<feGaussianBlur stdDeviation="389.892"/>
<feColorMatrix type="matrix" values="0 0 0 0 0.101961 0 0 0 0 0.776471 0 0 0 0 1 0 0 0 1 0"/>
<feBlend mode="normal" in2="effect3_dropShadow_187_348" result="effect4_dropShadow_187_348"/>
<feColorMatrix in="SourceAlpha" type="matrix" values="0 0 0 0 0 0 0 0 0 0 0 0 0 0 0 0 0 0 127 0" result="hardAlpha"/>
<feOffset/>
<feGaussianBlur stdDeviation="668.386"/>
<feColorMatrix type="matrix" values="0 0 0 0 0.101961 0 0 0 0 0.776471 0 0 0 0 1 0 0 0 1 0"/>
<feBlend mode="normal" in2="effect4_dropShadow_187_348" result="effect5_dropShadow_187_348"/>
<feColorMatrix in="SourceAlpha" type="matrix" values="0 0 0 0 0 0 0 0 0 0 0 0 0 0 0 0 0 0 127 0" result="hardAlpha"/>
<feOffset/>
<feGaussianBlur stdDeviation="1169.68"/>
<feColorMatrix type="matrix" values="0 0 0 0 0.101961 0 0 0 0 0.776471 0 0 0 0 1 0 0 0 1 0"/>
<feBlend mode="normal" in2="effect5_dropShadow_187_348" result="effect6_dropShadow_187_348"/>
<feBlend mode="normal" in="SourceGraphic" in2="effect6_dropShadow_187_348" result="shape"/>
</filter>
<filter id="filter10_dddddd_187_348" x="1598.28" y="1557.65" width="1594.98" height="1580.71" filterUnits="userSpaceOnUse" color-interpolation-filters="sRGB">
<feFlood flood-opacity="0" result="BackgroundImageFix"/>
<feColorMatrix in="SourceAlpha" type="matrix" values="0 0 0 0 0 0 0 0 0 0 0 0 0 0 0 0 0 0 127 0" result="hardAlpha"/>
<feOffset/>
<feGaussianBlur stdDeviation="8.37089"/>
<feColorMatrix type="matrix" values="0 0 0 0 0.239216 0 0 0 0 0.733333 0 0 0 0 0.960784 0 0 0 1 0"/>
<feBlend mode="normal" in2="BackgroundImageFix" result="effect1_dropShadow_187_348"/>
<feColorMatrix in="SourceAlpha" type="matrix" values="0 0 0 0 0 0 0 0 0 0 0 0 0 0 0 0 0 0 127 0" result="hardAlpha"/>
<feOffset/>
<feGaussianBlur stdDeviation="16.7418"/>
<feColorMatrix type="matrix" values="0 0 0 0 0.239216 0 0 0 0 0.733333 0 0 0 0 0.960784 0 0 0 1 0"/>
<feBlend mode="normal" in2="effect1_dropShadow_187_348" result="effect2_dropShadow_187_348"/>
<feColorMatrix in="SourceAlpha" type="matrix" values="0 0 0 0 0 0 0 0 0 0 0 0 0 0 0 0 0 0 127 0" result="hardAlpha"/>
<feOffset/>
<feGaussianBlur stdDeviation="58.5962"/>
<feColorMatrix type="matrix" values="0 0 0 0 0.239216 0 0 0 0 0.733333 0 0 0 0 0.960784 0 0 0 1 0"/>
<feBlend mode="normal" in2="effect2_dropShadow_187_348" result="effect3_dropShadow_187_348"/>
<feColorMatrix in="SourceAlpha" type="matrix" values="0 0 0 0 0 0 0 0 0 0 0 0 0 0 0 0 0 0 127 0" result="hardAlpha"/>
<feOffset/>
<feGaussianBlur stdDeviation="117.192"/>
<feColorMatrix type="matrix" values="0 0 0 0 0.239216 0 0 0 0 0.733333 0 0 0 0 0.960784 0 0 0 1 0"/>
<feBlend mode="normal" in2="effect3_dropShadow_187_348" result="effect4_dropShadow_187_348"/>
<feColorMatrix in="SourceAlpha" type="matrix" values="0 0 0 0 0 0 0 0 0 0 0 0 0 0 0 0 0 0 127 0" result="hardAlpha"/>
<feOffset/>
<feGaussianBlur stdDeviation="200.901"/>
<feColorMatrix type="matrix" values="0 0 0 0 0.239216 0 0 0 0 0.733333 0 0 0 0 0.960784 0 0 0 1 0"/>
<feBlend mode="normal" in2="effect4_dropShadow_187_348" result="effect5_dropShadow_187_348"/>
<feColorMatrix in="SourceAlpha" type="matrix" values="0 0 0 0 0 0 0 0 0 0 0 0 0 0 0 0 0 0 127 0" result="hardAlpha"/>
<feOffset/>
<feGaussianBlur stdDeviation="351.577"/>
<feColorMatrix type="matrix" values="0 0 0 0 0.239216 0 0 0 0 0.733333 0 0 0 0 0.960784 0 0 0 1 0"/>
<feBlend mode="normal" in2="effect5_dropShadow_187_348" result="effect6_dropShadow_187_348"/>
<feBlend mode="normal" in="SourceGraphic" in2="effect6_dropShadow_187_348" result="shape"/>
</filter>
</defs>
</svg>
