<svg width="629" height="864" viewBox="0 0 629 864" fill="none" xmlns="http://www.w3.org/2000/svg">
<rect x="112" y="148" width="497" height="666" fill="#FAF5E9"/>
<g filter="url(#filter0_f_373_247)">
<path d="M118.23 185.728C118.23 182.656 118.486 179.648 118.998 176.704C119.51 173.696 120.022 171.488 120.534 170.08L121.302 167.872L119.67 160.576C120.118 159.232 121.206 157.92 122.934 156.64C124.854 155.296 127.83 154.624 131.862 154.624C135.894 154.624 138.71 155.296 140.31 156.64C141.974 157.984 142.806 159.936 142.806 162.496C142.806 163.84 142.262 167.2 141.174 172.576C140.086 177.952 139.542 183.648 139.542 189.664C139.542 195.68 140.15 200.384 141.366 203.776C142.646 207.168 144.406 208.864 146.646 208.864C148.95 208.864 150.774 207.232 152.118 203.968C153.526 200.704 154.23 195.904 154.23 189.568C154.23 183.232 153.75 177.312 152.79 171.808C151.894 166.24 150.966 162.24 150.006 159.808L148.662 156.16C148.662 155.968 148.886 155.584 149.334 155.008C149.846 154.432 150.39 153.952 150.966 153.568C152.502 152.672 154.518 152.224 157.014 152.224C167.574 152.224 172.854 161.696 172.854 180.64C172.854 188.832 171.926 195.84 170.07 201.664C168.214 207.424 165.078 212.032 160.662 215.488C156.31 218.88 150.742 220.576 143.958 220.576C135.062 220.576 128.534 217.44 124.374 211.168C120.278 204.896 118.23 196.416 118.23 185.728ZM219.562 157.216C219.882 160.224 220.042 162.24 220.042 163.264C220.042 164.288 220.01 165.344 219.946 166.432C219.946 167.52 219.722 168.64 219.274 169.792C218.826 170.88 218.218 171.936 217.45 172.96C215.978 174.944 213.322 175.936 209.482 175.936C206.858 175.936 204.714 175.328 203.05 174.112C201.45 172.832 199.914 171.008 198.442 168.64C197.098 173.312 196.426 178.784 196.426 185.056C196.426 192.736 198.314 198.368 202.09 201.952C204.01 203.808 206.474 204.736 209.482 204.736C212.49 204.736 215.914 203.968 219.754 202.432C220.202 204.288 220.234 206.208 219.85 208.192C219.466 210.112 218.858 211.744 218.026 213.088C217.194 214.432 216.138 215.584 214.858 216.544C211.786 218.848 207.338 220 201.514 220C192.554 220 185.898 216.992 181.546 210.976C179.946 208.736 178.634 205.792 177.61 202.144C176.586 198.432 176.074 194.208 176.074 189.472C176.074 181.216 177.674 174.464 180.874 169.216C184.138 163.968 188.106 160.192 192.778 157.888C193.418 156.48 194.474 155.136 195.946 153.856C197.482 152.576 199.53 151.936 202.09 151.936C204.714 151.936 207.69 152.832 211.018 154.624C214.346 156.352 217.194 157.216 219.562 157.216ZM255.091 199.648C257.587 200.608 258.835 203.136 258.835 207.232C258.835 210.112 258.003 212.96 256.339 215.776C254.675 218.592 252.435 220 249.619 220L233.395 219.232C230.899 219.232 228.691 219.488 226.771 220C224.467 216.8 223.315 213.504 223.315 210.112C223.315 206.72 224.723 204.8 227.539 204.352L224.755 155.104C229.427 152.224 233.491 150.784 236.947 150.784C240.403 150.784 243.059 151.776 244.915 153.76C246.835 155.68 247.795 159.168 247.795 164.224C247.795 176.064 247.315 188.608 246.355 201.856L255.091 199.648ZM312.543 216.928C312.095 217.376 311.007 218.016 309.279 218.848C307.615 219.616 305.567 220 303.135 220C297.823 220 294.463 216.032 293.055 208.096C290.815 208.352 288.127 208.48 284.991 208.48C281.919 208.48 279.967 208.384 279.135 208.192C278.303 212.48 277.119 215.52 275.583 217.312C274.111 219.104 271.871 220 268.863 220C267.391 220 265.983 219.744 264.639 219.232C263.295 218.72 262.335 218.208 261.759 217.696L260.799 216.928C263.295 186.848 266.815 168.672 271.359 162.4C273.023 160.224 274.559 158.88 275.967 158.368C277.375 157.792 278.687 157.504 279.903 157.504C281.119 157.504 281.887 157.536 282.207 157.6C282.527 157.6 282.751 157.6 282.879 157.6L282.495 155.68C282.687 155.424 282.943 155.104 283.263 154.72C283.647 154.272 284.607 153.696 286.143 152.992C287.679 152.288 289.471 151.936 291.519 151.936C295.743 151.936 299.071 153.536 301.503 156.736C303.999 159.872 306.207 166.016 308.127 175.168C310.111 184.256 311.967 197.76 313.695 215.68C313.439 216 313.055 216.416 312.543 216.928ZM280.767 197.152C282.815 196.896 284.959 196.768 287.199 196.768C289.439 196.768 290.719 196.8 291.039 196.864C288.735 185.216 286.719 175.36 284.991 167.296C283.391 176.128 281.983 186.08 280.767 197.152Z" fill="#FFC73C" fill-opacity="0.56"/>
</g>
<g filter="url(#filter1_f_373_247)">
<path d="M403.73 775.728C403.73 772.656 403.986 769.648 404.498 766.704C405.01 763.696 405.522 761.488 406.034 760.08L406.802 757.872L405.17 750.576C405.618 749.232 406.706 747.92 408.434 746.64C410.354 745.296 413.33 744.624 417.362 744.624C421.394 744.624 424.21 745.296 425.81 746.64C427.474 747.984 428.306 749.936 428.306 752.496C428.306 753.84 427.762 757.2 426.674 762.576C425.586 767.952 425.042 773.648 425.042 779.664C425.042 785.68 425.65 790.384 426.866 793.776C428.146 797.168 429.906 798.864 432.146 798.864C434.45 798.864 436.274 797.232 437.618 793.968C439.026 790.704 439.73 785.904 439.73 779.568C439.73 773.232 439.25 767.312 438.29 761.808C437.394 756.24 436.466 752.24 435.506 749.808L434.162 746.16C434.162 745.968 434.386 745.584 434.834 745.008C435.346 744.432 435.89 743.952 436.466 743.568C438.002 742.672 440.018 742.224 442.514 742.224C453.074 742.224 458.354 751.696 458.354 770.64C458.354 778.832 457.426 785.84 455.57 791.664C453.714 797.424 450.578 802.032 446.162 805.488C441.81 808.88 436.242 810.576 429.458 810.576C420.562 810.576 414.034 807.44 409.874 801.168C405.778 794.896 403.73 786.416 403.73 775.728ZM505.062 747.216C505.382 750.224 505.542 752.24 505.542 753.264C505.542 754.288 505.51 755.344 505.446 756.432C505.446 757.52 505.222 758.64 504.774 759.792C504.326 760.88 503.718 761.936 502.95 762.96C501.478 764.944 498.822 765.936 494.982 765.936C492.358 765.936 490.214 765.328 488.55 764.112C486.95 762.832 485.414 761.008 483.942 758.64C482.598 763.312 481.926 768.784 481.926 775.056C481.926 782.736 483.814 788.368 487.59 791.952C489.51 793.808 491.974 794.736 494.982 794.736C497.99 794.736 501.414 793.968 505.254 792.432C505.702 794.288 505.734 796.208 505.35 798.192C504.966 800.112 504.358 801.744 503.526 803.088C502.694 804.432 501.638 805.584 500.358 806.544C497.286 808.848 492.838 810 487.014 810C478.054 810 471.398 806.992 467.046 800.976C465.446 798.736 464.134 795.792 463.11 792.144C462.086 788.432 461.574 784.208 461.574 779.472C461.574 771.216 463.174 764.464 466.374 759.216C469.638 753.968 473.606 750.192 478.278 747.888C478.918 746.48 479.974 745.136 481.446 743.856C482.982 742.576 485.03 741.936 487.59 741.936C490.214 741.936 493.19 742.832 496.518 744.624C499.846 746.352 502.694 747.216 505.062 747.216ZM540.591 789.648C543.087 790.608 544.335 793.136 544.335 797.232C544.335 800.112 543.503 802.96 541.839 805.776C540.175 808.592 537.935 810 535.119 810L518.895 809.232C516.399 809.232 514.191 809.488 512.271 810C509.967 806.8 508.815 803.504 508.815 800.112C508.815 796.72 510.223 794.8 513.039 794.352L510.255 745.104C514.927 742.224 518.991 740.784 522.447 740.784C525.903 740.784 528.559 741.776 530.415 743.76C532.335 745.68 533.295 749.168 533.295 754.224C533.295 766.064 532.815 778.608 531.855 791.856L540.591 789.648ZM598.043 806.928C597.595 807.376 596.507 808.016 594.779 808.848C593.115 809.616 591.067 810 588.635 810C583.323 810 579.963 806.032 578.555 798.096C576.315 798.352 573.627 798.48 570.491 798.48C567.419 798.48 565.467 798.384 564.635 798.192C563.803 802.48 562.619 805.52 561.083 807.312C559.611 809.104 557.371 810 554.363 810C552.891 810 551.483 809.744 550.139 809.232C548.795 808.72 547.835 808.208 547.259 807.696L546.299 806.928C548.795 776.848 552.315 758.672 556.859 752.4C558.523 750.224 560.059 748.88 561.467 748.368C562.875 747.792 564.187 747.504 565.403 747.504C566.619 747.504 567.387 747.536 567.707 747.6C568.027 747.6 568.251 747.6 568.379 747.6L567.995 745.68C568.187 745.424 568.443 745.104 568.763 744.72C569.147 744.272 570.107 743.696 571.643 742.992C573.179 742.288 574.971 741.936 577.019 741.936C581.243 741.936 584.571 743.536 587.003 746.736C589.499 749.872 591.707 756.016 593.627 765.168C595.611 774.256 597.467 787.76 599.195 805.68C598.939 806 598.555 806.416 598.043 806.928ZM566.267 787.152C568.315 786.896 570.459 786.768 572.699 786.768C574.939 786.768 576.219 786.8 576.539 786.864C574.235 775.216 572.219 765.36 570.491 757.296C568.891 766.128 567.483 776.08 566.267 787.152Z" fill="#FFC73C" fill-opacity="0.56"/>
</g>
<rect x="128.5" y="168.5" width="463" height="625" stroke="#218ABE" stroke-width="5"/>
<mask id="path-5-inside-1_373_247" fill="white">
<path d="M151 202C151 194.268 157.268 188 165 188H557C564.732 188 571 194.268 571 202V582C571 589.732 564.732 596 557 596H165C157.268 596 151 589.732 151 582V202Z"/>
</mask>
<path d="M149 202C149 193.163 156.163 186 165 186H557C565.837 186 573 193.163 573 202H569C569 195.373 563.627 190 557 190H165C158.373 190 153 195.373 153 202H149ZM571 596H151H571ZM165 596C156.163 596 149 588.837 149 580V202C149 193.163 156.163 186 165 186V190C158.373 190 153 195.373 153 202V582C153 589.732 158.373 596 165 596ZM557 186C565.837 186 573 193.163 573 202V580C573 588.837 565.837 596 557 596C563.627 596 569 589.732 569 582V202C569 195.373 563.627 190 557 190V186Z" fill="#FFD100" mask="url(#path-5-inside-1_373_247)"/>
<rect x="112" y="620" width="373" height="89" fill="#C1E6F8" fill-opacity="0.54"/>
<path d="M161.028 633.5V635.12L146.88 633.5H161.028ZM161.028 636.956V638.576L146.88 636.956H161.028ZM161.028 640.412V642.032L146.88 640.412H161.028ZM161.028 643.868V645.488L146.88 643.868H161.028ZM161.028 647.324V648.944L146.88 647.324H161.028ZM161.028 650.78V652.4L146.88 650.78H161.028ZM161.028 654.272V655.892L146.88 654.272H161.028ZM173.808 656V647.72H173.412L170.424 656H162.108V633.5H169.272L168.624 646.064H168.84L173.52 633.5H178.956V646.064H179.172L183.024 633.5H190.188L182.88 656H173.808ZM207.078 636.596C209.67 636.596 211.518 637.1 212.622 638.108C213.726 639.092 214.278 640.64 214.278 642.752C214.278 643.784 214.146 645.032 213.882 646.496C213.282 649.952 212.226 652.472 210.714 654.056C209.202 655.64 206.826 656.432 203.586 656.432C201.042 656.432 199.23 655.94 198.15 654.956C197.07 653.948 196.53 652.4 196.53 650.312C196.53 649.232 196.662 647.96 196.926 646.496C197.526 643.04 198.57 640.532 200.058 638.972C201.546 637.388 203.886 636.596 207.078 636.596ZM204.63 650.96C205.326 650.96 205.842 650.876 206.178 650.708C206.538 650.54 206.778 650.168 206.898 649.592L208.266 642.068H206.07C205.398 642.068 204.87 642.152 204.486 642.32C204.126 642.488 203.91 642.848 203.838 643.4L202.506 650.96H204.63ZM195.666 647.324C195.57 648.068 195.51 648.572 195.486 648.836L181.302 647.324H195.666ZM196.35 643.868L196.026 645.38L181.95 643.868H196.35ZM195.45 650.78C195.45 651.164 195.498 651.668 195.594 652.292L181.446 650.78H195.45ZM197.61 640.412C197.322 641.036 197.118 641.516 196.998 641.852L183.39 640.412H197.61ZM196.206 654.272C196.494 654.848 196.806 655.292 197.142 655.604L184.578 654.272H196.206ZM200.742 636.956C200.166 637.292 199.674 637.688 199.266 638.144L188.214 636.956H200.742ZM236.77 656H232.018L231.478 648.26H231.298L229.57 656H223.414L227.77 636.956H235.582L236.122 645.884H236.266L239.902 636.956H247.714L245.41 656H239.218L240.19 648.26H240.01L236.77 656ZM222.226 655.892L206.962 654.272H222.586L222.226 655.892ZM223.018 652.4L207.79 650.78H223.414L223.018 652.4ZM223.846 648.944L208.618 647.324H224.206L223.846 648.944ZM224.566 645.488L209.446 643.868H224.962L224.566 645.488ZM225.394 642.032L210.274 640.412H225.754L225.394 642.032ZM226.186 638.576L211.102 636.956H226.582L226.186 638.576ZM268.644 648.26H263.28L262.848 650.708H269.508L268.572 656H255.864L259.176 636.956H271.848L270.156 642.356H264.288L263.856 644.804H269.256L268.644 648.26ZM254.676 655.892L239.412 654.272H254.964L254.676 655.892ZM255.9 648.944L240.636 647.324H256.188L255.9 648.944ZM256.512 645.488L241.248 643.868H256.8L256.512 645.488ZM257.124 642.032L241.86 640.412H257.412L257.124 642.032ZM257.736 638.576L242.472 636.956H257.988L257.736 638.576ZM255.288 652.4L240.024 650.78H255.576L255.288 652.4ZM290.649 656L286.941 648.872H286.797L285.537 656H279.489L282.801 636.956H287.697L291.441 644.048H291.657L292.881 636.956H298.893L295.545 656H290.649ZM278.301 655.892L263.037 654.272H278.589L278.301 655.892ZM279.525 648.944L264.261 647.324H279.813L279.525 648.944ZM280.137 645.488L264.873 643.868H280.425L280.137 645.488ZM280.749 642.032L265.485 640.412H281.037L280.749 642.032ZM281.361 638.576L266.097 636.956H281.613L281.361 638.576ZM278.913 652.4L263.649 650.78H279.201L278.913 652.4ZM306.761 638.324V638.576L295.096 636.956H306.941C306.821 637.196 306.761 637.652 306.761 638.324ZM306.257 645.452L294.988 643.868H306.869L306.257 645.452ZM308.093 640.808L307.625 641.996L296.248 640.412H307.481C307.601 640.556 307.805 640.688 308.093 640.808ZM307.949 637.352C308.237 635.912 308.681 634.916 309.281 634.364C309.881 633.788 310.841 633.5 312.161 633.5C313.481 633.5 314.369 633.68 314.825 634.04C315.305 634.4 315.545 635 315.545 635.84C315.545 637.496 314.873 639.368 313.529 641.456L310.361 646.352L307.481 645.308L309.497 640.124C308.393 639.932 307.841 639.332 307.841 638.324C307.841 638.036 307.877 637.712 307.949 637.352ZM307.733 654.272H323.285L322.781 655.892L307.733 654.272ZM326.021 640.412C325.877 640.796 325.721 641.336 325.553 642.032L310.505 640.412H326.021ZM325.121 645.2V645.488L309.857 643.868H325.193C325.145 644.444 325.121 644.888 325.121 645.2ZM323.933 652.364L308.921 650.78H324.437L323.933 652.364ZM328.505 636.956C327.857 637.436 327.365 637.94 327.029 638.468L312.989 636.956H328.505ZM325.445 647.324C325.661 647.948 326.009 648.488 326.489 648.944L311.261 647.324H325.445ZM339.809 642.608C338.177 642.224 336.785 642.032 335.633 642.032C334.481 642.032 333.629 642.068 333.077 642.14L332.897 643.184L334.697 643.4C338.561 643.904 340.493 645.5 340.493 648.188C340.493 648.5 340.421 649.088 340.277 649.952C340.133 650.792 339.893 651.608 339.557 652.4C339.221 653.192 338.789 653.84 338.261 654.344C337.757 654.824 337.253 655.22 336.749 655.532C336.269 655.82 335.645 656.024 334.877 656.144C333.677 656.336 332.069 656.432 330.053 656.432C328.061 656.432 326.045 656.156 324.005 655.604L325.769 650.276C327.641 650.804 329.273 651.068 330.665 651.068C332.081 651.068 333.077 651.032 333.653 650.96L333.833 649.808L331.565 649.556C329.621 649.34 328.241 648.884 327.425 648.188C326.609 647.492 326.201 646.496 326.201 645.2C326.201 644.72 326.261 644.12 326.381 643.4C326.861 640.832 327.725 639.056 328.973 638.072C330.221 637.088 332.117 636.596 334.661 636.596C337.229 636.596 339.521 636.848 341.537 637.352L339.809 642.608ZM175.392 671.5C177.12 671.5 178.368 671.8 179.136 672.4C179.928 673 180.324 673.924 180.324 675.172C180.324 676.996 179.916 678.496 179.1 679.672C178.308 680.848 177.336 681.58 176.184 681.868L176.148 682.084C178.308 682.492 179.388 683.92 179.388 686.368C179.388 688.528 178.8 690.34 177.624 691.804C176.448 693.268 174.792 694 172.656 694H160.344L164.304 671.5H175.392ZM171.432 685.036H168.732L168.084 688.708H170.748C171.348 688.708 171.804 688.468 172.116 687.988C172.428 687.508 172.584 686.896 172.584 686.152C172.584 685.408 172.2 685.036 171.432 685.036ZM172.44 676.432H170.28L169.668 679.78H171.792C172.896 679.78 173.448 679 173.448 677.44C173.448 676.768 173.112 676.432 172.44 676.432ZM159.264 693.892L144 692.272H159.552L159.264 693.892ZM160.488 686.944L145.224 685.324H160.776L160.488 686.944ZM161.1 683.488L145.836 681.868H161.388L161.1 683.488ZM161.712 680.032L146.448 678.412H162L161.712 680.032ZM162.324 676.576L147.06 674.956H162.576L162.324 676.576ZM159.876 690.4L144.612 688.78H160.164L159.876 690.4ZM162.9 673.12L147.672 671.5H163.188L162.9 673.12ZM199.815 694L199.671 691.084H195.135L194.019 694H187.791L195.783 674.956H204.711L206.115 694H199.815ZM199.671 685.936V680.464H199.167L197.043 685.936H199.671ZM186.639 693.856L171.879 692.272H187.323L186.639 693.856ZM188.115 690.364L173.355 688.78H188.799L188.115 690.364ZM189.591 686.908L174.831 685.324H190.239L189.591 686.908ZM191.031 683.452L176.307 681.868H191.715L191.031 683.452ZM192.507 679.996L177.783 678.412H193.155L192.507 679.996ZM193.947 676.504L179.259 674.956H194.595L193.947 676.504ZM199.592 692.272H215.144L214.64 693.892L199.592 692.272ZM217.88 678.412C217.736 678.796 217.58 679.336 217.412 680.032L202.364 678.412H217.88ZM216.98 683.2V683.488L201.716 681.868H217.052C217.004 682.444 216.98 682.888 216.98 683.2ZM215.792 690.364L200.78 688.78H216.296L215.792 690.364ZM220.364 674.956C219.716 675.436 219.224 675.94 218.888 676.468L204.848 674.956H220.364ZM217.304 685.324C217.52 685.948 217.868 686.488 218.348 686.944L203.12 685.324H217.304ZM231.668 680.608C230.036 680.224 228.644 680.032 227.492 680.032C226.34 680.032 225.488 680.068 224.936 680.14L224.756 681.184L226.556 681.4C230.42 681.904 232.352 683.5 232.352 686.188C232.352 686.5 232.28 687.088 232.136 687.952C231.992 688.792 231.752 689.608 231.416 690.4C231.08 691.192 230.648 691.84 230.12 692.344C229.616 692.824 229.112 693.22 228.608 693.532C228.128 693.82 227.504 694.024 226.736 694.144C225.536 694.336 223.928 694.432 221.912 694.432C219.92 694.432 217.904 694.156 215.864 693.604L217.628 688.276C219.5 688.804 221.132 689.068 222.524 689.068C223.94 689.068 224.936 689.032 225.512 688.96L225.692 687.808L223.424 687.556C221.48 687.34 220.1 686.884 219.284 686.188C218.468 685.492 218.06 684.496 218.06 683.2C218.06 682.72 218.12 682.12 218.24 681.4C218.72 678.832 219.584 677.056 220.832 676.072C222.08 675.088 223.976 674.596 226.52 674.596C229.088 674.596 231.38 674.848 233.396 675.352L231.668 680.608ZM250.38 694L248.688 687.772H248.472L247.392 694H241.344L244.656 674.956H250.74L249.696 680.788H249.876L253.584 674.956H260.172L254.124 684.28L256.968 694H250.38ZM240.156 693.892L224.892 692.272H240.444L240.156 693.892ZM241.38 686.944L226.116 685.324H241.668L241.38 686.944ZM241.992 683.488L226.728 681.868H242.28L241.992 683.488ZM242.604 680.032L227.34 678.412H242.892L242.604 680.032ZM243.216 676.576L227.952 674.956H243.468L243.216 676.576ZM240.768 690.4L225.504 688.78H241.056L240.768 690.4ZM279.226 686.26H273.862L273.43 688.708H280.09L279.154 694H266.446L269.758 674.956H282.43L280.738 680.356H274.87L274.438 682.804H279.838L279.226 686.26ZM265.258 693.892L249.994 692.272H265.546L265.258 693.892ZM266.482 686.944L251.218 685.324H266.77L266.482 686.944ZM267.094 683.488L251.83 681.868H267.382L267.094 683.488ZM267.706 680.032L252.442 678.412H267.994L267.706 680.032ZM268.318 676.576L253.054 674.956H268.57L268.318 676.576ZM265.87 690.4L250.606 688.78H266.158L265.87 690.4ZM305.299 680.356H301.411L299.035 694H292.699L295.075 680.356H291.079L292.051 674.956H306.271L305.299 680.356ZM291.619 693.892L276.355 692.272H291.907L291.619 693.892ZM292.843 686.944L277.579 685.324H293.131L292.843 686.944ZM293.455 683.488L278.191 681.868H293.743L293.455 683.488ZM289.999 680.032L274.735 678.412H290.287L289.999 680.032ZM290.611 676.576L275.347 674.956H290.863L290.611 676.576ZM292.231 690.4L276.967 688.78H292.519L292.231 690.4ZM325.532 674.956C328.268 674.956 329.636 676.084 329.636 678.34C329.636 679.588 329.336 680.716 328.736 681.724C328.16 682.732 327.452 683.428 326.612 683.812L326.576 684.028C328.16 684.532 328.952 685.624 328.952 687.304C328.952 689.416 328.376 691.06 327.224 692.236C326.096 693.412 324.38 694 322.076 694H312.5L315.812 674.956H325.532ZM322.076 686.62H319.844L319.376 689.284H321.608C322.448 689.284 322.868 688.672 322.868 687.448C322.868 686.896 322.604 686.62 322.076 686.62ZM323.012 679.528H321.068L320.672 681.832H322.652C323.372 681.832 323.732 681.304 323.732 680.248C323.732 679.768 323.492 679.528 323.012 679.528ZM311.348 693.892L296.084 692.272H311.636L311.348 693.892ZM312.572 686.944L297.308 685.324H312.86L312.572 686.944ZM313.184 683.488L297.92 681.868H313.472L313.184 683.488ZM313.796 680.032L298.532 678.412H314.084L313.796 680.032ZM314.408 676.576L299.144 674.956H314.66L314.408 676.576ZM311.96 690.4L296.696 688.78H312.248L311.96 690.4ZM349.791 694L349.647 691.084H345.111L343.995 694H337.767L345.759 674.956H354.687L356.091 694H349.791ZM349.647 685.936V680.464H349.143L347.019 685.936H349.647ZM336.615 693.856L321.855 692.272H337.299L336.615 693.856ZM338.091 690.364L323.331 688.78H338.775L338.091 690.364ZM339.567 686.908L324.807 685.324H340.215L339.567 686.908ZM341.007 683.452L326.283 681.868H341.691L341.007 683.452ZM342.483 679.996L327.759 678.412H343.131L342.483 679.996ZM343.923 676.504L329.235 674.956H344.571L343.923 676.504ZM377.181 694H365.481L368.793 674.956H375.129L372.717 688.708H378.117L377.181 694ZM364.293 693.892L349.029 692.272H364.581L364.293 693.892ZM365.517 686.944L350.253 685.324H365.805L365.517 686.944ZM366.129 683.488L350.865 681.868H366.417L366.129 683.488ZM366.741 680.032L351.477 678.412H367.029L366.741 680.032ZM367.353 676.576L352.089 674.956H367.605L367.353 676.576ZM364.905 690.4L349.641 688.78H365.193L364.905 690.4ZM397.607 694H385.907L389.219 674.956H395.555L393.143 688.708H398.543L397.607 694ZM384.719 693.892L369.454 692.272H385.007L384.719 693.892ZM385.943 686.944L370.678 685.324H386.231L385.943 686.944ZM386.555 683.488L371.29 681.868H386.843L386.555 683.488ZM387.167 680.032L371.902 678.412H387.455L387.167 680.032ZM387.779 676.576L372.514 674.956H388.031L387.779 676.576ZM385.331 690.4L370.066 688.78H385.619L385.331 690.4Z" fill="#023047"/>
<path d="M518.767 280H538.777C539.797 280 540.727 280.25 541.567 280.75C542.427 281.23 543.107 281.9 543.607 282.76C544.107 283.6 544.357 284.53 544.357 285.55C544.357 286.53 544.117 287.46 543.637 288.34C543.157 289.22 542.517 289.93 541.717 290.47C542.517 291.03 543.157 291.76 543.637 292.66C544.117 293.54 544.357 294.47 544.357 295.45C544.357 296.45 544.107 297.38 543.607 298.24C543.107 299.08 542.427 299.75 541.567 300.25C540.727 300.75 539.797 301 538.777 301H518.767V280ZM529.747 289.63C530.467 289.63 531.127 289.46 531.727 289.12C532.347 288.76 532.827 288.28 533.167 287.68C533.527 287.06 533.707 286.4 533.707 285.7C533.707 284.98 533.527 284.32 533.167 283.72C532.827 283.1 532.347 282.61 531.727 282.25C531.127 281.89 530.467 281.71 529.747 281.71H529.297V289.6C529.397 289.62 529.547 289.63 529.747 289.63ZM529.747 299.26C530.467 299.26 531.127 299.09 531.727 298.75C532.347 298.39 532.827 297.91 533.167 297.31C533.527 296.69 533.707 296.02 533.707 295.3C533.707 294.6 533.527 293.95 533.167 293.35C532.827 292.73 532.347 292.25 531.727 291.91C531.127 291.55 530.467 291.37 529.747 291.37H529.297V299.23C529.397 299.25 529.547 299.26 529.747 299.26ZM518.732 319H538.802C539.782 319 540.682 319.25 541.502 319.75C542.342 320.23 543.002 320.89 543.482 321.73C543.982 322.55 544.232 323.45 544.232 324.43C544.232 325.73 543.832 326.91 543.032 327.97C542.232 329.03 541.222 329.71 540.002 330.01C541.082 330.31 541.962 330.88 542.642 331.72C543.342 332.56 543.692 333.51 543.692 334.57V340H533.642V333.49C533.642 332.85 533.522 332.35 533.282 331.99C533.002 331.57 532.682 331.26 532.322 331.06C531.922 330.84 531.472 330.68 530.972 330.58C530.452 330.48 529.962 330.42 529.502 330.4L528.692 330.37V340H518.732V319ZM529.742 328.63C530.462 328.63 531.122 328.46 531.722 328.12C532.342 327.76 532.822 327.28 533.162 326.68C533.522 326.06 533.702 325.4 533.702 324.7C533.702 323.98 533.522 323.32 533.162 322.72C532.822 322.1 532.342 321.61 531.722 321.25C531.122 320.89 530.462 320.71 529.742 320.71H528.692V328.66L529.742 328.63ZM531.507 379.15C527.887 379.15 525.297 378.62 523.737 377.56C522.197 376.5 521.427 374.88 521.427 372.7V358H532.887V372.7C532.887 374.12 533.197 375.16 533.817 375.82C534.457 376.46 535.297 376.78 536.337 376.78C538.657 376.78 539.817 375.42 539.817 372.7V358H541.587V372.7C541.587 374.4 541.227 375.72 540.507 376.66C539.787 377.58 538.707 378.23 537.267 378.61C535.827 378.97 533.907 379.15 531.507 379.15ZM526.598 397H536.378V418H526.598V397ZM521.808 436H530.628L539.388 446.5V436H541.188V457H534.138L523.638 443.02V457H521.808V436ZM535.949 482.53C538.329 483.17 540.109 484.02 541.289 485.08C542.469 486.12 543.059 487.48 543.059 489.16C543.059 490.5 542.639 491.7 541.799 492.76C540.959 493.82 539.719 494.65 538.079 495.25C536.459 495.85 534.489 496.15 532.169 496.15C529.429 496.15 527.009 495.8 524.909 495.1C522.829 494.38 521.199 493.51 520.019 492.49L521.009 491.14C522.049 491.96 523.359 492.66 524.939 493.24C526.519 493.82 528.219 494.11 530.039 494.11C531.219 494.11 532.109 493.94 532.709 493.6C533.329 493.26 533.639 492.78 533.639 492.16C533.639 491.08 532.569 490.24 530.429 489.64L526.529 488.5C524.409 487.86 522.769 486.97 521.609 485.83C520.469 484.69 519.899 483.34 519.899 481.78C519.899 480.48 520.309 479.3 521.129 478.24C521.949 477.18 523.139 476.35 524.699 475.75C526.279 475.13 528.169 474.82 530.369 474.82C532.469 474.82 534.399 475.06 536.159 475.54C537.939 476.02 539.389 476.6 540.509 477.28L539.519 478.66C538.579 478.12 537.449 477.66 536.129 477.28C534.829 476.9 533.459 476.71 532.019 476.71C530.759 476.71 529.789 476.91 529.109 477.31C528.449 477.69 528.119 478.22 528.119 478.9C528.119 479.42 528.369 479.88 528.869 480.28C529.369 480.66 530.319 481.04 531.719 481.42L535.949 482.53Z" fill="#98D6F2" fill-opacity="0.52"/>
<g filter="url(#filter2_dddddd_373_247)">
<path fill-rule="evenodd" clip-rule="evenodd" d="M68.1878 101.365C48.1526 71.4496 25.4437 37.5415 -0.000161774 2.80414C35.0656 35.3871 63.6039 60.2093 85.6695 78.2416C90.5633 64.114 93.5005 54.4873 93.4619 49.434C100.804 59.3599 108.572 70.0514 116.764 81.3253C137.928 110.453 161.917 143.468 188.67 177.208C152.043 145.696 122.364 121.831 99.539 104.618C93.8727 119.104 90.4118 128.951 90.2534 134.124C83.2964 123.925 75.9424 112.944 68.1878 101.365Z" fill="#60BBE5" fill-opacity="0.4"/>
<path fill-rule="evenodd" clip-rule="evenodd" d="M68.1878 101.365C48.1526 71.4496 25.4437 37.5415 -0.000161774 2.80414C35.0656 35.3871 63.6039 60.2093 85.6695 78.2416C90.5633 64.114 93.5005 54.4873 93.4619 49.434C100.804 59.3599 108.572 70.0514 116.764 81.3253C137.928 110.453 161.917 143.468 188.67 177.208C152.043 145.696 122.364 121.831 99.539 104.618C93.8727 119.104 90.4118 128.951 90.2534 134.124C83.2964 123.925 75.9424 112.944 68.1878 101.365Z" fill="white"/>
</g>
<defs>
<filter id="filter0_f_373_247" x="112.23" y="144.784" width="207.465" height="81.792" filterUnits="userSpaceOnUse" color-interpolation-filters="sRGB">
<feFlood flood-opacity="0" result="BackgroundImageFix"/>
<feBlend mode="normal" in="SourceGraphic" in2="BackgroundImageFix" result="shape"/>
<feGaussianBlur stdDeviation="3" result="effect1_foregroundBlur_373_247"/>
</filter>
<filter id="filter1_f_373_247" x="397.73" y="734.784" width="207.465" height="81.7921" filterUnits="userSpaceOnUse" color-interpolation-filters="sRGB">
<feFlood flood-opacity="0" result="BackgroundImageFix"/>
<feBlend mode="normal" in="SourceGraphic" in2="BackgroundImageFix" result="shape"/>
<feGaussianBlur stdDeviation="3" result="effect1_foregroundBlur_373_247"/>
</filter>
<filter id="filter2_dddddd_373_247" x="-703.155" y="-700.351" width="1594.98" height="1580.71" filterUnits="userSpaceOnUse" color-interpolation-filters="sRGB">
<feFlood flood-opacity="0" result="BackgroundImageFix"/>
<feColorMatrix in="SourceAlpha" type="matrix" values="0 0 0 0 0 0 0 0 0 0 0 0 0 0 0 0 0 0 127 0" result="hardAlpha"/>
<feOffset/>
<feGaussianBlur stdDeviation="8.37089"/>
<feColorMatrix type="matrix" values="0 0 0 0 0.239216 0 0 0 0 0.733333 0 0 0 0 0.960784 0 0 0 1 0"/>
<feBlend mode="normal" in2="BackgroundImageFix" result="effect1_dropShadow_373_247"/>
<feColorMatrix in="SourceAlpha" type="matrix" values="0 0 0 0 0 0 0 0 0 0 0 0 0 0 0 0 0 0 127 0" result="hardAlpha"/>
<feOffset/>
<feGaussianBlur stdDeviation="16.7418"/>
<feColorMatrix type="matrix" values="0 0 0 0 0.239216 0 0 0 0 0.733333 0 0 0 0 0.960784 0 0 0 1 0"/>
<feBlend mode="normal" in2="effect1_dropShadow_373_247" result="effect2_dropShadow_373_247"/>
<feColorMatrix in="SourceAlpha" type="matrix" values="0 0 0 0 0 0 0 0 0 0 0 0 0 0 0 0 0 0 127 0" result="hardAlpha"/>
<feOffset/>
<feGaussianBlur stdDeviation="58.5962"/>
<feColorMatrix type="matrix" values="0 0 0 0 0.239216 0 0 0 0 0.733333 0 0 0 0 0.960784 0 0 0 1 0"/>
<feBlend mode="normal" in2="effect2_dropShadow_373_247" result="effect3_dropShadow_373_247"/>
<feColorMatrix in="SourceAlpha" type="matrix" values="0 0 0 0 0 0 0 0 0 0 0 0 0 0 0 0 0 0 127 0" result="hardAlpha"/>
<feOffset/>
<feGaussianBlur stdDeviation="117.192"/>
<feColorMatrix type="matrix" values="0 0 0 0 0.239216 0 0 0 0 0.733333 0 0 0 0 0.960784 0 0 0 1 0"/>
<feBlend mode="normal" in2="effect3_dropShadow_373_247" result="effect4_dropShadow_373_247"/>
<feColorMatrix in="SourceAlpha" type="matrix" values="0 0 0 0 0 0 0 0 0 0 0 0 0 0 0 0 0 0 127 0" result="hardAlpha"/>
<feOffset/>
<feGaussianBlur stdDeviation="200.901"/>
<feColorMatrix type="matrix" values="0 0 0 0 0.239216 0 0 0 0 0.733333 0 0 0 0 0.960784 0 0 0 1 0"/>
<feBlend mode="normal" in2="effect4_dropShadow_373_247" result="effect5_dropShadow_373_247"/>
<feColorMatrix in="SourceAlpha" type="matrix" values="0 0 0 0 0 0 0 0 0 0 0 0 0 0 0 0 0 0 127 0" result="hardAlpha"/>
<feOffset/>
<feGaussianBlur stdDeviation="351.577"/>
<feColorMatrix type="matrix" values="0 0 0 0 0.239216 0 0 0 0 0.733333 0 0 0 0 0.960784 0 0 0 1 0"/>
<feBlend mode="normal" in2="effect5_dropShadow_373_247" result="effect6_dropShadow_373_247"/>
<feBlend mode="normal" in="SourceGraphic" in2="effect6_dropShadow_373_247" result="shape"/>
</filter>
</defs>
</svg>
