<svg width="721" height="862" viewBox="0 0 721 862" fill="none" xmlns="http://www.w3.org/2000/svg">
<rect x="126" y="146" width="497" height="666" fill="#FAF5E9"/>
<g filter="url(#filter0_f_147_434)">
<path d="M132.23 183.728C132.23 180.656 132.486 177.648 132.998 174.704C133.51 171.696 134.022 169.488 134.534 168.08L135.302 165.872L133.67 158.576C134.118 157.232 135.206 155.92 136.934 154.64C138.854 153.296 141.83 152.624 145.862 152.624C149.894 152.624 152.71 153.296 154.31 154.64C155.974 155.984 156.806 157.936 156.806 160.496C156.806 161.84 156.262 165.2 155.174 170.576C154.086 175.952 153.542 181.648 153.542 187.664C153.542 193.68 154.15 198.384 155.366 201.776C156.646 205.168 158.406 206.864 160.646 206.864C162.95 206.864 164.774 205.232 166.118 201.968C167.526 198.704 168.23 193.904 168.23 187.568C168.23 181.232 167.75 175.312 166.79 169.808C165.894 164.24 164.966 160.24 164.006 157.808L162.662 154.16C162.662 153.968 162.886 153.584 163.334 153.008C163.846 152.432 164.39 151.952 164.966 151.568C166.502 150.672 168.518 150.224 171.014 150.224C181.574 150.224 186.854 159.696 186.854 178.64C186.854 186.832 185.926 193.84 184.07 199.664C182.214 205.424 179.078 210.032 174.662 213.488C170.31 216.88 164.742 218.576 157.958 218.576C149.062 218.576 142.534 215.44 138.374 209.168C134.278 202.896 132.23 194.416 132.23 183.728ZM233.562 155.216C233.882 158.224 234.042 160.24 234.042 161.264C234.042 162.288 234.01 163.344 233.946 164.432C233.946 165.52 233.722 166.64 233.274 167.792C232.826 168.88 232.218 169.936 231.45 170.96C229.978 172.944 227.322 173.936 223.482 173.936C220.858 173.936 218.714 173.328 217.05 172.112C215.45 170.832 213.914 169.008 212.442 166.64C211.098 171.312 210.426 176.784 210.426 183.056C210.426 190.736 212.314 196.368 216.09 199.952C218.01 201.808 220.474 202.736 223.482 202.736C226.49 202.736 229.914 201.968 233.754 200.432C234.202 202.288 234.234 204.208 233.85 206.192C233.466 208.112 232.858 209.744 232.026 211.088C231.194 212.432 230.138 213.584 228.858 214.544C225.786 216.848 221.338 218 215.514 218C206.554 218 199.898 214.992 195.546 208.976C193.946 206.736 192.634 203.792 191.61 200.144C190.586 196.432 190.074 192.208 190.074 187.472C190.074 179.216 191.674 172.464 194.874 167.216C198.138 161.968 202.106 158.192 206.778 155.888C207.418 154.48 208.474 153.136 209.946 151.856C211.482 150.576 213.53 149.936 216.09 149.936C218.714 149.936 221.69 150.832 225.018 152.624C228.346 154.352 231.194 155.216 233.562 155.216ZM269.091 197.648C271.587 198.608 272.835 201.136 272.835 205.232C272.835 208.112 272.003 210.96 270.339 213.776C268.675 216.592 266.435 218 263.619 218L247.395 217.232C244.899 217.232 242.691 217.488 240.771 218C238.467 214.8 237.315 211.504 237.315 208.112C237.315 204.72 238.723 202.8 241.539 202.352L238.755 153.104C243.427 150.224 247.491 148.784 250.947 148.784C254.403 148.784 257.059 149.776 258.915 151.76C260.835 153.68 261.795 157.168 261.795 162.224C261.795 174.064 261.315 186.608 260.355 199.856L269.091 197.648ZM326.543 214.928C326.095 215.376 325.007 216.016 323.279 216.848C321.615 217.616 319.567 218 317.135 218C311.823 218 308.463 214.032 307.055 206.096C304.815 206.352 302.127 206.48 298.991 206.48C295.919 206.48 293.967 206.384 293.135 206.192C292.303 210.48 291.119 213.52 289.583 215.312C288.111 217.104 285.871 218 282.863 218C281.391 218 279.983 217.744 278.639 217.232C277.295 216.72 276.335 216.208 275.759 215.696L274.799 214.928C277.295 184.848 280.815 166.672 285.359 160.4C287.023 158.224 288.559 156.88 289.967 156.368C291.375 155.792 292.687 155.504 293.903 155.504C295.119 155.504 295.887 155.536 296.207 155.6C296.527 155.6 296.751 155.6 296.879 155.6L296.495 153.68C296.687 153.424 296.943 153.104 297.263 152.72C297.647 152.272 298.607 151.696 300.143 150.992C301.679 150.288 303.471 149.936 305.519 149.936C309.743 149.936 313.071 151.536 315.503 154.736C317.999 157.872 320.207 164.016 322.127 173.168C324.111 182.256 325.967 195.76 327.695 213.68C327.439 214 327.055 214.416 326.543 214.928ZM294.767 195.152C296.815 194.896 298.959 194.768 301.199 194.768C303.439 194.768 304.719 194.8 305.039 194.864C302.735 183.216 300.719 173.36 298.991 165.296C297.391 174.128 295.983 184.08 294.767 195.152Z" fill="#FFC73C" fill-opacity="0.56"/>
</g>
<g filter="url(#filter1_f_147_434)">
<path d="M417.73 773.728C417.73 770.656 417.986 767.648 418.498 764.704C419.01 761.696 419.522 759.488 420.034 758.08L420.802 755.872L419.17 748.576C419.618 747.232 420.706 745.92 422.434 744.64C424.354 743.296 427.33 742.624 431.362 742.624C435.394 742.624 438.21 743.296 439.81 744.64C441.474 745.984 442.306 747.936 442.306 750.496C442.306 751.84 441.762 755.2 440.674 760.576C439.586 765.952 439.042 771.648 439.042 777.664C439.042 783.68 439.65 788.384 440.866 791.776C442.146 795.168 443.906 796.864 446.146 796.864C448.45 796.864 450.274 795.232 451.618 791.968C453.026 788.704 453.73 783.904 453.73 777.568C453.73 771.232 453.25 765.312 452.29 759.808C451.394 754.24 450.466 750.24 449.506 747.808L448.162 744.16C448.162 743.968 448.386 743.584 448.834 743.008C449.346 742.432 449.89 741.952 450.466 741.568C452.002 740.672 454.018 740.224 456.514 740.224C467.074 740.224 472.354 749.696 472.354 768.64C472.354 776.832 471.426 783.84 469.57 789.664C467.714 795.424 464.578 800.032 460.162 803.488C455.81 806.88 450.242 808.576 443.458 808.576C434.562 808.576 428.034 805.44 423.874 799.168C419.778 792.896 417.73 784.416 417.73 773.728ZM519.062 745.216C519.382 748.224 519.542 750.24 519.542 751.264C519.542 752.288 519.51 753.344 519.446 754.432C519.446 755.52 519.222 756.64 518.774 757.792C518.326 758.88 517.718 759.936 516.95 760.96C515.478 762.944 512.822 763.936 508.982 763.936C506.358 763.936 504.214 763.328 502.55 762.112C500.95 760.832 499.414 759.008 497.942 756.64C496.598 761.312 495.926 766.784 495.926 773.056C495.926 780.736 497.814 786.368 501.59 789.952C503.51 791.808 505.974 792.736 508.982 792.736C511.99 792.736 515.414 791.968 519.254 790.432C519.702 792.288 519.734 794.208 519.35 796.192C518.966 798.112 518.358 799.744 517.526 801.088C516.694 802.432 515.638 803.584 514.358 804.544C511.286 806.848 506.838 808 501.014 808C492.054 808 485.398 804.992 481.046 798.976C479.446 796.736 478.134 793.792 477.11 790.144C476.086 786.432 475.574 782.208 475.574 777.472C475.574 769.216 477.174 762.464 480.374 757.216C483.638 751.968 487.606 748.192 492.278 745.888C492.918 744.48 493.974 743.136 495.446 741.856C496.982 740.576 499.03 739.936 501.59 739.936C504.214 739.936 507.19 740.832 510.518 742.624C513.846 744.352 516.694 745.216 519.062 745.216ZM554.591 787.648C557.087 788.608 558.335 791.136 558.335 795.232C558.335 798.112 557.503 800.96 555.839 803.776C554.175 806.592 551.935 808 549.119 808L532.895 807.232C530.399 807.232 528.191 807.488 526.271 808C523.967 804.8 522.815 801.504 522.815 798.112C522.815 794.72 524.223 792.8 527.039 792.352L524.255 743.104C528.927 740.224 532.991 738.784 536.447 738.784C539.903 738.784 542.559 739.776 544.415 741.76C546.335 743.68 547.295 747.168 547.295 752.224C547.295 764.064 546.815 776.608 545.855 789.856L554.591 787.648ZM612.043 804.928C611.595 805.376 610.507 806.016 608.779 806.848C607.115 807.616 605.067 808 602.635 808C597.323 808 593.963 804.032 592.555 796.096C590.315 796.352 587.627 796.48 584.491 796.48C581.419 796.48 579.467 796.384 578.635 796.192C577.803 800.48 576.619 803.52 575.083 805.312C573.611 807.104 571.371 808 568.363 808C566.891 808 565.483 807.744 564.139 807.232C562.795 806.72 561.835 806.208 561.259 805.696L560.299 804.928C562.795 774.848 566.315 756.672 570.859 750.4C572.523 748.224 574.059 746.88 575.467 746.368C576.875 745.792 578.187 745.504 579.403 745.504C580.619 745.504 581.387 745.536 581.707 745.6C582.027 745.6 582.251 745.6 582.379 745.6L581.995 743.68C582.187 743.424 582.443 743.104 582.763 742.72C583.147 742.272 584.107 741.696 585.643 740.992C587.179 740.288 588.971 739.936 591.019 739.936C595.243 739.936 598.571 741.536 601.003 744.736C603.499 747.872 605.707 754.016 607.627 763.168C609.611 772.256 611.467 785.76 613.195 803.68C612.939 804 612.555 804.416 612.043 804.928ZM580.267 785.152C582.315 784.896 584.459 784.768 586.699 784.768C588.939 784.768 590.219 784.8 590.539 784.864C588.235 773.216 586.219 763.36 584.491 755.296C582.891 764.128 581.483 774.08 580.267 785.152Z" fill="#FFC73C" fill-opacity="0.56"/>
</g>
<rect x="142.5" y="166.5" width="463" height="625" stroke="#218ABE" stroke-width="5"/>
<mask id="path-5-inside-1_147_434" fill="white">
<path d="M165 200C165 192.268 171.268 186 179 186H571C578.732 186 585 192.268 585 200V580C585 587.732 578.732 594 571 594H179C171.268 594 165 587.732 165 580V200Z"/>
</mask>
<path d="M163 200C163 191.163 170.163 184 179 184H571C579.837 184 587 191.163 587 200H583C583 193.373 577.627 188 571 188H179C172.373 188 167 193.373 167 200H163ZM585 594H165H585ZM179 594C170.163 594 163 586.837 163 578V200C163 191.163 170.163 184 179 184V188C172.373 188 167 193.373 167 200V580C167 587.732 172.373 594 179 594ZM571 184C579.837 184 587 191.163 587 200V578C587 586.837 579.837 594 571 594C577.627 594 583 587.732 583 580V200C583 193.373 577.627 188 571 188V184Z" fill="#FFD100" mask="url(#path-5-inside-1_147_434)"/>
<rect x="126" y="618" width="373" height="89" fill="#C1E6F8" fill-opacity="0.54"/>
<path d="M175.028 631.5V633.12L160.88 631.5H175.028ZM175.028 634.956V636.576L160.88 634.956H175.028ZM175.028 638.412V640.032L160.88 638.412H175.028ZM175.028 641.868V643.488L160.88 641.868H175.028ZM175.028 645.324V646.944L160.88 645.324H175.028ZM175.028 648.78V650.4L160.88 648.78H175.028ZM175.028 652.272V653.892L160.88 652.272H175.028ZM187.808 654V645.72H187.412L184.424 654H176.108V631.5H183.272L182.624 644.064H182.84L187.52 631.5H192.956V644.064H193.172L197.024 631.5H204.188L196.88 654H187.808ZM221.078 634.596C223.67 634.596 225.518 635.1 226.622 636.108C227.726 637.092 228.278 638.64 228.278 640.752C228.278 641.784 228.146 643.032 227.882 644.496C227.282 647.952 226.226 650.472 224.714 652.056C223.202 653.64 220.826 654.432 217.586 654.432C215.042 654.432 213.23 653.94 212.15 652.956C211.07 651.948 210.53 650.4 210.53 648.312C210.53 647.232 210.662 645.96 210.926 644.496C211.526 641.04 212.57 638.532 214.058 636.972C215.546 635.388 217.886 634.596 221.078 634.596ZM218.63 648.96C219.326 648.96 219.842 648.876 220.178 648.708C220.538 648.54 220.778 648.168 220.898 647.592L222.266 640.068H220.07C219.398 640.068 218.87 640.152 218.486 640.32C218.126 640.488 217.91 640.848 217.838 641.4L216.506 648.96H218.63ZM209.666 645.324C209.57 646.068 209.51 646.572 209.486 646.836L195.302 645.324H209.666ZM210.35 641.868L210.026 643.38L195.95 641.868H210.35ZM209.45 648.78C209.45 649.164 209.498 649.668 209.594 650.292L195.446 648.78H209.45ZM211.61 638.412C211.322 639.036 211.118 639.516 210.998 639.852L197.39 638.412H211.61ZM210.206 652.272C210.494 652.848 210.806 653.292 211.142 653.604L198.578 652.272H210.206ZM214.742 634.956C214.166 635.292 213.674 635.688 213.266 636.144L202.214 634.956H214.742ZM250.77 654H246.018L245.478 646.26H245.298L243.57 654H237.414L241.77 634.956H249.582L250.122 643.884H250.266L253.902 634.956H261.714L259.41 654H253.218L254.19 646.26H254.01L250.77 654ZM236.226 653.892L220.962 652.272H236.586L236.226 653.892ZM237.018 650.4L221.79 648.78H237.414L237.018 650.4ZM237.846 646.944L222.618 645.324H238.206L237.846 646.944ZM238.566 643.488L223.446 641.868H238.962L238.566 643.488ZM239.394 640.032L224.274 638.412H239.754L239.394 640.032ZM240.186 636.576L225.102 634.956H240.582L240.186 636.576ZM282.644 646.26H277.28L276.848 648.708H283.508L282.572 654H269.864L273.176 634.956H285.848L284.156 640.356H278.288L277.856 642.804H283.256L282.644 646.26ZM268.676 653.892L253.412 652.272H268.964L268.676 653.892ZM269.9 646.944L254.636 645.324H270.188L269.9 646.944ZM270.512 643.488L255.248 641.868H270.8L270.512 643.488ZM271.124 640.032L255.86 638.412H271.412L271.124 640.032ZM271.736 636.576L256.472 634.956H271.988L271.736 636.576ZM269.288 650.4L254.024 648.78H269.576L269.288 650.4ZM304.649 654L300.941 646.872H300.797L299.537 654H293.489L296.801 634.956H301.697L305.441 642.048H305.657L306.881 634.956H312.893L309.545 654H304.649ZM292.301 653.892L277.037 652.272H292.589L292.301 653.892ZM293.525 646.944L278.261 645.324H293.813L293.525 646.944ZM294.137 643.488L278.873 641.868H294.425L294.137 643.488ZM294.749 640.032L279.485 638.412H295.037L294.749 640.032ZM295.361 636.576L280.097 634.956H295.613L295.361 636.576ZM292.913 650.4L277.649 648.78H293.201L292.913 650.4ZM320.761 636.324V636.576L309.096 634.956H320.941C320.821 635.196 320.761 635.652 320.761 636.324ZM320.257 643.452L308.988 641.868H320.869L320.257 643.452ZM322.093 638.808L321.625 639.996L310.248 638.412H321.481C321.601 638.556 321.805 638.688 322.093 638.808ZM321.949 635.352C322.237 633.912 322.681 632.916 323.281 632.364C323.881 631.788 324.841 631.5 326.161 631.5C327.481 631.5 328.369 631.68 328.825 632.04C329.305 632.4 329.545 633 329.545 633.84C329.545 635.496 328.873 637.368 327.529 639.456L324.361 644.352L321.481 643.308L323.497 638.124C322.393 637.932 321.841 637.332 321.841 636.324C321.841 636.036 321.877 635.712 321.949 635.352ZM321.733 652.272H337.285L336.781 653.892L321.733 652.272ZM340.021 638.412C339.877 638.796 339.721 639.336 339.553 640.032L324.505 638.412H340.021ZM339.121 643.2V643.488L323.857 641.868H339.193C339.145 642.444 339.121 642.888 339.121 643.2ZM337.933 650.364L322.921 648.78H338.437L337.933 650.364ZM342.505 634.956C341.857 635.436 341.365 635.94 341.029 636.468L326.989 634.956H342.505ZM339.445 645.324C339.661 645.948 340.009 646.488 340.489 646.944L325.261 645.324H339.445ZM353.809 640.608C352.177 640.224 350.785 640.032 349.633 640.032C348.481 640.032 347.629 640.068 347.077 640.14L346.897 641.184L348.697 641.4C352.561 641.904 354.493 643.5 354.493 646.188C354.493 646.5 354.421 647.088 354.277 647.952C354.133 648.792 353.893 649.608 353.557 650.4C353.221 651.192 352.789 651.84 352.261 652.344C351.757 652.824 351.253 653.22 350.749 653.532C350.269 653.82 349.645 654.024 348.877 654.144C347.677 654.336 346.069 654.432 344.053 654.432C342.061 654.432 340.045 654.156 338.005 653.604L339.769 648.276C341.641 648.804 343.273 649.068 344.665 649.068C346.081 649.068 347.077 649.032 347.653 648.96L347.833 647.808L345.565 647.556C343.621 647.34 342.241 646.884 341.425 646.188C340.609 645.492 340.201 644.496 340.201 643.2C340.201 642.72 340.261 642.12 340.381 641.4C340.861 638.832 341.725 637.056 342.973 636.072C344.221 635.088 346.117 634.596 348.661 634.596C351.229 634.596 353.521 634.848 355.537 635.352L353.809 640.608ZM189.392 669.5C191.12 669.5 192.368 669.8 193.136 670.4C193.928 671 194.324 671.924 194.324 673.172C194.324 674.996 193.916 676.496 193.1 677.672C192.308 678.848 191.336 679.58 190.184 679.868L190.148 680.084C192.308 680.492 193.388 681.92 193.388 684.368C193.388 686.528 192.8 688.34 191.624 689.804C190.448 691.268 188.792 692 186.656 692H174.344L178.304 669.5H189.392ZM185.432 683.036H182.732L182.084 686.708H184.748C185.348 686.708 185.804 686.468 186.116 685.988C186.428 685.508 186.584 684.896 186.584 684.152C186.584 683.408 186.2 683.036 185.432 683.036ZM186.44 674.432H184.28L183.668 677.78H185.792C186.896 677.78 187.448 677 187.448 675.44C187.448 674.768 187.112 674.432 186.44 674.432ZM173.264 691.892L158 690.272H173.552L173.264 691.892ZM174.488 684.944L159.224 683.324H174.776L174.488 684.944ZM175.1 681.488L159.836 679.868H175.388L175.1 681.488ZM175.712 678.032L160.448 676.412H176L175.712 678.032ZM176.324 674.576L161.06 672.956H176.576L176.324 674.576ZM173.876 688.4L158.612 686.78H174.164L173.876 688.4ZM176.9 671.12L161.672 669.5H177.188L176.9 671.12ZM213.815 692L213.671 689.084H209.135L208.019 692H201.791L209.783 672.956H218.711L220.115 692H213.815ZM213.671 683.936V678.464H213.167L211.043 683.936H213.671ZM200.639 691.856L185.879 690.272H201.323L200.639 691.856ZM202.115 688.364L187.355 686.78H202.799L202.115 688.364ZM203.591 684.908L188.831 683.324H204.239L203.591 684.908ZM205.031 681.452L190.307 679.868H205.715L205.031 681.452ZM206.507 677.996L191.783 676.412H207.155L206.507 677.996ZM207.947 674.504L193.259 672.956H208.595L207.947 674.504ZM213.592 690.272H229.144L228.64 691.892L213.592 690.272ZM231.88 676.412C231.736 676.796 231.58 677.336 231.412 678.032L216.364 676.412H231.88ZM230.98 681.2V681.488L215.716 679.868H231.052C231.004 680.444 230.98 680.888 230.98 681.2ZM229.792 688.364L214.78 686.78H230.296L229.792 688.364ZM234.364 672.956C233.716 673.436 233.224 673.94 232.888 674.468L218.848 672.956H234.364ZM231.304 683.324C231.52 683.948 231.868 684.488 232.348 684.944L217.12 683.324H231.304ZM245.668 678.608C244.036 678.224 242.644 678.032 241.492 678.032C240.34 678.032 239.488 678.068 238.936 678.14L238.756 679.184L240.556 679.4C244.42 679.904 246.352 681.5 246.352 684.188C246.352 684.5 246.28 685.088 246.136 685.952C245.992 686.792 245.752 687.608 245.416 688.4C245.08 689.192 244.648 689.84 244.12 690.344C243.616 690.824 243.112 691.22 242.608 691.532C242.128 691.82 241.504 692.024 240.736 692.144C239.536 692.336 237.928 692.432 235.912 692.432C233.92 692.432 231.904 692.156 229.864 691.604L231.628 686.276C233.5 686.804 235.132 687.068 236.524 687.068C237.94 687.068 238.936 687.032 239.512 686.96L239.692 685.808L237.424 685.556C235.48 685.34 234.1 684.884 233.284 684.188C232.468 683.492 232.06 682.496 232.06 681.2C232.06 680.72 232.12 680.12 232.24 679.4C232.72 676.832 233.584 675.056 234.832 674.072C236.08 673.088 237.976 672.596 240.52 672.596C243.088 672.596 245.38 672.848 247.396 673.352L245.668 678.608ZM264.38 692L262.688 685.772H262.472L261.392 692H255.344L258.656 672.956H264.74L263.696 678.788H263.876L267.584 672.956H274.172L268.124 682.28L270.968 692H264.38ZM254.156 691.892L238.892 690.272H254.444L254.156 691.892ZM255.38 684.944L240.116 683.324H255.668L255.38 684.944ZM255.992 681.488L240.728 679.868H256.28L255.992 681.488ZM256.604 678.032L241.34 676.412H256.892L256.604 678.032ZM257.216 674.576L241.952 672.956H257.468L257.216 674.576ZM254.768 688.4L239.504 686.78H255.056L254.768 688.4ZM293.226 684.26H287.862L287.43 686.708H294.09L293.154 692H280.446L283.758 672.956H296.43L294.738 678.356H288.87L288.438 680.804H293.838L293.226 684.26ZM279.258 691.892L263.994 690.272H279.546L279.258 691.892ZM280.482 684.944L265.218 683.324H280.77L280.482 684.944ZM281.094 681.488L265.83 679.868H281.382L281.094 681.488ZM281.706 678.032L266.442 676.412H281.994L281.706 678.032ZM282.318 674.576L267.054 672.956H282.57L282.318 674.576ZM279.87 688.4L264.606 686.78H280.158L279.87 688.4ZM319.299 678.356H315.411L313.035 692H306.699L309.075 678.356H305.079L306.051 672.956H320.271L319.299 678.356ZM305.619 691.892L290.355 690.272H305.907L305.619 691.892ZM306.843 684.944L291.579 683.324H307.131L306.843 684.944ZM307.455 681.488L292.191 679.868H307.743L307.455 681.488ZM303.999 678.032L288.735 676.412H304.287L303.999 678.032ZM304.611 674.576L289.347 672.956H304.863L304.611 674.576ZM306.231 688.4L290.967 686.78H306.519L306.231 688.4ZM339.532 672.956C342.268 672.956 343.636 674.084 343.636 676.34C343.636 677.588 343.336 678.716 342.736 679.724C342.16 680.732 341.452 681.428 340.612 681.812L340.576 682.028C342.16 682.532 342.952 683.624 342.952 685.304C342.952 687.416 342.376 689.06 341.224 690.236C340.096 691.412 338.38 692 336.076 692H326.5L329.812 672.956H339.532ZM336.076 684.62H333.844L333.376 687.284H335.608C336.448 687.284 336.868 686.672 336.868 685.448C336.868 684.896 336.604 684.62 336.076 684.62ZM337.012 677.528H335.068L334.672 679.832H336.652C337.372 679.832 337.732 679.304 337.732 678.248C337.732 677.768 337.492 677.528 337.012 677.528ZM325.348 691.892L310.084 690.272H325.636L325.348 691.892ZM326.572 684.944L311.308 683.324H326.86L326.572 684.944ZM327.184 681.488L311.92 679.868H327.472L327.184 681.488ZM327.796 678.032L312.532 676.412H328.084L327.796 678.032ZM328.408 674.576L313.144 672.956H328.66L328.408 674.576ZM325.96 688.4L310.696 686.78H326.248L325.96 688.4ZM363.791 692L363.647 689.084H359.111L357.995 692H351.767L359.759 672.956H368.687L370.091 692H363.791ZM363.647 683.936V678.464H363.143L361.019 683.936H363.647ZM350.615 691.856L335.855 690.272H351.299L350.615 691.856ZM352.091 688.364L337.331 686.78H352.775L352.091 688.364ZM353.567 684.908L338.807 683.324H354.215L353.567 684.908ZM355.007 681.452L340.283 679.868H355.691L355.007 681.452ZM356.483 677.996L341.759 676.412H357.131L356.483 677.996ZM357.923 674.504L343.235 672.956H358.571L357.923 674.504ZM391.181 692H379.481L382.793 672.956H389.129L386.717 686.708H392.117L391.181 692ZM378.293 691.892L363.029 690.272H378.581L378.293 691.892ZM379.517 684.944L364.253 683.324H379.805L379.517 684.944ZM380.129 681.488L364.865 679.868H380.417L380.129 681.488ZM380.741 678.032L365.477 676.412H381.029L380.741 678.032ZM381.353 674.576L366.089 672.956H381.605L381.353 674.576ZM378.905 688.4L363.641 686.78H379.193L378.905 688.4ZM411.607 692H399.907L403.219 672.956H409.555L407.143 686.708H412.543L411.607 692ZM398.719 691.892L383.454 690.272H399.007L398.719 691.892ZM399.943 684.944L384.678 683.324H400.231L399.943 684.944ZM400.555 681.488L385.29 679.868H400.843L400.555 681.488ZM401.167 678.032L385.902 676.412H401.455L401.167 678.032ZM401.779 674.576L386.514 672.956H402.031L401.779 674.576ZM399.331 688.4L384.066 686.78H399.619L399.331 688.4Z" fill="#023047"/>
<path d="M532.767 278H552.777C553.797 278 554.727 278.25 555.567 278.75C556.427 279.23 557.107 279.9 557.607 280.76C558.107 281.6 558.357 282.53 558.357 283.55C558.357 284.53 558.117 285.46 557.637 286.34C557.157 287.22 556.517 287.93 555.717 288.47C556.517 289.03 557.157 289.76 557.637 290.66C558.117 291.54 558.357 292.47 558.357 293.45C558.357 294.45 558.107 295.38 557.607 296.24C557.107 297.08 556.427 297.75 555.567 298.25C554.727 298.75 553.797 299 552.777 299H532.767V278ZM543.747 287.63C544.467 287.63 545.127 287.46 545.727 287.12C546.347 286.76 546.827 286.28 547.167 285.68C547.527 285.06 547.707 284.4 547.707 283.7C547.707 282.98 547.527 282.32 547.167 281.72C546.827 281.1 546.347 280.61 545.727 280.25C545.127 279.89 544.467 279.71 543.747 279.71H543.297V287.6C543.397 287.62 543.547 287.63 543.747 287.63ZM543.747 297.26C544.467 297.26 545.127 297.09 545.727 296.75C546.347 296.39 546.827 295.91 547.167 295.31C547.527 294.69 547.707 294.02 547.707 293.3C547.707 292.6 547.527 291.95 547.167 291.35C546.827 290.73 546.347 290.25 545.727 289.91C545.127 289.55 544.467 289.37 543.747 289.37H543.297V297.23C543.397 297.25 543.547 297.26 543.747 297.26ZM532.732 317H552.802C553.782 317 554.682 317.25 555.502 317.75C556.342 318.23 557.002 318.89 557.482 319.73C557.982 320.55 558.232 321.45 558.232 322.43C558.232 323.73 557.832 324.91 557.032 325.97C556.232 327.03 555.222 327.71 554.002 328.01C555.082 328.31 555.962 328.88 556.642 329.72C557.342 330.56 557.692 331.51 557.692 332.57V338H547.642V331.49C547.642 330.85 547.522 330.35 547.282 329.99C547.002 329.57 546.682 329.26 546.322 329.06C545.922 328.84 545.472 328.68 544.972 328.58C544.452 328.48 543.962 328.42 543.502 328.4L542.692 328.37V338H532.732V317ZM543.742 326.63C544.462 326.63 545.122 326.46 545.722 326.12C546.342 325.76 546.822 325.28 547.162 324.68C547.522 324.06 547.702 323.4 547.702 322.7C547.702 321.98 547.522 321.32 547.162 320.72C546.822 320.1 546.342 319.61 545.722 319.25C545.122 318.89 544.462 318.71 543.742 318.71H542.692V326.66L543.742 326.63ZM545.507 377.15C541.887 377.15 539.297 376.62 537.737 375.56C536.197 374.5 535.427 372.88 535.427 370.7V356H546.887V370.7C546.887 372.12 547.197 373.16 547.817 373.82C548.457 374.46 549.297 374.78 550.337 374.78C552.657 374.78 553.817 373.42 553.817 370.7V356H555.587V370.7C555.587 372.4 555.227 373.72 554.507 374.66C553.787 375.58 552.707 376.23 551.267 376.61C549.827 376.97 547.907 377.15 545.507 377.15ZM540.598 395H550.378V416H540.598V395ZM535.808 434H544.628L553.388 444.5V434H555.188V455H548.138L537.638 441.02V455H535.808V434ZM549.949 480.53C552.329 481.17 554.109 482.02 555.289 483.08C556.469 484.12 557.059 485.48 557.059 487.16C557.059 488.5 556.639 489.7 555.799 490.76C554.959 491.82 553.719 492.65 552.079 493.25C550.459 493.85 548.489 494.15 546.169 494.15C543.429 494.15 541.009 493.8 538.909 493.1C536.829 492.38 535.199 491.51 534.019 490.49L535.009 489.14C536.049 489.96 537.359 490.66 538.939 491.24C540.519 491.82 542.219 492.11 544.039 492.11C545.219 492.11 546.109 491.94 546.709 491.6C547.329 491.26 547.639 490.78 547.639 490.16C547.639 489.08 546.569 488.24 544.429 487.64L540.529 486.5C538.409 485.86 536.769 484.97 535.609 483.83C534.469 482.69 533.899 481.34 533.899 479.78C533.899 478.48 534.309 477.3 535.129 476.24C535.949 475.18 537.139 474.35 538.699 473.75C540.279 473.13 542.169 472.82 544.369 472.82C546.469 472.82 548.399 473.06 550.159 473.54C551.939 474.02 553.389 474.6 554.509 475.28L553.519 476.66C552.579 476.12 551.449 475.66 550.129 475.28C548.829 474.9 547.459 474.71 546.019 474.71C544.759 474.71 543.789 474.91 543.109 475.31C542.449 475.69 542.119 476.22 542.119 476.9C542.119 477.42 542.369 477.88 542.869 478.28C543.369 478.66 544.319 479.04 545.719 479.42L549.949 480.53Z" fill="#98D6F2" fill-opacity="0.52"/>
<path fill-rule="evenodd" clip-rule="evenodd" d="M71.1612 176.443C98.7557 199.571 130.033 225.785 161.841 254.808C132.937 216.089 111.182 184.831 95.5891 160.87C110.432 156.219 120.496 153.448 125.667 153.647C115.974 146.002 105.528 137.906 94.5129 129.369C66.0544 107.313 33.7981 82.3131 0.903613 54.5276C30.9833 91.7629 53.7724 121.95 70.2353 145.21C55.8031 149.115 45.9963 151.379 40.9578 150.991C50.3521 159.002 60.4808 167.491 71.1612 176.443Z" fill="#D8F2FF" fill-opacity="0.4"/>
<path fill-rule="evenodd" clip-rule="evenodd" d="M90.7766 152.171C117.498 176.303 147.785 203.655 178.5 233.833C151.046 194.073 130.46 162.032 115.763 137.512C130.768 133.412 140.927 131.014 146.087 131.405C136.683 123.406 126.543 114.93 115.851 105.992C88.2264 82.8999 56.9155 56.726 25.0698 27.7446C53.7537 66.0655 75.4123 97.0733 91.0049 120.925C76.4383 124.295 66.5546 126.195 61.5338 125.621C70.6259 133.974 80.4341 142.831 90.7766 152.171Z" fill="#60BBE5" fill-opacity="0.4"/>
<path fill-rule="evenodd" clip-rule="evenodd" d="M621.983 128.218C648.44 103.797 678.428 76.1168 708.812 45.6065C682.045 85.2896 661.935 117.324 647.532 141.913C662.247 144.563 672.212 145.975 677.198 145.156C668.527 153.944 659.166 163.273 649.295 173.11C623.79 198.524 594.883 227.33 565.687 258.98C591.155 217.92 610.143 184.907 623.619 159.695C608.431 156.337 598.166 154.441 593.031 155.084C602.031 146.633 611.743 137.67 621.983 128.218Z" fill="#D8F2FF" fill-opacity="0.4"/>
<path fill-rule="evenodd" clip-rule="evenodd" d="M598.714 106.762C624.252 81.3803 653.197 52.6117 682.433 21C657.15 61.6447 638.237 94.3995 624.752 119.504C639.554 121.608 649.565 122.652 654.518 121.649C646.177 130.752 637.167 140.42 627.666 150.614C603.117 176.954 575.293 206.808 547.287 239.514C571.221 197.541 588.976 163.85 601.512 138.157C586.21 135.362 575.883 133.847 570.774 134.679C579.457 125.902 588.83 116.586 598.714 106.762Z" fill="#60BBE5" fill-opacity="0.4"/>
<path fill-rule="evenodd" clip-rule="evenodd" d="M115.851 105.992C88.2266 82.9001 56.9156 56.7261 25.0698 27.7446C53.7537 66.0654 75.4123 97.0733 91.0049 120.925C76.4383 124.295 66.5546 126.195 61.5339 125.621C70.6259 133.974 80.4341 142.831 90.7766 152.171C117.498 176.303 147.785 203.655 178.5 233.833C151.046 194.073 130.46 162.032 115.763 137.512C130.768 133.412 140.927 131.014 146.087 131.405C136.683 123.406 126.543 114.93 115.851 105.992Z" fill="#60BBE5" fill-opacity="0.4"/>
<defs>
<filter id="filter0_f_147_434" x="126.23" y="142.784" width="207.465" height="81.792" filterUnits="userSpaceOnUse" color-interpolation-filters="sRGB">
<feFlood flood-opacity="0" result="BackgroundImageFix"/>
<feBlend mode="normal" in="SourceGraphic" in2="BackgroundImageFix" result="shape"/>
<feGaussianBlur stdDeviation="3" result="effect1_foregroundBlur_147_434"/>
</filter>
<filter id="filter1_f_147_434" x="411.73" y="732.784" width="207.465" height="81.792" filterUnits="userSpaceOnUse" color-interpolation-filters="sRGB">
<feFlood flood-opacity="0" result="BackgroundImageFix"/>
<feBlend mode="normal" in="SourceGraphic" in2="BackgroundImageFix" result="shape"/>
<feGaussianBlur stdDeviation="3" result="effect1_foregroundBlur_147_434"/>
</filter>
</defs>
</svg>
